<svg xmlns="http://www.w3.org/2000/svg" viewBox="0 0 906.41 882.84"><defs><style>.cls-1{fill:#fff;}</style></defs><title>afterEffectsLogo</title><g id="Nav_Bar" data-name="Nav Bar"><path class="cls-1" d="M904.2,883.69H-1.7V.42H904.2Zm-37.91-38.53V38.33H37V845.16Z"/><path class="cls-1" d="M314.34,202.41c12.19,0,24.39.16,36.58-.09,4.31-.09,6.1,1.49,7.31,5.57q52.2,177.35,104.64,354.63,7,23.84,14.09,47.66c1.72,5.84,1.08,6.71-4.94,6.71q-28.66,0-57.32,0c-6.36,0-6.95-.47-8.63-6.51C396.34,575.17,386.56,540,377,504.74c-1-3.64-2.44-4.88-6.35-4.86q-55.62.27-111.25,0c-3.75,0-5.11,1.19-6,4.72-9.23,35.47-18.64,70.89-28,106.32-1.47,5.57-1.86,5.94-7.76,5.95q-25.45,0-50.91,0c-7.17,0-7.77-.86-5.72-8L191.78,501q37.62-131.6,75.07-263.24c2.62-9.31,2.88-19.3,4-29,.72-6.31.53-6.33,6.92-6.33Zm.05,59.14c-12,60.07-28.91,118.36-44.16,177.36h90.46Z"/><path class="cls-1" d="M635.18,477.36c-22.75,0-45.5.06-68.25-.07-3.29,0-4.27.78-4.1,4.22.74,14.3,3,28.22,9.14,41.29,10.23,21.76,27.84,34,51.06,38a147.92,147.92,0,0,0,81-8.55c.81-.33,1.61-.71,2.44-1,3.27-1.12,4.48-.38,4.49,3.11q.07,23.38,0,46.76c0,4.18-2.31,6.62-6,8.29a142.46,142.46,0,0,1-43.51,11.53c-20.55,2.3-41.1,2.67-61.57-1.17C558.68,612,529,589.23,511.32,551.17c-12.21-26.23-16.45-54.19-16.56-82.84-.13-33.61,5.53-66.06,21.14-96.2,14-27,33.8-48.45,62.89-58.88,38-13.62,75-11.69,108.67,12.58,19.59,14.11,30.8,34.36,38,57.05s7.75,45.95,6.32,69.4A156.16,156.16,0,0,1,729.9,468c-1,5.92-2.4,7.26-8.44,7.52-19.58.86-39.16,1.66-58.75,2.26-9.17.28-18.35,0-27.53,0Zm-71.51-51.69h5.1c20.74,0,41.48.05,62.21,0,10.93,0,21.86-.34,32.79-.36,2.66,0,3.9-.85,4-3.56.82-20.7-4.23-39.16-20.88-52.82a39.09,39.09,0,0,0-12.26-6.39c-21.77-7.19-44.16.6-56.86,19.66a78.35,78.35,0,0,0-6.51,12.28A99,99,0,0,0,563.67,425.67Z"/></g></svg>