<svg xmlns="http://www.w3.org/2000/svg" viewBox="0 0 906.41 882.84"><defs><style>.cls-1{fill:#fff;}</style></defs><title>illistratorLogo</title><g id="Nav_Bar" data-name="Nav Bar"><g id="ku4t63.tif"><path class="cls-1" d="M1.6,888.67V4c2.37.11,4.74.32,7.12.32h893c1.54,0,3.22-.37,4.58.12a5.77,5.77,0,0,1,3,2.88c.51,1.18.12,2.75.12,4.16q0,434.52,0,869c0,8.7,1.34,8.12-8.07,8.12Zm454.55-846v-.08H45c-6.5,0-6.51,0-6.51,6.46q0,398.75,0,797.48c0,7,0,7,7,7H866.89c6.92,0,6.93,0,6.93-7V49c0-6.36,0-6.37-6.51-6.37ZM41.35,40.39v.31H870.89v-.31Z"/><ellipse class="cls-1" cx="456.12" cy="40.54" rx="586.57" ry="0.22"/><path class="cls-1" d="M540.47,623.39H480.76c-6,0-9.51-3.26-11-9.21-2.35-9.44-5.16-18.76-7.67-28.16-2.59-9.66-5-19.37-7.6-29-2.27-8.45-4.7-16.87-7-25.31-2.24-8.18-4.41-16.37-6.63-24.55a15.6,15.6,0,0,0-.82-1.84c-39.47,0-79,.09-118.48-.11-4.49,0-5.26,3-5.95,5.62-2.25,8.6-3.86,17.35-6,26q-4.53,18.5-9.45,36.89c-2.93,10.9-6.17,21.72-9.22,32.58a29.46,29.46,0,0,0-1,5.34c-.43,5-3.6,8.2-7.07,11.21a3.84,3.84,0,0,1-2.34.56q-27.76,0-55.54-.05a10.15,10.15,0,0,1-1.79-.74c1.49-5.41,3-10.95,4.55-16.48q4-14.46,8.1-28.89c2.38-8.43,4.81-16.85,7.18-25.28,2.67-9.49,5.23-19,8-28.49,2.33-8,5-15.94,7.28-23.95,2.15-7.47,4-15,6.1-22.52,1.79-6.44,3.72-12.83,5.54-19.25,2.69-9.49,5.27-19,8-28.48,2.28-7.88,4.81-15.7,7.07-23.59s4.19-15.55,6.37-23.3c1.81-6.42,3.8-12.8,5.65-19.21,3.2-11.08,6.32-22.18,9.52-33.26,1.82-6.28,3.79-12.51,5.56-18.8,2.13-7.62,4.07-15.3,6.2-22.93,1.79-6.42,3.79-12.79,5.62-19.21,2.66-9.36,5.33-18.71,7.83-28.11a96.25,96.25,0,0,0,3.46-27.66c-.13-4.18,2.18-6.06,6.79-6.07,14.73,0,29.46,0,44.18,0,9.12,0,18.23,0,27.35,0,5.34,0,6.94,1.72,7.39,6.77.15,1.68,1.25,3.27,1.83,4.93,1.74,5.08,3.6,10.12,5.09,15.28.82,2.8.84,5.83,1.49,8.69.37,1.68,1.37,3.2,1.93,4.85,1.65,4.9,3.33,9.8,4.79,14.76.78,2.65,1,5.46,1.73,8.14.5,1.93,1.38,3.77,2,5.68,2.13,6.51,4.27,13,6.29,19.56.84,2.73,1.37,5.56,2.07,8.34.57,2.21,1.1,4.44,1.81,6.61,1,3.15,2.4,6.2,3.26,9.39.72,2.64.68,5.5,1.42,8.14s2.06,5.26,3.08,7.9a54.83,54.83,0,0,1,2.27,6.24c1.71,6.89,3,13.89,5,20.69,1.89,6.48,5.7,12.63,6.37,19.15.64,6.28,3.89,11.16,5.47,16.81.83,3,.14,6.6,1.55,9.15,2.56,4.64,1.24,10.38,5.11,14.67,1.5,1.68,1.14,5,1.68,7.59s.95,5.06,1.71,7.5c.95,3,2.27,5.95,3.29,9,.87,2.59,1.54,5.26,2.3,7.89.92,3.2,1.77,6.43,2.82,9.59.48,1.46,1.63,2.73,2,4.2.62,2.38.85,4.86,1.31,7.29a15.49,15.49,0,0,0,.86,3c.84,2,2.62,4,2.5,6-.3,4.86,1.43,8.75,3.82,12.74,1.07,1.77.84,4.29,1.38,6.42.73,2.89,1.61,5.74,2.48,8.59.18.6.76,1.08.89,1.68.64,3.07,1.05,6.19,1.82,9.22.84,3.29,2,6.49,3,9.74.77,2.47,1.54,4.95,2.29,7.43,1,3.18,1.83,6.39,2.88,9.55.45,1.32,1.51,2.45,1.87,3.78.63,2.37.89,4.83,1.42,7.23.62,2.83.59,6.28,2.25,8.29a11.33,11.33,0,0,1,2.83,9.42,5.2,5.2,0,0,0,.53,2.6c.94,2.07,2.4,4,3,6.12.83,3.22.63,6.74,1.61,9.89,1.89,6,4.51,11.83,6.38,17.86C541.05,617.6,540.47,620.2,540.47,623.39ZM379.58,267.18c-1.66,1.94-3.1,2.9-3.47,4.18-1.33,4.56-2.46,9.2-3.36,13.88-1.35,6.95-2.13,14-3.7,20.93-2.59,11.4-5.57,22.71-8.5,34-4.23,16.31-8.6,32.59-12.86,48.89-3.25,12.39-6.42,24.79-9.62,37.18-1.63,6.29-3.24,12.57-5,19.32a44.63,44.63,0,0,0,4.49.52q41,0,82,0c4.57,0,5.51-1.66,4-6.15-1-3-1.88-6.11-2.69-9.2-2.05-7.79-4-15.6-6.05-23.4q-2.86-11.09-5.76-22.18c-2.08-7.92-4.21-15.83-6.26-23.76q-3.65-14.13-7.2-28.28c-1.9-7.54-3.75-15.1-5.64-22.65-2-8.08-4.14-16.14-6.09-24.24C382.44,280.34,381.19,274.39,379.58,267.18Z"/><path class="cls-1" d="M664.94,623.37H606.61c-4.26,0-6.89-2.46-7.15-6.72-.07-1.12,0-2.24,0-3.36q0-143.68,0-287.36c0-8.47.94-9.41,9.43-9.41h46.7c8,0,9.32,1.28,9.33,9.23q0,142,.05,284Z"/><path class="cls-1" d="M670.63,234.56c.06,22.66-16,38.79-38.86,38.67-19.44-.09-37.19-17.31-37.31-38.24-.13-22,16.6-36,36-38.28C650.5,194.41,671.89,215.76,670.63,234.56Z"/></g></g></svg>