<svg xmlns="http://www.w3.org/2000/svg" viewBox="0 0 906.41 882.84"><defs><style>.cls-1{fill:#fff;}</style></defs><title>inDesignLogo</title><g id="Nav_Bar" data-name="Nav Bar"><g id="RroKw5"><path class="cls-1" d="M904.2,883H-1.45V1.36H904.2Zm-865-441.41v394.5c0,7.28,0,7.3,7.31,7.3q405,0,809.9.12c5.83,0,7.19-1.6,7.19-7.1,0-108.18.29-216.35.28-324.52q0-200.84-.4-401.66,0-30.57,0-61.16c0-8.12,0-8.12-8.15-8.12H47.15c-7.91,0-7.92,0-7.92,7.8Z"/><path class="cls-1" d="M637.67,400.34q0,88.41.1,176.83c0,5-1.69,7.62-6.2,10.33-17.57,10.53-37,16.67-56.38,22.4-15.38,4.53-31.52,5.68-47.72,4.89A161.76,161.76,0,0,1,479,605c-20.87-7.66-35.94-22.3-49.07-38.24-9-10.94-14.46-25-19.79-38.35-4.43-11-5.7-23.11-7.7-34.95-2.41-14.31-.34-28.46-1.9-42.62-.43-4,2-8.18,2.79-12.34a183.91,183.91,0,0,1,21.83-58.13c10.14-17.27,24.14-31,39.92-43.36,14-11,30.24-17.24,46.94-22.48,6.62-2.08,13.92-2.46,21-2.87,8.08-.47,16.22-.26,24.32,0a40.54,40.54,0,0,1,9.83,1.6c7.05,2,10.36-.18,10.36-7.23q0-42.14,0-84.28c0-7.14,0-7.14,7.57-7.15,15.28,0,30.56.22,45.83-.12,5.53-.12,7,1.65,7,6.89q-.25,89.52-.11,179Zm-60.25,61.72V438.38c0-20.92,0-41.85,0-62.77,0-4.38-.76-8.39-5.78-9.46-16.66-3.54-33.39-4.42-50.1-.15-18.18,4.64-32.19,15.18-41.46,30.69-10.78,18.05-16,38-16.64,58.95-.19,6.79-.75,13.68.13,20.36a255.08,255.08,0,0,0,6.35,33.71c2,7.42,6.18,14.31,9.57,21.35,6.36,13.2,18.43,19.47,31.41,25,12.81,5.5,26.13,4.61,39.39,4.21,6.61-.2,13.13-2.48,19.76-3.4s7.45-5.11,7.42-10.6C577.33,518.22,577.42,490.14,577.42,462.06Z"/><path class="cls-1" d="M332,412.42V600.76c0,7.34,0,7.35-7.36,7.36H279.39c-7.5,0-7.52,0-7.52-7.19q0-84.54,0-169.07,0-103.82-.1-207.62c0-7.58,0-7.59,7.74-7.59q22.35,0,44.69,0c7.9,0,7.91,0,7.91,8V412.42Z"/></g></g></svg>