<svg xmlns="http://www.w3.org/2000/svg" viewBox="0 0 906.41 882.84"><defs><style>.cls-1{fill:#fff;}</style></defs><title>PhotoShopIcon</title><g id="Nav_Bar" data-name="Nav Bar"><g id="Z3nbVg.tif"><path class="cls-1" d="M904.17,880.92H1.28V.41H904.17Zm-37.58-38.51V38h-5.93L122,38H44.41c-1.49,0-3,.22-4.44.34a13,13,0,0,0-.31,1.84Q39.6,440,39.57,839.86a11.89,11.89,0,0,0,.22,1.77.72.72,0,0,0,.15.32c.07.09.17.17.46.46Z"/><path class="cls-1" d="M286.52,466.22v5.12l0,135.32c0,1.44,0,2.89-.1,4.33-.23,2.25-1.2,3.18-3.42,3.46a21.15,21.15,0,0,1-2.52.06H226.68a23.5,23.5,0,0,1-2.52,0c-2.45-.27-3.34-1.13-3.64-3.64a33.41,33.41,0,0,1-.13-3.61q-.07-198.65-.14-397.29c0-5.3.93-6.46,6.11-7.56a19.55,19.55,0,0,1,3.57-.42c22.72-.56,45.44-1.22,68.17-1.6,13.11-.22,26.23-.31,39.33.12,20.8.68,41.13,4.17,60.51,12.06,36.74,15,59.12,42.13,68,80.61a171.92,171.92,0,0,1,3.87,33.26,153.61,153.61,0,0,1-5.68,48.14c-10.29,35.6-32.91,60.58-66.36,75.93-18.42,8.45-37.91,12.83-58,14.83-15.63,1.56-31.22,1.14-46.85.53-1.56-.07-3.12,0-4.68,0A12.05,12.05,0,0,0,286.52,466.22Zm.73-60.08c2.67.22,5.16.59,7.66.62q13.17.15,26.34.12a115.08,115.08,0,0,0,37.22-5.9c21.18-7.26,35.41-21.32,41.25-43.17a96.19,96.19,0,0,0-.05-51c-4.93-18-16.06-30.92-33-38.77-10.28-4.76-21.19-7-32.41-7.86-12.62-1-25.24-.09-37.86.21-3,.07-5.94.44-9.14.69Z"/><path class="cls-1" d="M506.75,571.3q0-13,0-26c0-1.76-.4-3.85,1.5-4.86s3.17.64,4.55,1.49a137.23,137.23,0,0,0,58.06,20.14c11,1.22,22.07,1.49,33-.86a41.66,41.66,0,0,0,12.69-5c13.77-8.22,15.51-26,8.15-36.94a54.31,54.31,0,0,0-8.34-9.4c-7.66-7.05-16.63-12.25-25.73-17.18-7.07-3.84-14.34-7.31-21.44-11.1a177.21,177.21,0,0,1-30.74-20.09c-11.16-9.31-20.76-20-25.58-33.86-11.22-32.24-8.22-62.59,14.27-89.45,12.61-15.06,29.37-23.75,48.14-28.8,15.73-4.24,31.78-4.87,47.94-4.1,11.42.54,22.81,1.5,34,4.08,6.07,1.41,12,3.37,18,5.21,4.24,1.3,6,4.36,6,8.74-.05,16.72,0,33.44,0,50.15,0,.24,0,.48,0,.72-.23,3.83-2.37,5.16-5.82,3.47-4-2-7.83-4.23-11.89-6-12.66-5.55-26-8.5-39.7-9.85-7.92-.77-15.84-1.1-23.74,0-7.61,1.09-14.69,3.44-20.78,8.4-11.14,9.08-11.42,25.42-2.87,35.16A62.33,62.33,0,0,0,591.66,418c9.62,5.67,19.33,11.22,29.25,16.34,13.7,7.09,27.07,14.63,39.19,24.24,9.7,7.69,18.08,16.55,24.19,27.41a76.63,76.63,0,0,1,9.44,30.8c1.39,14.74.57,29.32-4.28,43.45-6.94,20.25-20.05,35.33-38.67,45.73-13.62,7.61-28.3,11.83-43.73,13.64A190.61,190.61,0,0,1,529.66,613c-6.29-1.88-12.21-5-18.35-7.35-3.62-1.42-4.62-4.1-4.59-7.69.1-8.9,0-17.8,0-26.7Z"/></g></g></svg>