<svg xmlns="http://www.w3.org/2000/svg" viewBox="0 0 906.41 882.84"><defs><style>.cls-1{fill:#fff;}</style></defs><title>PremiereLogo</title><g id="Nav_Bar" data-name="Nav Bar"><g id="bvwaEx.tif"><path class="cls-1" d="M905.4,882.67H1.19V1H905.4ZM867.6,845V39.6H39.75V845Z"/><path class="cls-1" d="M303,468.11V609.94c0,6.73-.37,7.13-7,7.13q-26.53,0-53.07,0c-6.22,0-6.75-.54-6.74-6.59q.1-191,.23-382.06c0-6.65.24-13.3.25-19.95,0-3.22,1.22-4.8,4.66-4.84,36.12-.44,72.25-1.59,108.37-1.26,25.8.24,50.8,5.75,73.92,17.84,28.94,15.13,48.21,38.4,57.15,69.84a155.19,155.19,0,0,1-1.38,90.81c-11.26,35.66-35.46,59.61-69.57,73.89-25.76,10.79-52.85,14.33-80.58,13.92-7.15-.1-14.29-.38-21.44-.56C306.35,468.07,304.88,468.11,303,468.11Zm.21-59.92c4.32.19,8.3.46,12.28.54,16.93.36,33.87.72,50.5-3.31,23.77-5.76,41.38-18.72,49.08-42.82,4.26-13.32,4.92-27,3.45-40.9-3.1-29.28-19.95-49-48.26-56.59-17.49-4.69-35.28-3.84-53.06-3.25-4.6.15-9.2.44-14,.68Z"/><path class="cls-1" d="M544.13,485.35c0-36.51.14-73-.07-109.54-.07-12.28-.89-24.56-1.63-36.82-.23-3.83.85-5.89,4.58-7.32a387.38,387.38,0,0,1,77.27-20.34,355.74,355.74,0,0,1,56.54-4.73c6.13,0,6.38.2,6.39,6.28q0,24.84,0,49.69c0,5.41-.43,5.85-5.78,5.72-20-.49-39.88.43-59.5,4.59-10,2.13-10,2.2-10,12.53V607.87c0,1.38,0,2.76,0,4.14-.09,4.69-.85,5.5-5.51,5.52-8.66,0-17.31,0-26,0H550.69c-5.73,0-6.55-.81-6.55-6.47Q544.13,548.2,544.13,485.35Z"/></g></g></svg>