<svg id="Layer_1" data-name="Layer 1" xmlns="http://www.w3.org/2000/svg" viewBox="0 0 1917.67 6244.12">
    <defs>
        <style>
            .cls-1{fill:#720038;}
            
            .cls-1:{
                animation-name:HexScail;
                animation-duration:4s;
                animation-iteration-count:1;
                transform-origin: 50% 50%;
            }
            @keyframes HexScail{
                0% { transform: scale(0.5;)}
                50% { transform: scale(1.5;)}
                100% { transform: scale(0.5;)}
            }
        </style>
    </defs>
    <title>HexGrid</title>
    <polygon class="cls-1" points="981.81 597.19 1124.12 597.19 1296.51 298.6 1250.26 218.48 1124.12 0 779.33 0 606.93 298.6 779.33 597.19 981.81 597.19"/>
    <polygon class="cls-1" points="779.33 1925.15 988.27 1925.15 1124.12 1925.15 1296.51 1626.55 1252.83 1550.89 1124.12 1327.96 810.61 1327.96 779.33 1327.96 736.6 1401.96 606.93 1626.55 779.33 1925.15"/>
    <polygon class="cls-1" points="779.33 3253.67 988.26 3253.67 1124.12 3253.67 1296.51 2955.08 1252.62 2879.06 1124.12 2656.48 810.61 2656.48 779.33 2656.48 736.6 2730.49 606.93 2955.08 779.33 3253.67"/>
    <polygon class="cls-1" points="476.11 930.63 517.18 930.63 568.4 841.92 689.58 632.04 517.18 333.44 172.39 333.44 0 632.04 172.39 930.63 476.11 930.63"/>
    <polygon class="cls-1" points="517.18 1594.61 543.57 1548.91 689.58 1296.02 517.18 997.42 409.32 997.42 172.39 997.42 0 1296.02 172.39 1594.61 517.18 1594.61"/>
    <polygon class="cls-1" points="476.68 2258.59 517.18 2258.59 568.19 2170.24 689.58 1960 517.18 1661.4 172.39 1661.4 0 1960 172.39 2258.59 476.68 2258.59"/>
    <polygon class="cls-1" points="517.18 2923.14 543.57 2877.43 689.58 2624.54 517.18 2325.95 409.32 2325.95 172.39 2325.95 0 2624.54 172.39 2923.14 517.18 2923.14"/>
    <polygon class="cls-1" points="477.5 3587.12 517.18 3587.12 568.52 3498.19 689.58 3288.52 517.18 2989.93 172.39 2989.93 0 3288.52 172.39 3587.12 477.5 3587.12"/>
    <polygon class="cls-1" points="173.26 4915.6 477.54 4915.6 518.04 4915.6 569.06 4827.24 690.44 4617.01 518.04 4318.41 173.26 4318.41 0.86 4617.01 173.26 4915.6"/>
    <polygon class="cls-1" points="173.26 5580.15 518.04 5580.15 544.43 5534.44 690.44 5281.55 518.04 4982.95 410.18 4982.95 173.26 4982.95 0.86 5281.55 173.26 5580.15"/>
    <polygon class="cls-1" points="173.26 5646.93 0.86 5945.53 173.26 6244.12 518.04 6244.12 690.44 5945.53 518.04 5646.93 173.26 5646.93"/>
    <polygon class="cls-1" points="1744.42 997.42 1399.63 997.42 1227.23 1296.02 1399.63 1594.61 1744.42 1594.61 1916.81 1296.02 1744.42 997.42"/>
    <polygon class="cls-1" points="1744.42 1661.4 1455.78 1661.4 1399.63 1661.4 1227.23 1960 1354.52 2180.46 1399.63 2258.59 1744.42 2258.59 1916.81 1960 1744.42 1661.4"/>
    <polygon class="cls-1" points="1744.42 2325.95 1399.63 2325.95 1227.23 2624.54 1399.63 2923.14 1744.42 2923.14 1916.81 2624.54 1744.42 2325.95"/>
    <polygon class="cls-1" points="1456.34 2989.93 1399.63 2989.93 1227.23 3288.52 1354.52 3508.98 1399.63 3587.12 1744.42 3587.12 1916.81 3288.52 1744.42 2989.93 1456.34 2989.93"/>
    <polygon class="cls-1" points="1745.28 4251.62 1917.67 3953.03 1745.28 3654.43 1400.49 3654.43 1228.1 3953.03 1400.49 4251.62 1745.28 4251.62"/>
    <polygon class="cls-1" points="1456.65 4318.41 1400.49 4318.41 1228.1 4617.01 1355.38 4837.47 1400.49 4915.6 1745.28 4915.6 1917.67 4617.01 1745.28 4318.41 1456.65 4318.41"/>
    <polygon class="cls-1" points="1400.49 4982.95 1228.1 5281.55 1400.49 5580.15 1745.28 5580.15 1917.67 5281.55 1745.28 4982.95 1400.49 4982.95"/>
    <polygon class="cls-1" points="1457.2 5646.93 1400.49 5646.93 1228.1 5945.53 1355.38 6165.99 1400.49 6244.12 1745.28 6244.12 1917.67 5945.53 1745.28 5646.93 1457.2 5646.93"/>
    <polygon class="cls-1" points="606.93 2291.1 779.33 2589.69 877.39 2589.69 1124.12 2589.69 1296.51 2291.1 1217.68 2154.55 1124.12 1992.5 1055.63 1992.5 779.33 1992.5 636.99 2239.03 606.93 2291.1"/>
    <polygon class="cls-1" points="607.8 3619.58 780.19 3918.18 878.26 3918.18 1124.98 3918.18 1297.37 3619.58 1219.78 3485.19 1124.98 3320.99 1055.58 3320.99 780.19 3320.99 637.86 3567.52 607.8 3619.58"/>
    <polygon class="cls-1" points="410.18 3654.43 173.26 3654.43 0.86 3953.03 173.26 4251.62 518.04 4251.62 544.43 4205.92 690.44 3953.03 518.04 3654.43 410.18 3654.43"/>
    <polygon class="cls-1" points="878.26 5246.7 1124.98 5246.7 1297.37 4948.11 1218.54 4811.56 1124.98 4649.51 1056.49 4649.51 780.19 4649.51 637.86 4896.04 607.8 4948.11 780.19 5246.7 878.26 5246.7"/>
    <polygon class="cls-1" points="1124.12 663.98 1048.6 663.98 779.33 663.98 636.99 910.51 606.93 962.57 779.33 1261.17 877.39 1261.17 1124.12 1261.17 1296.51 962.57 1227.28 842.66 1124.12 663.98"/>
    <polygon class="cls-1" points="1352.15 848.41 1399.63 930.63 1744.42 930.63 1916.81 632.04 1744.42 333.44 1449.88 333.44 1399.63 333.44 1227.23 632.04 1352.15 848.41"/>
    <polygon class="cls-1" points="1253.69 4207.9 1124.98 3984.96 811.47 3984.96 780.19 3984.96 737.46 4058.97 607.8 4283.56 780.19 4582.16 989.13 4582.16 1124.98 4582.16 1297.37 4283.56 1253.69 4207.9"/>
    <polygon class="cls-1" points="1253.48 5536.07 1124.98 5313.49 811.47 5313.49 780.19 5313.49 737.46 5387.49 607.8 5612.08 780.19 5910.68 989.13 5910.68 1124.98 5910.68 1297.37 5612.08 1253.48 5536.07"/>
</svg>