<svg id="Layer_1" data-name="Layer 1" xmlns="http://www.w3.org/2000/svg" viewBox="0 0 1713.19 1556.43">
    <defs>
        <style>
            .cls-1{
                fill:#5a0033;
            }
        </style>
    </defs>
    <title>
        HexPattern
    </title>
    <polygon class="cls-1" id="thing" points="358.95 631.2 526.55 631.2 610.35 776.34 526.55 921.49 358.95 921.49 275.15 776.34 358.95 631.2"/>
    <polygon class="cls-1" id="thing" points="83.8 472.96 251.4 472.96 335.19 618.11 251.4 763.25 83.8 763.25 0 618.11 83.8 472.96"/>
    <polygon class="cls-1" id="thing" points="83.8 787.06 251.4 787.06 335.19 932.21 251.4 1077.35 83.8 1077.35 0 932.21 83.8 787.06"/>
    <polygon class="cls-1" id="thing" points="910.75 631.2 1078.34 631.2 1162.14 776.34 1078.34 921.49 910.75 921.49 826.95 776.34 910.75 631.2"/>
    <polygon class="cls-1" id="thing" points="635.59 472.96 803.19 472.96 886.99 618.11 803.19 763.25 635.59 763.25 551.79 618.11 635.59 472.96"/>
    <polygon class="cls-1" id="thing" points="635.59 787.06 803.19 787.06 886.99 932.21 803.19 1077.35 635.59 1077.35 551.79 932.21 635.59 787.06"/>
    <polygon class="cls-1" id="thing" points="634.11 158.24 801.71 158.24 885.5 303.38 801.71 448.52 634.11 448.52 550.31 303.38 634.11 158.24"/>
    <polygon class="cls-1" id="thing" points="358.95 0 526.55 0 610.35 145.14 526.55 290.29 358.95 290.29 275.15 145.14 358.95 0"/>
    <polygon class="cls-1" id="thing" points="358.95 314.1 526.55 314.1 610.35 459.24 526.55 604.38 358.95 604.38 275.15 459.24 358.95 314.1"/>
    <polygon class="cls-1" id="thing" points="1185.9 158.24 1353.5 158.24 1437.3 303.38 1353.5 448.52 1185.9 448.52 1102.1 303.38 1185.9 158.24"/>
    <polygon class="cls-1" id="thing" points="910.75 0 1078.34 0 1162.14 145.14 1078.34 290.29 910.75 290.29 826.95 145.14 910.75 0"/>
    <polygon class="cls-1" id="thing" points="910.75 314.1 1078.34 314.1 1162.14 459.24 1078.34 604.38 910.75 604.38 826.95 459.24 910.75 314.1"/>
    <polygon class="cls-1" id="thing" points="634.85 1110.28 802.45 1110.28 886.25 1255.42 802.45 1400.57 634.85 1400.57 551.05 1255.42 634.85 1110.28"/>
    <polygon class="cls-1" id="thing" points="359.69 952.04 527.29 952.04 611.09 1097.19 527.29 1242.33 359.69 1242.33 275.9 1097.19 359.69 952.04"/>
    <polygon class="cls-1" id="thing" points="359.69 1266.14 527.29 1266.14 611.09 1411.29 527.29 1556.43 359.69 1556.43 275.9 1411.29 359.69 1266.14"/>
    <polygon class="cls-1" id="thing" points="1186.64 1110.28 1354.24 1110.28 1438.04 1255.42 1354.24 1400.57 1186.64 1400.57 1102.84 1255.42 1186.64 1110.28"/>
    <polygon class="cls-1" id="thing" points="911.49 952.04 1079.08 952.04 1162.88 1097.19 1079.08 1242.33 911.49 1242.33 827.69 1097.19 911.49 952.04"/>
    <polygon class="cls-1" id="thing" points="911.49 1266.14 1079.08 1266.14 1162.88 1411.29 1079.08 1556.43 911.49 1556.43 827.69 1411.29 911.49 1266.14"/>
    <polygon class="cls-1" id="thing" points="1461.8 637.32 1629.39 637.32 1713.19 782.46 1629.39 927.6 1461.8 927.6 1378 782.46 1461.8 637.32"/>
    <polygon class="cls-1" id="thing" points="1186.64 479.08 1354.24 479.08 1438.04 624.22 1354.24 769.37 1186.64 769.37 1102.84 624.22 1186.64 479.08"/>
    <polygon class="cls-1" id="thing" points="1186.64 793.18 1354.24 793.18 1438.04 938.32 1354.24 1083.46 1186.64 1083.46 1102.84 938.32 1186.64 793.18"/>
</svg>