<svg xmlns="http://www.w3.org/2000/svg" xmlns:xlink="http://www.w3.org/1999/xlink" viewBox="0 0 1164.23 761.43"><defs><style>.cls-1{fill:none;}.cls-2{fill:#fff;}.cls-3{clip-path:url(#clip-path);}.cls-4{clip-path:url(#clip-path-2);}.cls-5{clip-path:url(#clip-path-3);}.cls-6{clip-path:url(#clip-path-4);}.cls-7{clip-path:url(#clip-path-5);}.cls-8{clip-path:url(#clip-path-6);}.cls-9{clip-path:url(#clip-path-7);}.cls-10{clip-path:url(#clip-path-8);}.cls-11{clip-path:url(#clip-path-9);}.cls-12{clip-path:url(#clip-path-10);}.cls-13{clip-path:url(#clip-path-11);}.cls-14{fill:#ff733f;}.cls-15{fill:#dd003c;}</style><clipPath id="clip-path"><path class="cls-1" d="M329.68,227.83C311.4,202.75,300,169.46,300,132.91a175.15,175.15,0,0,1,3.94-37l-.22.48c-4.11,13.91-36.19,129.19,14.65,180,19.37-19.38,30.69-27.34,30.69-27.34a108,108,0,0,1-9-8.7h0A126.44,126.44,0,0,1,329.68,227.83Z"/></clipPath><clipPath id="clip-path-2"><path class="cls-1" d="M232.43,181.85s20.18,136.07,166.5,227.59a112.69,112.69,0,0,1-14.19-54.92c0-1.7,0-3.38.11-5-55.49-14.35-92.91-55.39-116.82-93.33A273.69,273.69,0,0,1,237.91,196C235,188.47,233.18,183.39,232.43,181.85Z"/></clipPath><clipPath id="clip-path-3"><path class="cls-1" d="M373.8,431.68h0q-3.6-1-7-2a228.53,228.53,0,0,1-43.93-17.23c-9.46-4.69-16.9-9.1-22.58-12.6-6.06-3.67-10.2-6.34-11.81-7.1l.11.17c2.26,3.38,40.86,59.2,179.1,64.89,3.77-4.36,7.86-8.68,10.37-11.29a111.18,111.18,0,0,1-24.1-22.15q-1.59-2-3.08-4c-24,16.06-51.83,16.63-77.58,10.89l.54.45Z"/></clipPath><clipPath id="clip-path-4"><path class="cls-1" d="M453.93,476.55a3.14,3.14,0,0,1-.29.49h0l-.1.11c-3.57,5.87-13.68,17-24.81,28.42-19.35,21.57-30.65,32.46-37.2,37.65C454,524.76,515.4,446.37,515.4,446.37L481.54,443S457.42,466.88,453.93,476.55Z"/></clipPath><clipPath id="clip-path-5"><path class="cls-1" d="M552,454.61a138.77,138.77,0,0,1-15.06,48c-15.79,32.31-34.89,46.79-40.05,50.28l-.8.72.56-.13c5.46-2.78,34.59-19.63,60.45-73.41a218.34,218.34,0,0,0-2.48-24.87Z"/></clipPath><clipPath id="clip-path-6"><path class="cls-1" d="M575.2,498.45a110.75,110.75,0,0,0,21.45,62.11,75.66,75.66,0,0,0-15.26,33.56,74,74,0,0,0-1,12.44c0,.81,0,1.61,0,2.42,0,.55,0,1.1.07,1.65-3.63,7.44-6,12.09-6,12.09s-2.35-4.63-6-12c.07-1.36.11-2.73.11-4.12,0-1.11,0-2.22-.07-3.33l-.06-1.13a73.08,73.08,0,0,0-7.76-28.68A77.54,77.54,0,0,0,553,560.78a109.25,109.25,0,0,0,21.68-65.5C574.64,496.51,575.16,497.22,575.2,498.45Z"/></clipPath><clipPath id="clip-path-7"><path class="cls-1" d="M818.94,227.83c18.28-25.08,29.65-58.37,29.65-94.92a175.15,175.15,0,0,0-3.94-37l.22.48c4.11,13.91,36.69,129.68-14.15,180.52-19.37-19.37-30.89-27.67-30.89-27.67s3.6-3.37,8.75-8.86h0A126.44,126.44,0,0,0,818.94,227.83Z"/></clipPath><clipPath id="clip-path-8"><path class="cls-1" d="M916.69,182.85s-20.18,136.57-166.5,228.09a114.63,114.63,0,0,0,14.19-55.43c0-1.69,0-3.37-.11-5,55.49-14.35,92.91-55.39,116.82-93.33A273.69,273.69,0,0,0,911.21,197C914.17,189.47,915.94,184.38,916.69,182.85Z"/></clipPath><clipPath id="clip-path-9"><path class="cls-1" d="M775.82,432.68h0c2.4-.67,4.75-1.34,7-2a228.38,228.38,0,0,0,43.94-17.24c9.46-4.68,16.9-9.09,22.58-12.59,6.06-3.67,10.2-6.35,11.81-7.1l-.11.17c-2.26,3.38-41.86,59.2-180.1,64.89-3.77-4.36-7.36-8.69-9.87-11.29a116.32,116.32,0,0,0,24.6-22.66q1.59-2,3.08-4c24,16.06,51.83,17.13,77.58,11.39l-.54.44Z"/></clipPath><clipPath id="clip-path-10"><path class="cls-1" d="M695.69,477.55c.08.16.19.32.29.49h0l.1.12c3.57,5.87,13.68,16.95,24.81,28.42,19.35,21.57,30.64,32.45,37.2,37.65-63.31-17.92-124.34-96.86-124.34-96.86L668.08,444S691.08,468.23,695.69,477.55Z"/></clipPath><clipPath id="clip-path-11"><path class="cls-1" d="M597.62,455.11c2.3,18,7.13,34.57,14.56,48.5,15.79,32.31,34.89,46.79,40.05,50.28l.79.71-.55-.12C647,551.7,617.88,534.85,592,481.07a218.73,218.73,0,0,1,2.48-24.88Z"/></clipPath></defs><title>Logo</title><g id="Nav_Bar" data-name="Nav Bar"><path class="cls-2" d="M498.76,19.94v84.67h-5.93V19.94H465.05V14.82h61.48v5.12Z"/><path class="cls-2" d="M602.71,104.61V61.74H548v42.87H542V14.82H548V56.34h54.74V14.82h5.93v89.79Z"/><path class="cls-2" d="M632.91,104.61V14.82H679v5.12H638.84v36H677.4v5.12H638.84V99.49h40.58v5.12Z"/><path class="cls-2" d="M404.12,173.51l34.51-65.92h5l6.47,89.79h-5.8L439,117.7l-32.23,62.15h-5.39L369.2,117.7l-5.26,79.68h-5.8l6.47-89.79h5Z"/><path class="cls-2" d="M519.79,107.59h6.34l-29.26,52.58v37.21h-5.93V160.17l-29.25-52.58H468l25.89,47.18Z"/><path class="cls-2" d="M567.39,112.71v84.67h-5.94V112.71H533.68v-5.12h61.48v5.12Z"/><path class="cls-2" d="M671.33,197.38V154.5H616.6v42.88h-5.94V107.59h5.94v41.52h54.73V107.59h5.94v89.79Z"/><path class="cls-2" d="M702.21,197.38V107.59h5.93v89.79Z"/><path class="cls-2" d="M793.35,114.6a48.19,48.19,0,0,0-10-2.7,67.83,67.83,0,0,0-10.45-.81,44.73,44.73,0,0,0-16.52,2.9,34.27,34.27,0,0,0-12.47,8.29,36.06,36.06,0,0,0-7.82,13.08,55.85,55.85,0,0,0,0,34.31,36,36,0,0,0,7.82,13A34.14,34.14,0,0,0,756.34,191a44.53,44.53,0,0,0,16.52,2.9,67.83,67.83,0,0,0,10.45-.81,47.56,47.56,0,0,0,10-2.69l1.08,4.85a42.17,42.17,0,0,1-10.18,2.83,74,74,0,0,1-11.8.95,49.64,49.64,0,0,1-19-3.44A40.3,40.3,0,0,1,739.28,186a41.23,41.23,0,0,1-8.83-14.7,56.05,56.05,0,0,1-3-18.81,55.43,55.43,0,0,1,3-18.74,42,42,0,0,1,8.83-14.69,39.8,39.8,0,0,1,14.16-9.64,49.45,49.45,0,0,1,19-3.44,74,74,0,0,1,11.8.94,42.63,42.63,0,0,1,10.18,2.83Z"/><g class="cls-3"><polygon class="cls-2" points="285.98 276.4 282.86 268.71 349.09 241.9 349.09 276.4 285.98 276.4"/><polygon class="cls-2" points="282.86 268.71 267.56 230.89 267.56 160.23 323.08 137.75 349.09 202.01 349.09 241.9 282.86 268.71"/><polygon class="cls-2" points="306.13 95.89 323.08 137.75 267.56 160.23 267.56 95.89 306.13 95.89"/></g><g class="cls-4"><polygon class="cls-2" points="332.34 409.44 396.88 362.67 398.93 365.49 398.93 409.44 332.34 409.44"/><polygon class="cls-2" points="316.46 409.44 232.43 293.48 232.43 275.92 299.04 227.65 396.88 362.67 332.34 409.44 316.46 409.44"/><polygon class="cls-2" points="265.85 181.85 299.04 227.65 232.43 275.92 232.43 181.85 265.85 181.85"/></g><g class="cls-5"><polygon class="cls-2" points="442.94 457.79 452.07 418.58 478.03 424.63 478.03 457.79 442.94 457.79"/><polygon class="cls-2" points="345.02 457.79 327.19 453.64 341.37 392.8 452.07 418.58 442.94 457.79 345.02 457.79"/><polygon class="cls-2" points="327.19 453.64 288.45 444.62 288.45 392.74 341.09 392.74 341.37 392.8 327.19 453.64"/></g><g class="cls-6"><polygon class="cls-2" points="515.4 469.52 506.71 477.72 476.11 445.32 478.62 442.95 515.4 442.95 515.4 469.52"/><polygon class="cls-2" points="506.71 477.72 437.34 543.23 398.25 543.23 391.56 536.15 391.56 525.16 476.11 445.32 506.71 477.72"/><polygon class="cls-2" points="391.56 536.15 398.25 543.23 391.56 543.23 391.56 536.15"/></g><g class="cls-7"><polygon class="cls-2" points="557.1 490.57 534.86 478.43 547.86 454.61 557.1 454.61 557.1 490.57"/><polygon class="cls-2" points="557.1 490.65 527.9 544.14 505.62 531.98 534.86 478.43 557.1 490.57 557.1 490.65"/><polygon class="cls-2" points="527.9 544.14 522.73 553.61 496.1 553.61 496.1 549.43 505.62 531.98 527.9 544.14"/></g><g class="cls-8"><polygon class="cls-2" points="596.65 528.45 552.97 529.3 552.97 495.28 596.65 495.28 596.65 528.45"/><polygon class="cls-2" points="596.65 594.76 552.97 595.62 552.97 529.3 596.65 528.45 596.65 594.76"/><polygon class="cls-2" points="552.97 595.62 596.65 594.76 596.65 622.72 552.97 622.72 552.97 595.62"/></g><g class="cls-9"><polygon class="cls-2" points="799.83 242.28 866.27 269.17 863.14 276.89 799.83 276.89 799.83 242.28"/><polygon class="cls-2" points="799.83 201.29 825.51 137.82 881.56 160.51 881.56 231.39 866.27 269.17 799.83 242.28 799.83 201.29"/><polygon class="cls-2" points="825.51 137.82 842.49 95.89 881.56 95.89 881.56 160.51 825.51 137.82"/></g><g class="cls-10"><polygon class="cls-2" points="750.19 366.49 752.03 363.95 816.87 410.94 750.19 410.94 750.19 366.49"/><polygon class="cls-2" points="752.03 363.95 850.01 228.74 916.69 277.06 916.69 294.98 832.66 410.94 816.87 410.94 752.03 363.95"/><polygon class="cls-2" points="850.01 228.74 883.27 182.85 916.69 182.85 916.69 277.06 850.01 228.74"/></g><g class="cls-11"><polygon class="cls-2" points="671.09 425.25 697.04 419.2 706.26 458.79 671.09 458.79 671.09 425.25"/><polygon class="cls-2" points="697.04 419.2 806.39 393.73 808.11 393.73 822.25 454.45 803.6 458.79 706.26 458.79 697.04 419.2"/><polygon class="cls-2" points="861.17 445.38 822.25 454.45 808.11 393.73 861.17 393.73 861.17 445.38"/></g><g class="cls-12"><polygon class="cls-2" points="671 443.95 673.29 446.11 642 479.25 633.72 471.43 633.72 443.95 671 443.95"/><polygon class="cls-2" points="673.29 446.11 758.06 526.16 758.06 537.14 751.36 544.23 710.81 544.23 642 479.25 673.29 446.11"/><polygon class="cls-2" points="751.36 544.23 758.06 537.14 758.06 544.23 751.36 544.23"/></g><g class="cls-13"><polygon class="cls-2" points="600.99 455.11 614.28 479.46 592.02 491.61 592.02 455.11 600.99 455.11"/><polygon class="cls-2" points="614.28 479.46 643.5 532.98 621.22 545.14 592.02 491.65 592.02 491.61 614.28 479.46"/><polygon class="cls-2" points="643.5 532.98 653.02 550.43 653.02 554.6 626.38 554.6 621.22 545.14 643.5 532.98"/></g><path class="cls-14" d="M740,355.29c-1.23,0-2.41-.11-3.53-.23,1-.11,2-.28,2.91-.48C739.61,354.82,739.81,355.06,740,355.29Z"/><path class="cls-14" d="M740,355.29c-1.23,0-2.41-.11-3.53-.23,1-.11,2-.28,2.91-.48C739.61,354.82,739.81,355.06,740,355.29Z"/><path class="cls-1" d="M764.56,350.62c55.49-14.34,92.9-55.39,116.82-93.33a292.86,292.86,0,0,0,15.76-26.89,330,330,0,0,1-31.65,48.89q2.85-14.06,4.36-28.66C837.35,293.72,794.79,342.81,764.56,350.62Z"/><path class="cls-1" d="M539.51,258.68c4.11-2.65,4.15-8.24,4.15-8.24-4.2,4.16-15.1,8.51-15.1,8.51S535.81,261.08,539.51,258.68Z"/><path class="cls-1" d="M897.14,230.4a292.86,292.86,0,0,1-15.76,26.89c-23.92,37.94-61.33,79-116.82,93.33.07,1.68.11,3.36.11,5.05a110.74,110.74,0,0,1-14.19,54.42c43.43-27.16,75.77-58.23,99.76-88.49,53.59-67.58,65.47-131.08,66.64-138C915.67,187.62,910.08,205.88,897.14,230.4Z"/><path class="cls-1" d="M576,512.6a110.35,110.35,0,0,1-1.37-13.46,110.62,110.62,0,0,1-21.16,61.69,73,73,0,0,1,14.31,32.48,74,74,0,0,1,1.05,12.44c0,.81,0,1.61,0,2.42,0,.55,0,1.1-.07,1.65,3.63,7.44,6,12.09,6,12.09s2.26-4.45,5.76-11.61c0-.38,0-.76,0-1.13,0-.81,0-1.61,0-2.42a74,74,0,0,1,1-12.44c.05-.32.11-.63.17-.94a1.43,1.43,0,0,1,0-.22,72.75,72.75,0,0,1,6.81-20.55,73.67,73.67,0,0,1,7.45-11.76A110.7,110.7,0,0,1,576,512.67.2.2,0,0,0,576,512.6Z"/><path class="cls-1" d="M580.38,352.25c0-.81,0-1.61,0-2.42,0-.55,0-1.1.07-1.65-3.63-7.44-6-12.09-6-12.09s-2.35,4.63-6,12c.07,1.36.11,2.73.11,4.12,0,1.11,0,2.22-.07,3.33l-.06,1.13A72.85,72.85,0,0,1,553,397.53a110.77,110.77,0,0,1,21.68,66c0-1.23,0-2.44.06-3.66a110.76,110.76,0,0,1,21.45-62.12,73,73,0,0,1-14.76-33.06A74,74,0,0,1,580.38,352.25Z"/><path class="cls-2" d="M452.86,478.09h0l.48-.77.11-.12h0l.29-.49c3.5-6.21,9-13.24,14.23-19.25-129.68-5.33-172.11-54.35-178.74-63.2l-1-.48C332,463.73,399.51,479,452.86,478.09Z"/><path class="cls-2" d="M917.14,182.8h0c0,.17-10.13,67.22-66.9,138.8-24,30.25-56.31,61.31-99.76,88.49a110.74,110.74,0,0,0,14.19-54.42c0-1.69,0-3.37-.11-5.05,30.23-7.81,72.79-56.9,105.29-100a307,307,0,0,0,1.59-31.28c0-44-9.38-85.46-26-121.74,5.18,17.92,34.74,129.23-15,178.94-19.37-19.38-30.68-27.33-30.68-27.33L783.21,261a111.35,111.35,0,0,1-152.58,89.12,62.51,62.51,0,0,1-12.06-5.82c-20.14-12.54-31.12-35-26.91-49.86a59.09,59.09,0,0,0,60.59-7.06,59.23,59.23,0,0,1-59.48-7.66c-.28-.2,8.72,1,13.37,1a59.11,59.11,0,0,0,36.16-12.34,59,59,0,0,1-23.22,4.73c-10.41,0-28.39-7.46-29.5-7.92a59.59,59.59,0,0,0,65.92-26.06,59,59,0,0,1-43.81,19.38c-4.74,0-13.79-3.36-22.23-7-9.74-4.22-18.67-8.85-19.24-9.2-1.45-.81-3-1.64-4.53-2.33q-1.89-.86-3.84-1.56a44.8,44.8,0,0,0-5.45-1.54,20.63,20.63,0,0,0-3.62-.66,35.39,35.39,0,0,0-4.44-.4c-.66-.06-1.28-.06-1.94-.06H546a46.08,46.08,0,0,0-27.08,9.07c-.85.63-1.73,1.35-2.53,2A46.82,46.82,0,0,0,500,282.5a52.11,52.11,0,0,0,.74,8.56,29.05,29.05,0,0,1,51.25,19,53.37,53.37,0,0,1-.63,6c-.6,3-1.32,9-2.94,14.47a61.64,61.64,0,0,1-8.61,17.31c-3.12,4.54-8.78,8.79-15.81,12v0a111.38,111.38,0,0,1-127.24-25.86c-2.47-2.67-4.82-5.46-7-8.37a110.69,110.69,0,0,1-22.6-64,110.14,110.14,0,0,1-18.32-13.06c-2.48,1.82-13.24,10-30.15,26.93C270,226.9,297.32,119.23,303.36,97.87A293,293,0,0,0,277.5,219.35a300.91,300.91,0,0,0,5.81,59.17c23.63,30.64,56.6,59.54,101.33,71.11-.07,1.67-.11,3.35-.11,5a110.68,110.68,0,0,0,14.2,54.43C252.4,317.58,232.22,182,232.22,182c.43.89,1.21,3,2.37,6a63.13,63.13,0,0,0-2.41-6.28c-10.12,83.77,34.75,139.17,77.55,172.16,16,30.59,37.2,57,62.22,77.48h0l1.63.46h0l-.54-.44c25.75,5.73,53.54,5.17,77.58-10.89,1,1.34,2,2.68,3.08,4a111.47,111.47,0,0,0,24.1,22.16c2.15-2.22,3.51-3.56,3.51-3.56l33.86,3.43s-60.28,77-122.1,96.33c-1.79,1.5-3.28,2.64-4.53,3.49,71.4,1.72,113-31.75,136.52-69.36a.46.46,0,0,1,0-.08s.07.06.05.08a100.15,100.15,0,0,1,25-9.72q1.39-6.07,2.22-12.5l2.12.58a218.57,218.57,0,0,1,2.48,24.87c-22.79,47.41-48.12,66.12-57.55,71.8h0a43.32,43.32,0,0,1-3.95,2.74c27.93-5.91,46.77-19.61,59.4-36.49-2.54,16.62-6.9,33-14.34,40.88C553.78,592.6,574.78,634,574.78,634s21-41.42,34.41-74.87c-7.47-7.86-11.83-24.28-14.37-40.91,12.27,16.47,30.49,29.89,57.26,36-6.85-3.68-34.83-21.19-59.77-73.06a218.57,218.57,0,0,1,2.48-24.87l2.12-.59,2.47,11.64a99.72,99.72,0,0,1,22.8,8.7c23.51,37.75,64.61,72,136.2,70.25-1.12-.77-2.45-1.77-4-3.06C693.16,523,634,447.52,634,447.52l33.86-3.42s1.36,1.33,3.5,3.55a111.23,111.23,0,0,0,24.11-22.15q1.59-2,3.08-4c23.89,16,51.48,16.62,77.11,11,25.51-20.59,47.18-47.29,63.4-78.29C881.81,321.42,926.8,266.26,917.14,182.8ZM539.51,258.68c-3.7,2.4-11,.27-11,.27s10.9-4.35,15.1-8.51C543.66,250.44,543.62,256,539.51,258.68ZM595.9,560.84a73.67,73.67,0,0,0-7.45,11.76,72.75,72.75,0,0,0-6.81,20.55,1.43,1.43,0,0,0,0,.22c-.06.31-.12.62-.17.94a74,74,0,0,0-1,12.44c0,.81,0,1.61,0,2.42,0,.37,0,.75,0,1.13-3.5,7.16-5.76,11.61-5.76,11.61s-2.36-4.65-6-12.09c0-.55,0-1.1.07-1.65,0-.81,0-1.61,0-2.42a74,74,0,0,0-1.05-12.44,73,73,0,0,0-14.31-32.48,110.62,110.62,0,0,0,21.16-61.69A110.35,110.35,0,0,0,576,512.6a.2.2,0,0,1,0,.07A110.7,110.7,0,0,0,595.9,560.84Zm-21.16-101c0,1.22-.06,2.43-.06,3.66a110.77,110.77,0,0,0-21.68-66,72.85,72.85,0,0,0,15.51-40.82l.06-1.13c0-1.11.07-2.22.07-3.33,0-1.39,0-2.76-.11-4.12,3.62-7.41,6-12,6-12s2.36,4.65,6,12.09c0,.55,0,1.1-.07,1.65,0,.81,0,1.61,0,2.42a74,74,0,0,0,1,12.44,73,73,0,0,0,14.76,33.06A110.76,110.76,0,0,0,574.74,459.87Z"/><path class="cls-2" d="M750.48,410.09c43.45-27.18,75.78-58.24,99.76-88.49C826.25,351.86,793.91,382.93,750.48,410.09Z"/><path class="cls-2" d="M681.25,458.44c5.2,6,10.73,13.05,14.23,19.26l.22.38c53.18,1.06,120.59-13.89,164.49-83.1C854.27,403,812.32,453.05,681.25,458.44Z"/><path class="cls-15" d="M135,574a1.65,1.65,0,0,0,0,1.18,2.62,2.62,0,0,1,.3.87c-2.1,1.22-4.14,2.38-6.14,3.5s-4.05,2.28-6.14,3.5-4.1,2.34-6,3.35-3.93,2-6,3.09c-1,.51-1.5,1-1.61,1.58a7.62,7.62,0,0,1-6.48,2.38,12.66,12.66,0,0,1-4.58,3.5,23,23,0,0,0-4.7,2.74c-1,.51-1.87,1-2.75,1.37s-1.78.86-2.74,1.37a7.19,7.19,0,0,0-2,2,3.19,3.19,0,0,0,0,2.76,8.84,8.84,0,0,0-.4,1.37,9,9,0,0,1-.4,1.38c-.52.61-.67,1-.44,1.12a5.14,5.14,0,0,1-2.54,5.41,3.19,3.19,0,0,0-.8,2.75,8.14,8.14,0,0,1,.6,4.63c-.25,1.61-.47,3.14-.66,4.56a18.22,18.22,0,0,1-1.11,1.76,3.09,3.09,0,0,1-2.15,1.14c-.21,0-.41.38-.62,1s-.2,1,0,1.18c1.18.85,1.58,1.71,1.2,2.56a8.22,8.22,0,0,1-1.92,2.54c.92.55,1.28,1.19,1.09,1.92a7.94,7.94,0,0,1-1,2.27,5.31,5.31,0,0,0-.88,2.24c.68,1.64.08,3.06-1.81,4.24a2.69,2.69,0,0,0-.46,1.91,8.69,8.69,0,0,1-.34,2.68,14.21,14.21,0,0,0-.52,2.58,14.14,14.14,0,0,1-.51,2.58,3.55,3.55,0,0,0-.36,1.63,11.24,11.24,0,0,0-.25,3.19,6.05,6.05,0,0,1-.87,3.29,4.74,4.74,0,0,0-.2,4.49,13.09,13.09,0,0,1-.38,6.23,22.87,22.87,0,0,1-2.94,5.87,2.94,2.94,0,0,0,.1,1.56,3.58,3.58,0,0,1,.32,1,14.68,14.68,0,0,0-.19,3.58c.07,1.12.1,2.21.07,3.27-.18.2-.26.35-.25.43s-.07.23-.24.43c-2,1.56-2.89,3-2.56,4.36a19.6,19.6,0,0,1,.52,4.11,23.68,23.68,0,0,0-.36,5.44,44,44,0,0,1,0,5.39c.11.68-.34,1.11-1.35,1.27a2.89,2.89,0,0,0-2.28,3.26l.13.77a8,8,0,0,0-1,6.46,27,27,0,0,1,1.2,6.36,15.06,15.06,0,0,1,.21,2.2,18.54,18.54,0,0,1-.15,2,7.46,7.46,0,0,1-1.39,1c-.36.41-.41.68-.18.82l1.36,1.62a13.77,13.77,0,0,0,1.31,1.35,1.59,1.59,0,0,1-.28,1.1,1.54,1.54,0,0,0-.29,1.1,2.75,2.75,0,0,0-1.11-.08,2.89,2.89,0,0,1-1.1-.08c-.21,0-.34-.13-.39-.47,0-.17-.15-.23-.35-.2A4.85,4.85,0,0,1,55,740.9a19.7,19.7,0,0,0-3.19-2.37,15.53,15.53,0,0,0-2.12-2.4,7.55,7.55,0,0,1-1.93-3.23,44.07,44.07,0,0,1-2.42-6.16q-1-3.25-2.19-6.73a78.32,78.32,0,0,1-2.77-16.86q-.06-6-.21-12.7t-.52-12.64q.39-7.15.8-14.17t1.44-14q.6-5.86,1.63-11T45.8,628c.14-1.6.34-3.24.58-5s.41-3.52.51-5.46c-.19-1.19-.62-1.91-1.29-2.15-1.76-.59-3.53-1.21-5.3-1.89s-3.65-1.27-5.61-1.83l-.61.1c-.21,0-.32,0-.35-.21-1.29-1.53-2.47-3-3.51-4.27S28,604.58,26.71,603a7.1,7.1,0,0,0-1.82-1.54,7.65,7.65,0,0,0-2.64-.88,14.75,14.75,0,0,1-5-6,44,44,0,0,1-2.39-7,3.53,3.53,0,0,0-.86-1.43,9.46,9.46,0,0,1-.64-2,10,10,0,0,0-.64-2l-.17-1a2.9,2.9,0,0,1-.66-2.13q.15-.95,2.55-1.59A6.07,6.07,0,0,0,12,576.32a20.84,20.84,0,0,0,.58-4l.61-.1a16.24,16.24,0,0,0,3.06,3.43q1.82,1.54,1.06,4.55a58,58,0,0,1,5.42,4.49,9.93,9.93,0,0,0,5.74,2.6c1.88,0,3.7,0,5.47,0a39.86,39.86,0,0,0,5.69-.54,33.68,33.68,0,0,0,8.56-2.06,37.56,37.56,0,0,0,8.18-4.36A2.72,2.72,0,0,0,57.88,578c.83-2.58,1.54-5.14,2.17-7.7s1.25-5,1.91-7.4q1.76-4.49,3.24-8.8T68.39,545a33.25,33.25,0,0,1,1.5-3.26A11.19,11.19,0,0,0,71,538a40.73,40.73,0,0,0,2.2-6.53A41.09,41.09,0,0,1,75.41,525a68.27,68.27,0,0,1,2.18-6.65c.81-2.06,1.67-4.12,2.58-6.2a15,15,0,0,0,.51-2.58,14.17,14.17,0,0,1,1-3.44c-1.49,1.12-2.77,2.16-3.86,3.12s-2.19,1.9-3.29,2.78a85.67,85.67,0,0,0-7.74,6.12,72.16,72.16,0,0,0-7,7c-2.13,2.28-4.26,4.5-6.4,6.69s-4.17,4.41-6.09,6.64c-2,1.74-4,3.55-6,5.45s-4,3.71-6,5.44A12,12,0,0,1,32.07,552q-2,1.13-4.26,2.54a10.41,10.41,0,0,0-1,.69,9.48,9.48,0,0,1-1,.68,17.23,17.23,0,0,0-1.73.94,2,2,0,0,1-1.5.38,53.14,53.14,0,0,1-7.11-1.46A17,17,0,0,1,9,552.41a10.45,10.45,0,0,1-1.79-2.33,27.57,27.57,0,0,0-1.49-2.38c-.14-.85-.41-1.25-.82-1.18-1.88,0-2.86-.67-3-1.88s-.21-2.23-.35-3.09a4.06,4.06,0,0,1,.65-2.73,6.1,6.1,0,0,1,3.2-2.36.7.7,0,0,0,.67-.64,2.37,2.37,0,0,1,.6-1.15c.3-.74.54-1.44.75-2.09a9.63,9.63,0,0,1,.79-1.83A13.31,13.31,0,0,1,12,526.86c1.49-1,3-2.11,4.47-3.23q4.14-3.3,8.05-7.1t8-7.35A39.31,39.31,0,0,0,37,505.7q1.89-1.76,3.77-3.64c1.08-1.05,2.31-2.12,3.69-3.23a45.78,45.78,0,0,0,3.68-3.23q4.66-3.9,10.07-8.08t10.42-7.88q6.36-5,12.81-9.45T94.26,461a32.21,32.21,0,0,1,3.07-2.21,33.78,33.78,0,0,0,3.07-2.22,12.82,12.82,0,0,1,2.55-2.51,39.53,39.53,0,0,1,4-1.45,36.13,36.13,0,0,0,4.73-2.61c1.41-.93,2.76-1.85,4.07-2.77,1.54-.77,3.08-1.51,4.64-2.2s3.09-1.43,4.63-2.2a44,44,0,0,0,4.51-2.06,41.93,41.93,0,0,1,4.5-2q3-1,5.89-2.15c2-.75,4-1.49,6.2-2.2a34.58,34.58,0,0,1,4.39-1.77q6-1.75,12-3.27a70,70,0,0,1,11.85-1.95l7.15-1.17a52.76,52.76,0,0,1,7.23-.67c2.89-.12,5.75-.19,8.55-.22a16.55,16.55,0,0,1,8,2,13.73,13.73,0,0,0,3.38.63c1.15.07,2.26.2,3.34.37l6.58,2.07q3.28,1,6.29,2.11,6.09,2.94,11.63,6.23l0,.25a.67.67,0,0,0,.38.46,32.18,32.18,0,0,0,6,8.33,22.88,22.88,0,0,1,5.49,8.67,10.49,10.49,0,0,1,.07,2.35,5.6,5.6,0,0,0,.42,2.56,8.68,8.68,0,0,0,.31,2.84,5.32,5.32,0,0,1,0,2.88,10.37,10.37,0,0,1-1.19,7c-1.21,2.13-2.48,4.26-3.79,6.4-1.26,2.48-2.59,4.88-4,7.21s-2.74,4.56-4,6.7l.08.51a6.43,6.43,0,0,0-3.78,4.56,8.11,8.11,0,0,1-3.39,5,31.21,31.21,0,0,0-3.25,3q-1.59,1.71-2.91,3.23a50.81,50.81,0,0,0-6.86,5.72q-3,3-6.22,5.88c-2.21,1.77-4.27,3.46-6.19,5.09s-4,3.32-6.19,5.08q-2.81,2-5.49,3.66c-1.8,1.08-3.65,2.21-5.53,3.4a7.89,7.89,0,0,0-1.92,1.63,13.22,13.22,0,0,1-2.18,1.93,59.1,59.1,0,0,1-6.26,4.7q-3.24,2.12-6.86,4.8-3.93,2.74-7.21,5.51t-7.22,5.52c-.93.68-2,1.37-3.09,2.08a37.77,37.77,0,0,0-3.36,2.39,5.61,5.61,0,0,1-2,1,5.66,5.66,0,0,0-2,1c-1,.16-1.5.33-1.47.5-.36,1.63-1.16,2.47-2.4,2.5a11.41,11.41,0,0,0-3.35.54ZM50.52,713.81a4.6,4.6,0,0,1-.63-.95,4.69,4.69,0,0,1-.36-1.25c-.19-2.42-.46-4.73-.83-7a37.8,37.8,0,0,1-.48-6.75c.1-1.93.15-3.86.14-5.79a47.09,47.09,0,0,1,.41-6.1,1558.42,1558.42,0,0,1-.05-7.87c.3-.74.55-1.44.75-2.09a11.2,11.2,0,0,0,.45-2q.67-5.35,1.36-10.72t1.36-10.72a136.36,136.36,0,0,1,2-16.6,73.37,73.37,0,0,0,1.91-8.31A61,61,0,0,1,58.69,619a2.49,2.49,0,0,0-2.63-2.71l-.6,2.06a7.62,7.62,0,0,1-.68,1.56,11.27,11.27,0,0,0-.94,3.83,10,10,0,0,1-.5,1.65,10.14,10.14,0,0,0-.51,1.66,39,39,0,0,1-1.35,4.16,4.66,4.66,0,0,0,.18,3.91A7,7,0,0,0,50.25,638l-.9,5.92q-.45,3-1.21,6a41.67,41.67,0,0,1-.76,4.85,42.06,42.06,0,0,0-.77,4.85c-.15,1.6-.29,3.29-.42,5.06a46.25,46.25,0,0,0-.07,5.26,37.36,37.36,0,0,1-.75,6.81,12,12,0,0,0,.46,6.62.47.47,0,0,1-.09.41c-.09.1-.1.32-.05.66a3.88,3.88,0,0,0-.24,1.35,3.73,3.73,0,0,1-.51,1.66,8.69,8.69,0,0,1,.14,4.7,5.5,5.5,0,0,0,.72,4.35c0,.17-.31.66-1,1.47a5.21,5.21,0,0,1,0,1.71,4.8,4.8,0,0,0-.07,1.46c.25,1.53.45,3.08.6,4.62s.34,3,.56,4.37a13.41,13.41,0,0,0,.83,3.15c.32.73.06,1.61-.82,2.63a.45.45,0,0,0,.22.35.47.47,0,0,1,.21.36,6.76,6.76,0,0,1,.8,4.86c.42,2.55,1.46,3.86,3.15,3.94.69-.81.89-1.55.57-2.19s-.68-1.33-1.11-2.05a6,6,0,0,1-.82-2.1c-.11-.68.28-1.44,1.19-2.29l-.13-.77a13.89,13.89,0,0,1-2.21-.16,6.67,6.67,0,0,0,1.83-1.22A4.29,4.29,0,0,1,50.52,713.81Zm7.63-37.21a15.51,15.51,0,0,0,1.36-3.11,3.28,3.28,0,0,0-.32-1,3.76,3.76,0,0,1-.32-1,10.06,10.06,0,0,1-1,.56,2,2,0,0,0-.7.51,11.83,11.83,0,0,0-.4,3.21,1.91,1.91,0,0,0,.47,1Zm3.74-17.15L61.2,659c-1.16.55-1.73.9-1.7,1.07a2.34,2.34,0,0,0-.62,1.94,2,2,0,0,0,1.26.05,6.2,6.2,0,0,0,.88-1.32A6.61,6.61,0,0,1,61.89,659.45Zm-1.54-3.68c2.52-1.11,3.91-2.82,4.15-5.14a2.56,2.56,0,0,1,0-.92,2.58,2.58,0,0,0,0-.92,3.43,3.43,0,0,0-.32-1,1.22,1.22,0,0,1,0-1,2.33,2.33,0,0,1-1.44.76c-.61.1-.88.32-.83.66a29.17,29.17,0,0,1-.76,3.93C60.83,653.29,60.56,654.52,60.35,655.77Zm5.28-21.07a4,4,0,0,0,1.4-1,2.25,2.25,0,0,0,.55-1.4,2.16,2.16,0,0,1,.55-1.4l-.61.1a.72.72,0,0,1-.48-.06.77.77,0,0,0-.47,0,4.56,4.56,0,0,0-1.19,2.29Zm2.55-5.41a5.2,5.2,0,0,1,1.23-2,8.81,8.81,0,0,0,.4-2.3,3.58,3.58,0,0,1,.49-1.79,28.91,28.91,0,0,0,.8-4.59,1.33,1.33,0,0,1-.77,0,1.47,1.47,0,0,0-.79,0q-.45,3-1,5.29c-.37,1.54-.72,3.22-1.05,5Zm3.65-69.09a18.07,18.07,0,0,0-1.11,3.73,7.31,7.31,0,0,1-1.23,3c1.85-1.35,2.92-2.48,3.19-3.41A4.06,4.06,0,0,0,71.83,560.2ZM108,567.64c2.75-1,5.61-2,8.55-3.11a35.8,35.8,0,0,0,8.6-4.69,8.12,8.12,0,0,0-1.41-1l-1.36-.69-.54.54c.23.12.41.55.53,1.29-1.47-.06-2.93,0-4.37,0a5,5,0,0,0-3.72,2.09,16.42,16.42,0,0,1-3,2.72,5.76,5.76,0,0,1-3.9,1,6.49,6.49,0,0,0-1.43.76q-4.53,2.85-8.72,5.9c-.55.44-1.06.83-1.52,1.16a6.94,6.94,0,0,0-1.22,1.12.44.44,0,0,0,.21.36.48.48,0,0,1,.22.36,3,3,0,0,1,.87-.41,2.56,2.56,0,0,0,.87-.4q2.61-1.21,4.74-2.48a30.58,30.58,0,0,1,4.49-2.19,7.41,7.41,0,0,0,1.89-.83C108.1,569,108.16,568.5,108,567.64Zm-4.12-15.59a4.14,4.14,0,0,1,1.09,0,1.6,1.6,0,0,0,1-.3c2.67-1.49,5.19-2.91,7.58-4.26s4.8-2.76,7.27-4.22q5.36-3.5,10.54-7.11t10.24-7.06q5.06-3.45,9.56-6.42a105.59,105.59,0,0,0,8.91-6.58q5.33-3.76,10.57-7.91T180.93,500q4.71-3.64,9.13-7.14c2.94-2.32,6-4.78,9.09-7.39a107.25,107.25,0,0,0,12.65-12.32,60.78,60.78,0,0,0,8.71-11.66,21.73,21.73,0,0,0,2.66-5.69q.9-3,1.92-6.35c.91-2.07.2-3.18-2.11-3.32q-2.52-.12-5.07-.48a41,41,0,0,0-5.69-.38c-2.92-.05-5.55-.18-7.87-.42a20.75,20.75,0,0,0-7.67.87q-5.18.86-10.38,1.44a36.51,36.51,0,0,0-10.17,2.72,39.12,39.12,0,0,1-5.22,1.52,32.45,32.45,0,0,0-4.91,1.46q-4.4,1.77-9,3.31a86.71,86.71,0,0,0-8.94,3.57,31.39,31.39,0,0,0-3.89,2q-1.86,1.09-4.12,2.51a2.15,2.15,0,0,0-.66,1.68,22.73,22.73,0,0,0-.32,3.73,9.54,9.54,0,0,1-.68,3.52,14.72,14.72,0,0,0-1.81,6.08,10.06,10.06,0,0,1-2.2,5.61,28.4,28.4,0,0,0-2.32,3c-.64,1.15-1.33,2.32-2.08,3.49a30.86,30.86,0,0,0-3.65,9.13,22.19,22.19,0,0,1-1.62,5.38c-.09.72-.86,1.72-2.31,3-.5.78-1,1.52-1.51,2.21a17,17,0,0,0-1.47,2.47,5.53,5.53,0,0,1-.92,2,5.56,5.56,0,0,0-.45,2,3.77,3.77,0,0,1-.49,1.79c-.85,1.19-1.55,2.27-2.12,3.24s-1.18,2-1.82,3.18c.06.34.54.79,1.47,1.33a9.94,9.94,0,0,1-1.35,1.28q-.83.66-.75,1.17a3.78,3.78,0,0,1-1.16,2.42,9.8,9.8,0,0,0-1.56,2c-.52.61-.75,1.09-.7,1.43a23,23,0,0,1-1,4.36,21,21,0,0,1-2,4.26,11.27,11.27,0,0,0-1.55,3.93A21.09,21.09,0,0,1,103.9,552.05Zm19.72,4.11a1,1,0,0,1-.44,1.12,16.23,16.23,0,0,0,1.74.11,10.58,10.58,0,0,0,1.7-.15,25.79,25.79,0,0,1,3.82-1.41,18.47,18.47,0,0,0,3.53-1.37,9,9,0,0,0,1.11-.84,12.33,12.33,0,0,0,1.07-1.09c.37-.24.43-.51.17-.82s-.21-.66.14-1.07a6.24,6.24,0,0,0-2.09.6,7.39,7.39,0,0,1-2.18,1.94,37.59,37.59,0,0,1-4.13,1.46C126.67,555.05,125.19,555.55,123.62,556.16Zm14.58-6.33a10.82,10.82,0,0,0,2.61-1.22,27.16,27.16,0,0,0,2.7-1.62c.84-.58,1.73-1.2,2.66-1.88a2.49,2.49,0,0,0,1.27-1.79,6.19,6.19,0,0,0-2.09.61c-1.31.92-2.48,1.72-3.51,2.41s-2,1.38-2.94,2.06a.71.71,0,0,0-.22.56Q138.73,549.21,138.2,549.83Zm70.1-54.29c0,.35.18.5.38.46a12.31,12.31,0,0,0,2-.45c.49-.17,1.13-.4,1.91-.71a3.39,3.39,0,0,0-2.19-.95A4.51,4.51,0,0,0,208.3,495.54Zm13.08-19.2c-1.08,1.05-2,2-2.66,2.8l-2.36,2.74C219.79,482.55,221.47,480.69,221.38,476.34Z"/><path class="cls-15" d="M278.08,595.61q-3.46,5.29-7,10.08-2.74,4.13-5.44,8.37t-5.43,8.37q-2.43,4.08-4.6,7.84a90.67,90.67,0,0,1-4.93,7.63,19.65,19.65,0,0,0-2.52,5.4q-.78,2.76-1.53,5.76a18.73,18.73,0,0,1-3.78,6.92,69.86,69.86,0,0,0-5.05,6.87,110.7,110.7,0,0,0-5.35,9.93,15.17,15.17,0,0,0-.77,10.76l.17,1a36.49,36.49,0,0,0-4.1,3.56,40.58,40.58,0,0,1-4.1,3.56l-.3.05c-.39.24-.82.48-1.29.73s-.91.5-1.29.74a1.37,1.37,0,0,0-.73.25,1.4,1.4,0,0,1-.74.25l-.13-.76a7.39,7.39,0,0,1-6.8-3.35,8.33,8.33,0,0,0-4.54-2.93,16,16,0,0,1-7.49-5.72,56.45,56.45,0,0,1-4.41-7.81,50.55,50.55,0,0,1-3.59-25.65q.43-6.88.95-14.19a123.13,123.13,0,0,1,1.86-14.35,131.8,131.8,0,0,1,3.39-15.51q2.16-7.71,4.3-15.67c.65-2.37,1.29-4.76,1.94-7.14a68.78,68.78,0,0,1,2.3-6.94q1.68-5,3.68-9.92T215.1,554q4.14-9.07,8.26-18.41t8.58-18.47q4-8.25,8.22-16.7t8.54-16.75l8.91-18.26q4.45-9.12,8.92-18.26,2.64-4.89,5-9.74t4.36-9.64a5.92,5.92,0,0,1,3.4-3.05q2.22-.75,4.57-1.67a3.68,3.68,0,0,0-.53,1.53,3.73,3.73,0,0,1-.53,1.53l4.41-.72a35.74,35.74,0,0,1,4.15-.42,4.61,4.61,0,0,1,4.59,1.35,10.65,10.65,0,0,0,3.59,2.82,12.46,12.46,0,0,1,3.15,2.1,6,6,0,0,0,3.07,1.6c3.16.18,5.32,1.32,6.5,3.4,1.14,1.91,2.3,3.86,3.46,5.86a7.69,7.69,0,0,1,.2,6.92,10,10,0,0,1-1.36,1.27,10.58,10.58,0,0,0-1.35,1.27,11,11,0,0,0-.9,1.2,7.77,7.77,0,0,0-.59,1.14c-.41,1.3-.78,2.54-1.1,3.73a16.3,16.3,0,0,1-1.46,3.52l-4.91,8.15q-2.45,4.08-5.2,8.2c-1,1.57-2,3.13-3,4.69s-2,3.13-3,4.69a.78.78,0,0,1-.85.53.8.8,0,0,0-.85.54,13,13,0,0,0-2.7,2.54A3.11,3.11,0,0,0,288,492a1.76,1.76,0,0,1-.72,1.3c-1.36.57-2.08,1.3-2.14,2.18a7.33,7.33,0,0,1-.79,2.76,7.83,7.83,0,0,1-1.36,2.19,18.51,18.51,0,0,0-1.66,2.24,3.12,3.12,0,0,1-.49.87.94.94,0,0,0-.17.81q-.08,5.26-4.92,10a17.93,17.93,0,0,0-4.11,5.4c-.41,1.29-.78,2.57-1.09,3.85a4.81,4.81,0,0,1-2.77,3.08c.2,0,0,.25-.48.86a10,10,0,0,1-2.2,5.61,33.66,33.66,0,0,0-3.47,5.56,8.75,8.75,0,0,0-.63.89c-.25.39-.27.57-.07.53q1.86,1.8.49,2.94a17.5,17.5,0,0,0-1.9,1.76,11.28,11.28,0,0,0-4.86,6.57,28.87,28.87,0,0,1-2.86,7.29,84.88,84.88,0,0,0-4.58,9.15q-1.92,4.51-3.94,9.31a2.42,2.42,0,0,0-.09,1.33,1.65,1.65,0,0,1-.4,1.37,10.34,10.34,0,0,1-1.14,1.63,10.41,10.41,0,0,0-1.14,1.63,1.49,1.49,0,0,1-.63,0,1.69,1.69,0,0,0-.63,0,7.5,7.5,0,0,1,1,2.45,15.78,15.78,0,0,0-3.55,3.08c-.69.9-.07,2.16,1.86,3.76a8.84,8.84,0,0,0-1.35.36,8.62,8.62,0,0,1-1.34.35c0,.17,0,.26-.11.28s-.14.11-.11.28a20.09,20.09,0,0,0,.57,2.53,7.47,7.47,0,0,1,.27,2.58,5.17,5.17,0,0,1-.74,2.35,9.81,9.81,0,0,0-1,2.4c-.3.75-.61,1.46-.93,2.12s-1.22,1-2.7,1.1a1.36,1.36,0,0,0-1,.82,6.53,6.53,0,0,1-.88,1.33,2,2,0,0,1,.54.43,2.06,2.06,0,0,0,.54.44c1.17-.89,1.95-1.46,2.35-1.7l1,.1q-1.2,2.3-2.23,4.56c-.7,1.52-1.5,3.31-2.42,5.38.26.32.26,1.58,0,3.81s-.65,4.61-1.18,7.15S226.7,634,226,636.18s-1.42,3.47-2.2,3.77q-.36,1.63-.57,3.24a31.87,31.87,0,0,0-.26,3.19c-.13,1.78-.21,3.5-.25,5.16s-.12,3.4-.25,5.16a14,14,0,0,1-.39,2.43,13.19,13.19,0,0,0-.38,2.42,6.27,6.27,0,0,0-.17,2.79,6.39,6.39,0,0,1-.17,2.78l0,.26c.64-1.16,1.22-2.35,1.75-3.57a20.1,20.1,0,0,1,2.07-3.62q2.19-3.78,4.72-7.47t5.37-7.31a4,4,0,0,1,1.24-1c.48-.25.7-.55.64-.89a56.31,56.31,0,0,1,4.22-11.46,45.72,45.72,0,0,1,7.21-10.37q2.63-3,5.1-6.08a20.17,20.17,0,0,0,3.53-6.09,22.51,22.51,0,0,1,2.93-6.91q2-3.09,4.32-6.09a24,24,0,0,1,4.29-4.38,5.44,5.44,0,0,0,1.9-5.56,6.13,6.13,0,0,0,3.46-1.49,8.29,8.29,0,0,0,1.62-2.36,17.77,17.77,0,0,0,.93-2.78,8.8,8.8,0,0,1,1.11-2.68c2.32-3.35,4.75-6.76,7.26-10.24s5-6.91,7.57-10.3q2.85-3.35,6-6.63a31.68,31.68,0,0,0,5.06-6.74,16.47,16.47,0,0,1,4.72-5.1,45.47,45.47,0,0,1,6.21-3.51Q299.93,552.92,287,571.59t-24.79,37.92l2.08,1.23q4.5-6.76,9.07-13.17t9.13-12.91l1.3.31c-1,1.73-1.91,3.51-2.85,5.32S279,593.88,278.08,595.61Zm-76,42.93a12.87,12.87,0,0,0,.47-2.84,11.79,11.79,0,0,1,.47-2.83,4.69,4.69,0,0,1,1.45-1.55c.65-.46,1.35-.92,2.1-1.4-1.13-.51-1.91-.86-2.36-1s-1-.4-1.66-.65a10.35,10.35,0,0,1,.88-2.24l1-1.73a11.63,11.63,0,0,0,.26-3.19,11.21,11.21,0,0,1,.25-3.19q1-3.57,1.83-7c.56-2.27,1.17-4.61,1.82-7q1.16-4.38,2.34-8.65t2.63-8.7c.57-1.66,1.13-3.29,1.71-4.87a38.29,38.29,0,0,1,2.05-4.67q.89-2.24,1.81-4.23c.61-1.32,1.22-2.73,1.8-4.23.91-2.07,1.78-4.1,2.6-6.07s1.7-4,2.61-6.07a9.55,9.55,0,0,1,1.14-1.63,1.89,1.89,0,0,0,.53-1.53,7.13,7.13,0,0,1,.85-5q1.3-2.18,2.46-4.47a10,10,0,0,1,2-3.22,10.42,10.42,0,0,0,2.09-3.23,18.62,18.62,0,0,0,1.69-4.87,18.64,18.64,0,0,1,1.7-4.87q1.84-4,3.74-7.7t3.77-7.44a11.09,11.09,0,0,0,.6-2.07,9.75,9.75,0,0,1,.6-2.07c-2.29,0-3.73.48-4.31,1.37a5.87,5.87,0,0,0-.84,3.42,8.62,8.62,0,0,1-1.33,5.2,38.33,38.33,0,0,0-2.64,4.89,1.66,1.66,0,0,1-2,1.12c-1.68-.07-2.6.34-2.76,1.24s-.38,1.81-.64,2.73a14.94,14.94,0,0,0,3.42-1.61q0,3.68-2,4.8a12.93,12.93,0,0,1-5.8,1.21,5.4,5.4,0,0,0-.65,1.81,5.77,5.77,0,0,1-.66,1.82l1,.36c.76-.48,1.54-.91,2.31-1.3S232,534.51,233,534l.35.21a22.42,22.42,0,0,1-1.27,1.91,17.24,17.24,0,0,0-1.26,1.91,15.73,15.73,0,0,0-1.67-.51,4.66,4.66,0,0,1-1.35-.57l-1.15.72a25.93,25.93,0,0,1,3.05,3.17,6.49,6.49,0,0,1-1.63.66,14.42,14.42,0,0,0-1.93.71,5.44,5.44,0,0,1-1.9,1c-.71.21-1.13.49-1.28.87a20,20,0,0,1-3.17,7.6q-1.2,2.29-2.27,4.44c-.71,1.43-1.37,2.9-2,4.39a34.54,34.54,0,0,0-1,3.7c-.22,1.18-.46,2.31-.69,3.4l.77.92a11.83,11.83,0,0,1,2.35-.91,4.54,4.54,0,0,1,1.08.87,4.13,4.13,0,0,1-1.55,1,1.76,1.76,0,0,0-1.19,1.24A18.68,18.68,0,0,0,214.2,575a42.57,42.57,0,0,1-.83,4.2,7.57,7.57,0,0,1-1.32,2.19,19.4,19.4,0,0,0-1.61,2.23l-1-.63,2-3a24.07,24.07,0,0,0,1.71-2.9,1.82,1.82,0,0,0-.06-1.31,6,6,0,0,1-.36-1.25,2.82,2.82,0,0,1-1.11.84,1.3,1.3,0,0,0-.81.79,17.58,17.58,0,0,0-1.47,3.39c-.34,1.1-.73,2.22-1.17,3.34-.14.38-.37.89-.67,1.56s-.33,1.14-.08,1.45c.06.34.45.54,1.19.59a7.79,7.79,0,0,1,2.1.45c-.47,1-.89,1.89-1.25,2.83s-.77,2-1.2,3.08a4.16,4.16,0,0,0-1.8-.5,18.79,18.79,0,0,1-3-.55l1.55,9.46-1.73.81c-.58.27-1.26.56-2,.86a.48.48,0,0,0,.22.36.5.5,0,0,1,.21.35l3.78.17c-.27.92-.5,1.71-.71,2.35s-.46,1.34-.75,2.09c-2.19.54-3.53,1.15-4,1.84s-.8,2.63-.9,5.79c.86-1,1.54-1.87,2-2.56s1.18-1.55,2-2.57q-.23,2.4-.39,4.26a27.49,27.49,0,0,1-.51,3.5,20.13,20.13,0,0,0-2,2,20.22,20.22,0,0,1-2,2l2.2,2a8.57,8.57,0,0,1-2,1,15.6,15.6,0,0,0-2.31,1,19.74,19.74,0,0,1,2.2,1.08c.57.35,1.08.66,1.55.93a2.11,2.11,0,0,0-.57,1.27,5.89,5.89,0,0,0,.08,1.43,1.89,1.89,0,0,1-.25,1.36,3.05,3.05,0,0,1-1.54,1,3.25,3.25,0,0,0-1.36,1.14c-.34.49.06,1,1.18,1.51.89.38,1.33.83,1.31,1.36s-.62,1-1.8,1.35a2,2,0,0,0-1.61,1.57,9.19,9.19,0,0,0-.75,3q-1.49,2.35,1.29,2.15c2-.16,2.49.64,1.33,2.41a1.63,1.63,0,0,0-.4,1.38,32,32,0,0,0-.28,4c0,1.22,0,2.54,0,3.93a15.48,15.48,0,0,0,.8,3c.37,1,.76,2.06,1.16,3.22l.91-.15a13.6,13.6,0,0,0-.41-3.48,6.92,6.92,0,0,1-.08-3.26c.54-3.07,1.07-6.12,1.6-9.19S201.54,641.6,202.07,638.54Zm5.65,5.63a1,1,0,0,0-.17-1c-.26-.31-.3-.56-.13-.77a7.24,7.24,0,0,0,2-5.18,16.64,16.64,0,0,1,.66-5.48,8.42,8.42,0,0,0,.35-2.68,21.19,21.19,0,0,1,0-2.64q-1.26,0-2.34,0c-.73,0-1.61,0-2.65,0a16.22,16.22,0,0,0,1.94,2.3,2,2,0,0,1,.68,2.25,13.15,13.15,0,0,0-1.18,5.18,8.42,8.42,0,0,1-1.83,5,2.06,2.06,0,0,0-.33,1.76l.35,2.17c0,.17.58.34,1.65.52a4.76,4.76,0,0,1,.68-.64A.86.86,0,0,0,207.72,644.17Zm6.9-32.1a19,19,0,0,0-1.94-1.39,9.31,9.31,0,0,1-1.6-1.18,16.47,16.47,0,0,1,2.7-1.62c.87-.41.59-1.19-.85-2.35a1.12,1.12,0,0,1-.94.94,9.66,9.66,0,0,0-1.5.37,3.89,3.89,0,0,0-1.29.74q-.54.48,0,1.71c.34.82.67,1.56,1,2.2s.64,1.38,1,2.2l.92-.15-2.19,1.93c-.72.65-1.54,1.4-2.44,2.24a5.21,5.21,0,0,0,1.93.34,3,3,0,0,1,1.62.39c-.09.72-.18,1.39-.29,2a7,7,0,0,1-.38,1.5,15.2,15.2,0,0,1-2.39.66,10.94,10.94,0,0,0-2.08.6,29.85,29.85,0,0,0,2.46,1.7,19.54,19.54,0,0,1,2.12,1.48,7.27,7.27,0,0,1,1.22-1.11,2.63,2.63,0,0,0,.92-1.07,57.11,57.11,0,0,0,1.18-6.1Q214.18,615,214.62,612.07Zm5.76,57.84c0,.17,0,.26-.12.28s-.13.11-.1.28c0-.17,0-.26.1-.28S220.4,670.08,220.38,669.91Zm6-85.22a36,36,0,0,0,3.12-2.09,2.14,2.14,0,0,0-.75-1.45c-1.41,1.68-2.87,2.41-4.38,2.21a12.46,12.46,0,0,1-4.72-1.77,10.19,10.19,0,0,1,.65,2,4.23,4.23,0,0,0,.56,1.53,27.49,27.49,0,0,0-3.21-.56c-.3.77-.59,1.5-.89,2.18s-.62,1.32-.94,1.91a.5.5,0,0,0,.22.37.51.51,0,0,1,.22.37,5.24,5.24,0,0,1,1.71-1,5.29,5.29,0,0,0,1.72-1,4.09,4.09,0,0,1-1.66,3.25,8.66,8.66,0,0,1-2.17,1,5.16,5.16,0,0,0-1.87,1c.92.5,1.71.9,2.39,1.2s1.23.56,1.69.81a19.36,19.36,0,0,1-3.53,1.31,12.17,12.17,0,0,0,1.15,3.22L213.12,601c.64.25,1.18.46,1.61.65a11.29,11.29,0,0,1,1.31.71,16.26,16.26,0,0,1-1.54.65,15.05,15.05,0,0,0-1.56.65,21.65,21.65,0,0,0,2.06,1.5c.67.41,1.34.82,2,1.24a34.32,34.32,0,0,0,2.11-6.38c.48-2.18,2.07-4,4.76-5.51l-1.05-.61a3.12,3.12,0,0,1-.74-.67,2,2,0,0,1-.6-1.74,2.77,2.77,0,0,1,.78-1c.37-.33.66-.42.89-.28,1.31.31,2.18.17,2.61-.43a16.74,16.74,0,0,0,1.13-1.76c-.67-.24-1.29-.48-1.86-.74a14.66,14.66,0,0,1-1.54-.8,3,3,0,0,1,1.42-.89A3,3,0,0,0,226.34,584.69Zm-5.93-5.85a2.35,2.35,0,0,1,.49,1.1,1.47,1.47,0,0,0,.8,1,4.61,4.61,0,0,0,1.34.57l1.3.31c.73-.65,1.41-1.24,2-1.78s1.33-1.14,2.05-1.78c.59-1.49.25-2.58-1-3.25A11.64,11.64,0,0,0,224,573.8c-1.05,0-1.64.18-1.79.55a4.09,4.09,0,0,0-.22,1.48,8.67,8.67,0,0,1-.19,1.74A1.92,1.92,0,0,1,220.41,578.84Zm2-22.11a17.71,17.71,0,0,0-1.33,5.21,5.66,5.66,0,0,0-1.61-.26,25.66,25.66,0,0,0,.65-2.73,26.42,26.42,0,0,1,.65-2.74A6.57,6.57,0,0,0,222.4,556.73Zm7.92,12.08q.13-2.89.44-5.84c.2-2,.35-3.9.45-5.85a4.06,4.06,0,0,1-1.56,0,4,4,0,0,0-.25,1.35,4.29,4.29,0,0,1-.24,1.35,4.91,4.91,0,0,0-2.57.55,1.66,1.66,0,0,0-.7,1.43,11,11,0,0,0,.16,1.94,1.93,1.93,0,0,1-.36,1.64c-.17.2.22.71,1.19,1.51a12.66,12.66,0,0,1,2.26,2.38,1.35,1.35,0,0,0,.59-.23A1.86,1.86,0,0,1,230.32,568.81Zm2.67,3a40.85,40.85,0,0,0,2-4c.58-1.32,1.25-2.74,2-4.26Q231.07,565.81,233,571.79Zm4.59-19.65a5.7,5.7,0,0,0,0-3,10.85,10.85,0,0,1-.37-3.22l-1.55-.27L233.32,549c-.72,1.09-1.49,2.22-2.3,3.4a1.62,1.62,0,0,0-.38,1.38,2.59,2.59,0,0,1-.33,1.62l3.11-.51a12.35,12.35,0,0,0-.18,2.92,12.32,12.32,0,0,1-.18,2.92l1.21-.2c.09-.72.22-1.79.41-3.22,2.26-.19,3.25-.84,3-1.93A6.83,6.83,0,0,1,237.58,552.14Zm8.79-9.31a1.86,1.86,0,0,0-.44-.72l-.77-.92c-.86,2.06-1.7,3.91-2.53,5.53s-1.62,3.2-2.36,4.72a10,10,0,0,0,3.89-3.66A11.87,11.87,0,0,0,246.37,542.83Zm-6.61-32.78a42.84,42.84,0,0,0-2.14,4q-.93,2-2.34,4.85l3.27-1.06c.41-1.29.78-2.54,1.1-3.73a35.61,35.61,0,0,0,.8-3.67Zm145.06-.72q.07.51-.21.69c-.19.12-.15.33.11.64a5.93,5.93,0,0,1,.5,4,9.89,9.89,0,0,1-1.78,3.45,23.61,23.61,0,0,1-2.92,3.1,15.71,15.71,0,0,0-2.65,2.93q-1.53,2.08-3.08,4a27.17,27.17,0,0,0-2.74,4.26q-6,9.38-10.78,18a11.78,11.78,0,0,1-2.1,3.36,3.08,3.08,0,0,0-.49,3.63c0,.17-.14.46-.49.86a25.94,25.94,0,0,1-1.44,2.6c-.5.79-1.08,1.67-1.76,2.65a7.34,7.34,0,0,0-1.42,3.65,5.22,5.22,0,0,1-2.39,3.54,2.12,2.12,0,0,0-.79,1.84,5.83,5.83,0,0,1-.4,2.29,9.59,9.59,0,0,1-1.08,2,4.25,4.25,0,0,0-.77,2,26.38,26.38,0,0,1-6,11q-2.1,2.45-3.89,4.84a7.14,7.14,0,0,0-1.24,5.71,1.64,1.64,0,0,1-.29,1.1,1.55,1.55,0,0,0-.29,1.1c-.07.89-.09,1.68-.08,2.37a14.22,14.22,0,0,0,.18,2.07c-1.19,1.6-2.35,3.14-3.45,4.63s-2.35,3.15-3.72,5a7.3,7.3,0,0,1,2.6.62c.46.27.53.7.21,1.28.06.34-.22.56-.83.66a6.47,6.47,0,0,0-3.55,2.15c-.77,1-.8,2.41-.09,4.22a24,24,0,0,1,1-2.27c.39-.76.73-1.52,1-2.27a.83.83,0,0,0,.5.18,1,1,0,0,1,.5.18c-.27.92-.54,1.79-.82,2.63a27.76,27.76,0,0,0-.78,2.88c-1.07-.17-2.24-.33-3.51-.47l-1.68,5c-.56,1.66-1.22,3.35-2,5,1.73.41,2.89.18,3.48-.71a10,10,0,0,0,1.27-2.7c1.2,2.26.31,3.8-2.67,4.64a16,16,0,0,0-3.35,1.47c-1.05.61-2.15,1.18-3.31,1.72a1.19,1.19,0,0,0,1.34.57l1.68-.28a1.82,1.82,0,0,1,1.27.19c.35.2.49.75.43,1.63a6.67,6.67,0,0,0-1.88,1.89,40,40,0,0,0-1.75,5.53c-.43,1.83-.91,3.65-1.44,5.49L313.61,669a7.39,7.39,0,0,0,.89,3.53q1.19-2.29,2.34-4.71t2.35-4.72a.85.85,0,0,0,.5.18.85.85,0,0,1,.5.18,2.42,2.42,0,0,0-.09,1.33,2.47,2.47,0,0,1-.1,1.32q-.72,3.27-1.27,6.51a41.57,41.57,0,0,1-1.62,6.3,12.13,12.13,0,0,1-1.85,3.59,38.8,38.8,0,0,0-2.54,4l2.74-.45q-.15,2.91-.4,6.1t-.41,6.1a19.66,19.66,0,0,0-.12,2.65c0,.87,0,1.74.05,2.61a42.37,42.37,0,0,0,.52,5l.77,4.73a7.39,7.39,0,0,1-.07,2.9q-.32,1.37-3.6,1.38a19.49,19.49,0,0,1,1.39,3.44,10.62,10.62,0,0,0,1.3,2.94,2,2,0,0,0,2.3,1.07c.95-.25,1.94-.54,3-.89a14.52,14.52,0,0,1,2.93-1.13c1-.25,1.94-.54,3-.89q1.26,7.68-6.09,10.45c-1,.17-1.65.1-1.91-.21a7.05,7.05,0,0,0-4.59-1.34,25.11,25.11,0,0,1-5-.23,2.72,2.72,0,0,1-1.71-.9,4.56,4.56,0,0,0-1.75-1.15q-9.06-3.76-12.81-10.49a45.23,45.23,0,0,1-5.1-14.91,73.2,73.2,0,0,1-1.54-9.33c-.31-3.19-.52-6.34-.61-9.48a27.43,27.43,0,0,1,.19-5.41c.23-1.7.4-3.52.49-5.46.32-3,.65-6,1-9.08s.75-6.07,1.28-9.13,1.17-6.06,1.92-9,1.41-5.83,2-8.72q2.1-8,4.16-16t4.46-16.08q2.75-9.63,5.67-19t6-19.09q2.34-6.42,5-12.64t5.07-12.64q2.73-6.21,5.3-12.41t5.3-12.42a7.82,7.82,0,0,1,1.29-2.58,7.9,7.9,0,0,0,1.3-2.57l0-.26q-4.84,4.74-9.67,9.6t-9.36,9.54a1.84,1.84,0,0,1-1-.36q5.37-5.36,10.32-10.36t10-10.31a.92.92,0,0,1,.05-.66c.09-.1.1-.32.05-.66,1-1.56,1.91-3.2,2.78-4.92a32.49,32.49,0,0,1,3.09-5,33.39,33.39,0,0,1,5.63-5.65,7.86,7.86,0,0,1,9.86-.83,2.26,2.26,0,0,0,1.6.26,11.71,11.71,0,0,1,5.83,1.28,16.73,16.73,0,0,1,4.3,3.36,8.34,8.34,0,0,0,3.8,2.26,28.68,28.68,0,0,1,4.34,1.65,4,4,0,0,0,1,.49,1.47,1.47,0,0,1,.72.54,35,35,0,0,1,2.72,2.31c.86.82,1.67,1.6,2.41,2.36a2.49,2.49,0,0,1,.52,1.22A2.39,2.39,0,0,0,384.82,509.33ZM291.05,691.89c.15-1.6.35-3.25.59-4.95s.44-3.35.59-5c0-.17-.5-.53-1.42-1.08a1.37,1.37,0,0,1-.81.79c-.4.15-.56.4-.5.74a14.57,14.57,0,0,0-.07,3.16c.09,1,.14,2.07.16,3.12a17.47,17.47,0,0,0,.32,3.36Zm20-49.73c-.64-.07-1.23-.15-1.76-.24a5.47,5.47,0,0,0-1.71,0,6.88,6.88,0,0,0-1.79.56l-1.74.81a8.3,8.3,0,0,0,.38-2.43,8.59,8.59,0,0,1,.38-2.42.69.69,0,0,1-.47-.06.8.8,0,0,0-.48,0,36.36,36.36,0,0,1-2.6,3.84,4.6,4.6,0,0,0-.67,4.31,7.71,7.71,0,0,1-.19,4.49,16.86,16.86,0,0,1-.84,2.37,6.89,6.89,0,0,1-1,1.6c-1.11-.51-2-.94-2.66-1.27a21.52,21.52,0,0,1-2-1.11c-.06,1.76-.12,3-.17,3.7l-.75.13a9.67,9.67,0,0,1-.61-1.35,6.47,6.47,0,0,1-.35-1.38c-.44,1.12-.94,2.23-1.49,3.31s.18,2,2.17,2.78c.2,0,.28.13.24.49a5,5,0,0,1-.29,1.09,10.43,10.43,0,0,1-1.07,2,9,9,0,0,0-1.08,2l.61-.1c.05,1.57.15,3.17.32,4.8s.27,3.24.32,4.8l1,.11a4.1,4.1,0,0,0,.75-1.17,9.86,9.86,0,0,0,.4-1.38l2.29-13.76c.17-1.33.62-2,1.33-1.9a6.72,6.72,0,0,1,2.75,1.23q-3.27,0-3,1.44a6.66,6.66,0,0,1-.14,2.81,2.36,2.36,0,0,0,.09,1.46,9.91,9.91,0,0,1,.42,1.64c.55-.26,1.06-.47,1.53-.64s1.07-.39,1.82-.69a3.18,3.18,0,0,0-.27,1.08,1.42,1.42,0,0,1-.3.85,7.15,7.15,0,0,1-2.3.51c-.78,0-1.15.23-1.09.57a11.59,11.59,0,0,0-.23,3.19,15.9,15.9,0,0,1-.17,3.44,5,5,0,0,1,0,2.1,16.2,16.2,0,0,0-2.42,7.48,26,26,0,0,0,.77,7.49l.2,1.27c-1.45,1.29-1.74,2.43-.84,3.42a3.32,3.32,0,0,1,.72,3.43,1.42,1.42,0,0,0,.95.1,19.6,19.6,0,0,1,1.69-1.72c.59-.53,1.2-1.11,1.81-1.74a29.57,29.57,0,0,0-3.15-3.94l3.41-.56a8.94,8.94,0,0,1-.84-1.17l-.87-1.44a3.26,3.26,0,0,1,1.6-.92,13.44,13.44,0,0,0,1.95-.71,4.93,4.93,0,0,0,2.19-3.11c.49-1.57.27-2.54-.64-2.92-1.85-.92-2.7-2-2.58-3.12a15.75,15.75,0,0,1,1.1-4,26.12,26.12,0,0,0,1.34-4.42q.44-2.18,1.26-4.93,5.26-2.7,1.41-5,1.2-2.3,2.13-4.41c.62-1.42,1.23-2.87,1.83-4.37a1.94,1.94,0,0,0,.37-1.64c-.11-.68-.29-1.09-.52-1.22-1.38-.65-2-1.26-1.73-1.82s.47-1.3.74-2.22a18.16,18.16,0,0,0,3.45-.31Zm-18.74,5.7q-.58,2.19-1.37,4.95a10.37,10.37,0,0,1,1.69-.15,8.32,8.32,0,0,0,1.39-.1,5.28,5.28,0,0,1,1.87-1,5.36,5.36,0,0,0,1.87-1,.94.94,0,0,1,.18-.82,6.87,6.87,0,0,0-1.87,0,6.8,6.8,0,0,1-1.86,0,2.06,2.06,0,0,1-.48-1,2,2,0,0,0-.47-1,.67.67,0,0,1-.48-.05A.69.69,0,0,0,292.33,647.86Zm18-14a11.2,11.2,0,0,1,.45-2,2,2,0,0,0-.13-1.69c-.57-.95-1.19-1.9-1.85-2.84a3.67,3.67,0,0,1-.41-3.35l-.78-.92c-.68,1.52-1.25,2.92-1.69,4.22s-.93,2.6-1.47,3.91a2.34,2.34,0,0,0-.73-.14,2.93,2.93,0,0,1-.75-.14,11.93,11.93,0,0,0-.2-3.12c.06-.88.16-1.9.28-3.06s0-1.79-.47-1.89c-2.17-.52-3-1.13-2.41-1.84a9.25,9.25,0,0,0,1.39-2.45,1,1,0,0,0,0-.92,2.24,2.24,0,0,1-.3-.87,1.14,1.14,0,0,0-.8-.14,5.25,5.25,0,0,1-1.41,0,16.77,16.77,0,0,1-1.08,3.72,3,3,0,0,0,0,3,12.84,12.84,0,0,1,1.56,4.87,5.46,5.46,0,0,1-1.29,4.27,11.08,11.08,0,0,0-1.77,3.18,3.94,3.94,0,0,0-.29,2.94,4.71,4.71,0,0,0-3,3.25,5.7,5.7,0,0,0,.73,5.26c.18-1.08.3-2,.37-2.69.41.28.63.51.66.68l.73.66a6.51,6.51,0,0,0,.69,2.25c0,.18.29.22.8.13a1.68,1.68,0,0,0,1-.43,1.38,1.38,0,0,0,.44-1.12,2,2,0,0,1,.14-1.07,2,2,0,0,0,.13-1.07,2,2,0,0,1,.14-1.07c.23-1.09.47-2.22.69-3.4a19,19,0,0,1,1-3.44,10.14,10.14,0,0,1,.88-2.24,17.88,17.88,0,0,0,.92-2,12.19,12.19,0,0,0,2.71.86,1.15,1.15,0,0,0,.87.12l1.18-1.5Q309.25,633,310.33,633.88ZM301,611.52a2.56,2.56,0,0,0-.36,1.64,4.22,4.22,0,0,1-.05,1.58,1,1,0,0,0,.65.16,1,1,0,0,1,.65.15c.39-1.46.79-2.79,1.22-4s.83-2.54,1.21-4a1.43,1.43,0,0,0-.77-.92c-.76.48-1.12.8-1.09,1a19,19,0,0,0-.73,2.21A21.31,21.31,0,0,1,301,611.52Zm11.64-24.21a87.37,87.37,0,0,0-7.16,23q2.19-.35,2.1-.87l1.44-8.89a5.81,5.81,0,0,1,1.18-2.56C312.66,594.4,313.46,590.85,312.68,587.31Zm1.26,30.49a6.34,6.34,0,0,1,.52-1.52,1,1,0,0,0,0-1.18,33.13,33.13,0,0,0-3.24-2.62l-.29-1.79c-.32.23-.68.47-1.09.71s-.5.43-.27.57a3.28,3.28,0,0,1-.26,3.45,13.84,13.84,0,0,0-1.77,3.18,1,1,0,0,0,0,.92,1.09,1.09,0,0,1,0,.92.91.91,0,0,0,.5.18.83.83,0,0,1,.49.18c.5-.78,1-1.52,1.49-2.22a11.68,11.68,0,0,0,1.12-1.88,3.3,3.3,0,0,0,1.36.56A4.48,4.48,0,0,1,313.94,617.8Zm-2.45,9.85a4.78,4.78,0,0,1,1.28-2.7c.78-.92.28-1.75-1.51-2.51a3.81,3.81,0,0,1-.79,2.76C309.8,626.19,310.14,627,311.49,627.65Zm6.42-21.78a11.89,11.89,0,0,1-2,.19,9.54,9.54,0,0,0-1.39.1,28.1,28.1,0,0,0,1.33-4.28,27.44,27.44,0,0,1,1.33-4.29,11.11,11.11,0,0,0-4.7,5.63q-1.83,4.11-.92,5.79a24.47,24.47,0,0,1,2.45-.27c.82,0,1.74-.16,2.76-.32A11.08,11.08,0,0,1,317.91,605.87Zm7.14,34c.54,2,.56,3.41.07,4.19s-1.69,1.15-3.57,1.11c.14-.37.29-.75.44-1.12s.29-.75.44-1.13Z"/><path class="cls-15" d="M518.85,513.56a18.09,18.09,0,0,1,1.16,6.11,41.54,41.54,0,0,0,.55,6.21,8.59,8.59,0,0,0,.43,1.63,3.29,3.29,0,0,1,.12,1.69c-.19,1.43-.31,2.9-.37,4.39a14.16,14.16,0,0,1-1,4.49,39,39,0,0,1-1.35,4.16,4,4,0,0,0,.82,4.06c1.3,1.54,1.43,3,.41,4.4a19.36,19.36,0,0,0-2.41,4.33q-1.11,2.81-2.05,5.58c-.63,1.86-1.32,3.72-2,5.59a11,11,0,0,0-.9,1.2,9.94,9.94,0,0,1-.89,1.19q-1.71,2.91-3.12,5.76t-3.11,5.76c-1,1.57-2,3.14-3.13,4.72s-2.14,3.15-3.13,4.71a2.21,2.21,0,0,0-.55,1.4,6.06,6.06,0,0,1-.47,1.91,17.84,17.84,0,0,1-2.52,1.73,25.42,25.42,0,0,1,2.81,1.9l-5.56,7.08q-2.7,3.47-5.55,7.08c-1.51,2.18-3,4.39-4.52,6.65s-3,4.47-4.54,6.65l-3.53,4.12a41,41,0,0,1-3.89,3.92c-1.07,1-2.14,2.15-3.21,3.28a41.51,41.51,0,0,1-3.51,3.33,70.75,70.75,0,0,1-6.3,5.37,38.57,38.57,0,0,0-6,5.57,14.11,14.11,0,0,1-6.66,4.11A19.18,19.18,0,0,0,438.1,657a5.52,5.52,0,0,1-2.85.73,19,19,0,0,1-3.32-.25,34.87,34.87,0,0,1-7.49-1.91,7,7,0,0,0-3.69-.58,5.35,5.35,0,0,1-3.77-1.09c-1.64-1.12-3.33-2.25-5.08-3.36s-3.54-2.22-5.38-3.32a21.83,21.83,0,0,1-5.57-5.38q-2.32-2.76-4.68-5.66a67.17,67.17,0,0,1-4.46-6.22,17,17,0,0,1-1.43-3.05c-.39-1.07-.76-2.1-1.14-3.09q-.58-3.57-1.3-7a33.67,33.67,0,0,1-.7-7.1,71.42,71.42,0,0,1,.46-7.68q.44-4,1.06-7.79a1.09,1.09,0,0,1,.46-1c.36-.32.53-.57.5-.74a5.25,5.25,0,0,0-.18-2.07,2.66,2.66,0,0,1-.1-1.56,147.48,147.48,0,0,1,3.69-15.56,36.87,36.87,0,0,1,1.4-4.82q.86-2.37,1.73-4.62a33.94,33.94,0,0,0,1.44-4.56,20.37,20.37,0,0,1,1.74-4.62c.86-2.41,1.72-4.74,2.6-7s1.86-4.5,2.95-6.78q3.78-9.28,8-18.1c.78-1.53,1.53-3,2.23-4.44s1.45-2.9,2.24-4.43a3.25,3.25,0,0,0,.7-1.43c.12-.54.07-.88-.16-1a4.75,4.75,0,0,0-3.95-1.19c-1,.34-2,.72-3.08,1.16a33.08,33.08,0,0,0-3.05,1.42,4.79,4.79,0,0,0-3.67-1.4,16.82,16.82,0,0,0-5.3,1.93,20.73,20.73,0,0,1-6.39,2,19.49,19.49,0,0,1-7,0c.76-.44,1.38-.82,1.85-1.13a3.14,3.14,0,0,1,1.31-.57,8.45,8.45,0,0,0,4.24-1.75,11.82,11.82,0,0,0,2.69-3.59,7.51,7.51,0,0,1,.94-.94,7.5,7.5,0,0,0,.94-.94c3.82-2,7.52-4,11.07-5.76s7.16-3.62,10.82-5.45q3.18-1.56,6.09-2.84t6.09-2.83c.93-.68,1.91-1.41,2.92-2.19s1-1.87-.06-3.27a18.71,18.71,0,0,0,6.37-6.82,41.82,41.82,0,0,1,5-7.39q2.1-2.43,3.89-4.83c1.2-1.6,2.49-3.21,3.89-4.84a3.92,3.92,0,0,1,3.27-1.06,4.89,4.89,0,0,1,3,1.34c.25.31,1.12.52,2.6.62,1,0,2.17,0,3.41-.16s2.36-.17,3.4-.17q0,.26-.48.87a28.15,28.15,0,0,1,3.42,1.8,32.23,32.23,0,0,0,4.18,1.67,5.18,5.18,0,0,1,3.17,3.16,1.41,1.41,0,0,0,.77.92c1.77.59,2.61,1.32,2.55,2.2a20,20,0,0,1-.45,3c-.61,1.33-1.18,2.65-1.69,4a16.79,16.79,0,0,0-1,4.1c-.3.75.22,1.37,1.55,1.85,2.85.93,5.68,1.95,8.46,3.07s5.71,2.13,8.78,3a16.18,16.18,0,0,1,5.45,2.81q2.18,1.79,4.32,3.46a1.6,1.6,0,0,1,.82,1.17,6.17,6.17,0,0,0,.6,1.75c.95-.51,1.59-.44,1.91.21s.65,1.46,1,2.45a44.57,44.57,0,0,0,3.27,5.63A26.75,26.75,0,0,1,518.85,513.56Zm-10.17,10.33A8.91,8.91,0,0,1,509,520c.4-1.38-.35-2.18-2.26-2.39-.77-2.14-1.57-4.16-2.4-6a38.59,38.59,0,0,1-2-5.58,8.5,8.5,0,0,0-5.66-5.89l.76,4.6a7.29,7.29,0,0,1-1.77-1.29,26.71,26.71,0,0,1-2.11-3.32,9.55,9.55,0,0,0-3-3.18,15.55,15.55,0,0,0-4.57-2.14,35.91,35.91,0,0,0-6-1.25,26,26,0,0,0-6.1-.05A13.27,13.27,0,0,0,469,495a1.72,1.72,0,0,0-1,1.22q-2.28,3.27-4.59,6.26a70.18,70.18,0,0,0-4.29,6.22q-2.5,3.82-4.84,7.62t-4.84,7.61a17.31,17.31,0,0,0-2.14,3.11,31.39,31.39,0,0,1-1.84,3.06q-1.15,2.55-2.46,5t-2.46,5q-1.89,3.74-3.49,7.27t-3.45,7.52c-.64,1.15-1.24,2.26-1.8,3.31a34.29,34.29,0,0,0-1.49,3.26c-1.21,2.83-2.26,5.58-3.17,8.27s-1.89,5.34-2.91,7.95a40.58,40.58,0,0,0-1.75,5.54q-.64,2.73-1.7,5.79a7.31,7.31,0,0,0-.71,3.27c0,1.22-1.16,1.85-3.44,1.87a17.8,17.8,0,0,0,.85,6.16q1,3-3,5.74l.12.76c-.1,2-.18,4-.25,6.08s-.15,4.14-.25,6.08c-.06.88-.17,1.82-.32,2.81a8.75,8.75,0,0,0,0,2.75c.33,2,.72,4.08,1.16,6.11s.92,4,1.46,6.06c.71,1.81,1.94,2.3,3.68,1.49,2.09-1.21,4.14-2.34,6.16-3.37a43.34,43.34,0,0,0,5.82-3.58q3.3-2.64,6.58-5.54t6.28-5.49q3-2.6,5.67-5.4c1.77-1.86,3.57-3.64,5.37-5.34q1.31-1.53,2.34-2.88c.68-.9,1.45-1.94,2.29-3.13a2.84,2.84,0,0,1,.89-2.24A3.26,3.26,0,0,1,464,600l3-.5a10.05,10.05,0,0,1-.69-1.33,10.71,10.71,0,0,0-.69-1.33c.35-.41.84-.93,1.47-1.55s1.3-1.26,2-1.91a9.61,9.61,0,0,1,2.2-1.81c.94-.58,1.37-1.14,1.29-1.65-.31-1.87.06-2.77,1.12-2.68a7.85,7.85,0,0,0,3.63-.72,25,25,0,0,0-2.33,4.84,1.76,1.76,0,0,0,1,.36l2.57-2.39a8.44,8.44,0,0,0,1.92-2.55,20.69,20.69,0,0,1,4.47-6.11,20.57,20.57,0,0,0,4.46-6.11,14.72,14.72,0,0,1,3.36-4.23,8,8,0,0,0,2.68-4.64,4.46,4.46,0,0,1,1.18-2.29c.79-1.53,1.63-3,2.54-4.48s1.75-3,2.55-4.49a19.46,19.46,0,0,0,1.2-3.09c.34-1.1.64-2.11.91-3a30.75,30.75,0,0,1,1.42-4.69,15.36,15.36,0,0,0,2-.87,1,1,0,0,0-.5-.18.83.83,0,0,1-.49-.18,6.74,6.74,0,0,0,0-2,2.63,2.63,0,0,1,.33-1.76,5.27,5.27,0,0,1,.62-1.94,16.23,16.23,0,0,0,.92-2,43.88,43.88,0,0,1,.64-5.62A11.28,11.28,0,0,0,508.68,523.89ZM404.8,505.52c2.06-1.38,4.13-2.69,6.23-3.91a6.57,6.57,0,0,0-4.68,1C405,503.58,404.43,504.53,404.8,505.52Zm72.12,79.75c1.33-2,2.73-3.95,4.17-5.94s2.84-4,4.18-5.93a.8.8,0,0,1,.48.05.64.64,0,0,0,.47,0c-.26.93-.57,1.9-.92,2.91a8.47,8.47,0,0,1-1.58,2.75,20.84,20.84,0,0,1-3,3.39,34.36,34.36,0,0,0-3.07,3.13C477.2,585.75,477,585.61,476.92,585.27Zm18.83-31.7a8.49,8.49,0,0,1-.67,3.52,41.5,41.5,0,0,1-2.37,5.51,38,38,0,0,1-3.46,5.55,17.75,17.75,0,0,1-3.32,3.57q2.67-4.63,5.06-9.1T495.75,553.57Zm4.6-30.93c-.16-1-.28-2.06-.34-3.1s-.2-2.15-.4-3.34a2,2,0,0,0,1.26,0,15.4,15.4,0,0,0,.2,3.12,17,17,0,0,1,.2,3.12Z"/><path class="cls-15" d="M682.32,556.26a7.68,7.68,0,0,1,2.88-2.44,6.59,6.59,0,0,1,4.81-.14l-4.45,5.2c-1.92,2.24-3.71,4.37-5.35,6.39s-3.35,4.05-5.1,6.08a2.82,2.82,0,0,1-1.26.87,2.85,2.85,0,0,0-1.26.86,9.73,9.73,0,0,0-.89,1.2,10.07,10.07,0,0,1-.9,1.19l-2.36,2.75c0-.17-.3,0-.83.66a18.68,18.68,0,0,1-5.47,7.6,59.1,59.1,0,0,0-6.85,6.76c-2.12,2.28-4.35,4.61-6.66,7s-4.63,4.74-7,7a11.66,11.66,0,0,0-1,.68,9.67,9.67,0,0,1-1,.69q-1.69,1.07-4.49,3.1t-5.69,4.34q-2.89,2.32-5.66,4.48t-4.17,3.17a27.79,27.79,0,0,1-6.49,4.22,55.31,55.31,0,0,1-7.35,2.78,62.76,62.76,0,0,1-7.82,1.81,12.79,12.79,0,0,1-7.68-1.1q-2.68-1.14-3.86,1.16a2.88,2.88,0,0,1-2.3,2.21,24.51,24.51,0,0,1-3.54.32,7.48,7.48,0,0,1-3.29-.12,3.23,3.23,0,0,1-2.12-2.4.67.67,0,0,0-.43.2.67.67,0,0,1-.44.2,5,5,0,0,1,0,1.18,7.64,7.64,0,0,0,.12,1.68,16.62,16.62,0,0,1-2.83-2c-.73-.66-1.58-1.35-2.53-2.07a.69.69,0,0,0-.38-.46.77.77,0,0,0-.39-.47l0-.25-1.17-1.39a15.63,15.63,0,0,0-5.74-6.4,4.12,4.12,0,0,1-2-1.64c-.43-.72-.92-1.47-1.47-2.26-.74-.74-1.54-1.49-2.39-2.23s-1.65-1.47-2.4-2.23a10.52,10.52,0,0,1-1.79-2.33c-.44-.8-.95-1.68-1.52-2.63a66.81,66.81,0,0,1-3.13-6.7,18.24,18.24,0,0,1-1.31-7c-.08-1.73-.09-3.39,0-5s0-3.24,0-5a1,1,0,0,0,.17-.82,15.72,15.72,0,0,1,.2-8.29q1.22-4,2.15-7.84c.12-.54.66-1.06,1.62-1.57-2.16-1.75-1.79-3.29,1.11-4.65a2.15,2.15,0,0,0,.66-1.68,2.76,2.76,0,0,1,1.19-4.13l.28-2.15a10,10,0,0,0,2.15-1.14c.65-.45.36-1.28-.87-2.48-.24-.13-.06-.64.52-1.53a8.82,8.82,0,0,1,1.71-2,6.88,6.88,0,0,1,.94-.94c.28-.22.17-.56-.32-1l2.48-2a14,14,0,0,0-2.12-1.5q4.26-.69,2.4-2.49a28.5,28.5,0,0,0,2.19-2.85c.58-.88,1.21-1.82,1.88-2.8.3-.75.64-1.5,1-2.27a14.18,14.18,0,0,0,1-2.53.67.67,0,0,0,.43-.2.7.7,0,0,1,.44-.2,14.29,14.29,0,0,0,3.64-2.57c.33-.49.15-1.55-.53-3.19a3.46,3.46,0,0,1,1.33-.48,3.47,3.47,0,0,0,1.32-.48,13.86,13.86,0,0,1-1.4-1c-.48-.36-1-.76-1.45-1.21q3.76-5.59,8.27-12.38a20,20,0,0,1-.57,2.2.64.64,0,0,1,.47.05.73.73,0,0,0,.48.05l1-1.73c.32-.58.71-1.34,1.18-2.3,1.57-.6,2-1.81,1.28-3.62-.37-1,.14-2.29,1.54-3.92a11.44,11.44,0,0,1,4.45-3.36l1.21-.2q-1.29-2.14.22-3.44a9,9,0,0,0,2.21-2.73A39.67,39.67,0,0,1,595.8,482c1.75-2,3.48-4.15,5.21-6.36a63.16,63.16,0,0,1,5.59-6.83,29.82,29.82,0,0,0,4.94-7,43.91,43.91,0,0,1,5.58-7.87q3.17-3.53,7-7.05a6.26,6.26,0,0,1,1.38-1.14,17.73,17.73,0,0,0,1.67-1.19,2.56,2.56,0,0,1,1.79-.56l8.71,1.72a1.69,1.69,0,0,1,.63,0,1.67,1.67,0,0,0,.63,0c1.07.17,2,.36,2.9.57a5.15,5.15,0,0,1,2.43,1.44,10.06,10.06,0,0,0,2.42,1.44,16.68,16.68,0,0,0,2.64.88,13.1,13.1,0,0,1,5.54,3.29q1.89,2,3.88,4.61a.7.7,0,0,0,.39.46,11.87,11.87,0,0,1,1.3,3.2,9.9,9.9,0,0,0,1.65,3.4,29.2,29.2,0,0,1,3.17,5,22.85,22.85,0,0,0,3.11,4.74,6.23,6.23,0,0,1,1.23,5.57,6.89,6.89,0,0,0,.93,5.62,1.15,1.15,0,0,1-.2.69,7.64,7.64,0,0,0-.47,1c2,.73,2.66,1.62,2,2.69a10.45,10.45,0,0,0-1.35,3.24c0,1.06-.08,2.07-.12,3a18.91,18.91,0,0,1-.43,3.09,8,8,0,0,0-.36,2.55,3.38,3.38,0,0,1-1.32,2.45,1.54,1.54,0,0,0-.42,1.25,2.21,2.21,0,0,1-.11,1.2,44.45,44.45,0,0,1-2.55,5.4,48.63,48.63,0,0,1-4.6,8.1q-1.44,2.61-2.9,5.2c-1,1.74-1.94,3.38-2.93,5a25.7,25.7,0,0,1-2.61,4.1,25.93,25.93,0,0,0-2.6,4.1,11.81,11.81,0,0,0-1.58,3.67,2.59,2.59,0,0,1-1.27,1.78,11.46,11.46,0,0,0-4.15,4.23,39.86,39.86,0,0,1-3.11,4.84,28.67,28.67,0,0,1-3.23,3.15q-1.92,1.63-3.53,3.21c-.91.85-1.76,1.69-2.56,2.52s-1.65,1.67-2.55,2.52a35.15,35.15,0,0,1-3.42,2.92q-1.82,1.35-3.73,3a1.42,1.42,0,0,0-.87.41,28.71,28.71,0,0,1-8.47,5.46c-3.12,1.29-6.23,2.64-9.33,4a11,11,0,0,1-2.66,1l-.3,0a73.2,73.2,0,0,1-10.47,2.77,48.9,48.9,0,0,1-10.73,1.24l-.35-.21-1.7,1.07q1,2.46-2.06,4.54a1.24,1.24,0,0,0-.64.89,4.68,4.68,0,0,1-.28,1.1,2.48,2.48,0,0,0-.62,1,2.65,2.65,0,0,1-.61,1c-.88,1-.94,1.6-.19,1.74a5.6,5.6,0,0,1,1.82.62,13.27,13.27,0,0,0-.49,2.7c-.06.89-.13,1.78-.19,2.66a3,3,0,0,1-1,1.48q-2.36,2.75.28,5.47a2.19,2.19,0,0,1,.16,2.86,2,2,0,0,0,1.11,3c.64.07,1.25.67,1.86,1.8l1.16,1.38a21.6,21.6,0,0,1,.89,2.61,5.64,5.64,0,0,0,1.51,2.5,7.86,7.86,0,0,0,5.63,2,41.3,41.3,0,0,0,13.54-3.14,49.2,49.2,0,0,0,12-6.57l6.09-4.81q3.59-2.81,7.45-6t7.26-6.17c2.27-2,4.24-3.72,5.89-5q6-5.43,11.61-11.09L659,571.9q4.8-5,9.3-9.92t9-10.13q4-4.07,7.88-8.12t7.54-8.32a10.28,10.28,0,0,0,1.83-2.14l1.49-2.34a2.23,2.23,0,0,0,.67.28,1.58,1.58,0,0,1,.72.54q-6.21,7.85-12.62,15.46t-12.34,15.14c-.33.58-.6,1.11-.83,1.58a6.53,6.53,0,0,1-.88,1.33q-1.53,2.09-3.23,4.07l-3.28,3.82a2.18,2.18,0,0,1-.55.48,3,3,0,0,0-.54.49,1.67,1.67,0,0,0-.68.63,3.71,3.71,0,0,1-.63.9,4.23,4.23,0,0,1,1.41,0,2,2,0,0,0,1.37-.23A10.56,10.56,0,0,0,666,574a10.63,10.63,0,0,1,1.49-1.42c2.7-2.54,5.28-5.15,7.77-7.84A102.33,102.33,0,0,0,682.32,556.26ZM553.84,574.47c0-.16,0-.26.11-.28s.13-.11.11-.28a18.73,18.73,0,0,0-1.64-2.35,1.36,1.36,0,0,0-.95-.11,2.14,2.14,0,0,1-.14,1.07.93.93,0,0,0,.17,1Q551.54,573.81,553.84,574.47Zm.18-5.54c.65-.45,1.44-1,2.38-1.7q-2.77-1.63-.07-4.19a.68.68,0,0,0,0-.79,1.24,1.24,0,0,1,0-1,.67.67,0,0,1-.48-.05.64.64,0,0,0-.47,0q-1.18,2.29-2.09,4.41t-2.08,4.41l.69.41C552.66,569.86,553.36,569.39,554,568.93ZM560.47,592a2.35,2.35,0,0,0,.74-2.09,3.88,3.88,0,0,0-.85-2.36,12.77,12.77,0,0,0-.62,1.94,12.1,12.1,0,0,1-.62,1.94,1,1,0,0,0,.24.49.93.93,0,0,1,.23.48C560.2,592.32,560.5,592.19,560.47,592Zm-5.37-32.71a5.48,5.48,0,0,0,1.66.64,19.21,19.21,0,0,1,2,.6,16.54,16.54,0,0,0,.82-1.71,8,8,0,0,0,.46-1.91,2.12,2.12,0,0,0-.08-1.43,9.66,9.66,0,0,1-.42-1.64,3.54,3.54,0,0,1,.82.26,3.36,3.36,0,0,0,.82.26,29.69,29.69,0,0,0,2.19-2.85c.58-.89,1.21-1.82,1.88-2.81a3.46,3.46,0,0,1,.35-.71,2.9,2.9,0,0,0,.36-.71c0-.17-.21-.32-.55-.44a.62.62,0,0,0-.75.12,2.72,2.72,0,0,0-1.4,1,6.56,6.56,0,0,0-.31,1,6.21,6.21,0,0,1-.31,1,1.8,1.8,0,0,1-1-.36,24,24,0,0,1,1-2.27,4.79,4.79,0,0,1,1.72-1.86,10.66,10.66,0,0,0,3-2.06c.24-.39-.27-1.26-1.53-2.63l1.7-1.07c.75-.47,1.56-1,2.41-1.45a3.38,3.38,0,0,0,1.51-1.29,4.09,4.09,0,0,1,1.56-3.8,16.86,16.86,0,0,0,3-2.72,32.27,32.27,0,0,0-1.46-3.17,17.4,17.4,0,0,0,3.27-2.9,10.29,10.29,0,0,0,1.84-2.14l1.49-2.35q1.78-2.39-1.77-3.12a99.87,99.87,0,0,0-13.78,20.64Q560.15,548.25,555.1,559.31Zm7.19,24.8a36.09,36.09,0,0,0,1.83-5,33.6,33.6,0,0,1,1.83-5c-.41.06-.64-.07-.7-.41-.75.48-1.1.88-1,1.22a12.88,12.88,0,0,1-1.19,3.21,31.23,31.23,0,0,0-1.5,3.27,4.75,4.75,0,0,0-.14,2.91Zm4.08-30.33a6.17,6.17,0,0,1,2.4-2.49c1.13-.71,1.26-1.78.41-3.22a3.79,3.79,0,0,0-1.79.56,12.69,12.69,0,0,0-1.64,2.37c-.39.76-.84,1.54-1.33,2.32-.53.61-.39.85.43.71C565.33,554.48,565.84,554.39,566.37,553.78Zm4.6,7.12q1.49-2.34,2.74-4.25t2.73-4.26a7.85,7.85,0,0,0-4.47,3.23A6,6,0,0,0,571,560.9ZM603.38,532a60.64,60.64,0,0,0-3.18,5.38,59.09,59.09,0,0,1-3.18,5.37,3.34,3.34,0,0,1-.82.66c-.38.24-.69.29-.92.15-1,0-1.63.23-1.76.69a12.41,12.41,0,0,0-.33,1.76,7.15,7.15,0,0,1-.23,2.4c-.3.75-.6,1.45-.9,2.11s-.61,1.37-.9,2.12l-1.32,1.53a10.38,10.38,0,0,1-1.27,1.78,7,7,0,0,0-1.22,2,40.15,40.15,0,0,0-1.75,5.54,11.31,11.31,0,0,1-3,5.22l-.53.61-3.15,5.5a29.21,29.21,0,0,1,5.25-.34,10.55,10.55,0,0,0,5.13-1.1,26.27,26.27,0,0,1,2.61-1.22,24,24,0,0,0,2.61-1.21l2.67-.83a9.33,9.33,0,0,0,2-1A7.39,7.39,0,0,1,601,568a14.72,14.72,0,0,0,2.15-1.15,1.91,1.91,0,0,0,1.14-.71l8.24-6.86c.93-.68,1.86-1.31,2.81-1.91a17.8,17.8,0,0,0,2.77-2.16,60.91,60.91,0,0,0,6.85-6.76,42.13,42.13,0,0,0,5.16-7.54l1.05-1.22c1.19-1.6,2.34-3.18,3.43-4.77s2.14-3.14,3.13-4.71l4-5.91,4-5.91a1.61,1.61,0,0,0,.4-1.38,4,4,0,0,0,.25-1.35,2.18,2.18,0,0,1,.55-1.4,95.26,95.26,0,0,0,5.85-13.82,46.27,46.27,0,0,0,2.3-14.55,17.89,17.89,0,0,0-.39-5.18q-.57-2.53-1-5.09a2.63,2.63,0,0,0-.67-1.2,1.28,1.28,0,0,0-1.18-.59,4.15,4.15,0,0,0-2.58,1.47l-2.09,2.44a14,14,0,0,1-2.14,2.19c-.7.81-1.36,1.53-2,2.16s-1.3,1.27-2,1.91a21.66,21.66,0,0,0-3,2.85,17.68,17.68,0,0,1-3.27,2.9,15.31,15.31,0,0,0-3.72,4,38.7,38.7,0,0,1-3.32,4.48,12,12,0,0,1-1.9,1.76c-.74.56-1.49,1.07-2.24,1.54a7.76,7.76,0,0,0-1.27,1.79,27.13,27.13,0,0,0-2,4,25.73,25.73,0,0,1-2,4,30,30,0,0,1-2.93,4l-3.27,3.81a56.1,56.1,0,0,0-3.77,5.61A11.44,11.44,0,0,1,603,529.4a6,6,0,0,0,.38,1.39A1.54,1.54,0,0,1,603.38,532Zm-19-20.76c-2.06.17-3.51,1.46-4.37,3.87a32.61,32.61,0,0,1,3.3,1,4.55,4.55,0,0,1-.63-.94c-.16-.33-.38-.73-.66-1.21a5.58,5.58,0,0,1,1.23-.07,2,2,0,0,0,1.2-.33c.4-.06,1-.55,1.64-1.45a1.35,1.35,0,0,1-.88-.59A.73.73,0,0,0,584.36,511.2Zm1.8-4.23a5.52,5.52,0,0,0-1.22,1.12l-1.18,1.37a17.64,17.64,0,0,0,3,1.34c.06.35.28.48.69.42q.48-.87.84-1.59c.23-.47.49-1.08.79-1.83a3.88,3.88,0,0,0-1-.36,9.49,9.49,0,0,1-1.15-.34A1.71,1.71,0,0,0,586.16,507Zm4.84-4.73c-.35.41-.73.91-1.15,1.5s-.81,1.1-1.16,1.5a.92.92,0,0,0,.43.72,3.06,3.06,0,0,1,1.17-.45,1,1,0,0,0,.83-.67,1.49,1.49,0,0,0,.42-1.25,2.17,2.17,0,0,1,.12-1.19A1,1,0,0,0,591,502.24Zm32.86,53.65a2.57,2.57,0,0,0,.49-1.79,13.64,13.64,0,0,1,.1-2.24,3.37,3.37,0,0,0-3,2.59,11.61,11.61,0,0,1-1.27,1.78A11,11,0,0,0,618.9,558l-3.27,2.89,1,.62q2-1.37,3.77-2.72A33.81,33.81,0,0,0,623.86,555.89Zm3.55-5c.4-.07.75-.48,1-1.23.18-.2.15-.37-.08-.51a1,1,0,0,0-.65-.15,2,2,0,0,0-2.09.6,2.5,2.5,0,0,0-.61,1,2.67,2.67,0,0,1-.62,1A12.81,12.81,0,0,0,627.41,550.85Zm96.92-48.72.17,1a28.11,28.11,0,0,0-1.34,3.24,4.43,4.43,0,0,1-2.08,2.57,6,6,0,0,0-2.28,2.26,16.39,16.39,0,0,1-1.61,2.58q-1.28,1.79-2.49,3.82l-2.46,4.07a14.87,14.87,0,0,0-.7,2.35,7.73,7.73,0,0,1-.75,2.09,18.75,18.75,0,0,1-2.91,4.15,18.55,18.55,0,0,0-2.91,4.15c-.88,1-1.71,2-2.51,2.78a14,14,0,0,0-2.17,3,6,6,0,0,1-1.75,2.65,16.52,16.52,0,0,0-2.36,2.75l-.79.91a4.62,4.62,0,0,1-2.06,3.62q-1.83,1.23-3.79,2.59c-1.38-.82-2.09-1.36-2.14-1.61s.58-.93,1.86-2a9.52,9.52,0,0,0,1-1.48,5.14,5.14,0,0,1,1.31-1.53c.52-.61,1.1-1.23,1.72-1.86s1.3-1.26,2-1.9a33.77,33.77,0,0,1,2.87-3.49,35,35,0,0,0,2.86-3.49c.84-1.19,1.65-2.33,2.4-3.41s1.56-2.23,2.41-3.42c.79-1.52,1.48-3,2.09-4.41a31.85,31.85,0,0,1,2.12-4.15,16.93,16.93,0,0,1,2.36-2.75,36,36,0,0,0,2.67-2.8l-1-.36a3.88,3.88,0,0,0,.23-1.45c0-.64.1-1,.3-1,2.23-.37,3.15-1.08,2.77-2.16a4.78,4.78,0,0,1-.18-3,3.66,3.66,0,0,0,.32-1.89.8.8,0,0,1,.48.05.64.64,0,0,0,.47.06,6.28,6.28,0,0,1-1.06-.75,6.66,6.66,0,0,0-1.06-.74q-4.15,7-8.38,13.58a138.27,138.27,0,0,1-9.43,13l-.69-.41a2.26,2.26,0,0,0,.59-1.15,2.32,2.32,0,0,1,.59-1.14q2.76-4.12,5.39-8.09t5.42-7.86q1.93-3.46,3.3-6.57a9.63,9.63,0,0,1,1.27-2.71q.87-1.32,1.62-2.49l2.1-2.45,2.07,1.24c.46.27,1,.57,1.71.89s1.25.63,1.71.91A5.37,5.37,0,0,0,724,501,4.9,4.9,0,0,1,724.33,502.13Z"/><path class="cls-15" d="M879.15,400.86a14.43,14.43,0,0,0,4.19,3.65,5.21,5.21,0,0,1,2.75,4.4,3.91,3.91,0,0,1,0,1.84,19.67,19.67,0,0,0-2,4.79c-.54,1.84-1,3.49-1.38,4.95a.68.68,0,0,1-.22.56l-2.36,2.75-2.37,4.59L875.36,433A24.66,24.66,0,0,1,873,436.9q-1.87,2.81-4.17,5.93t-4.18,5.94a25.51,25.51,0,0,0-2.33,3.92l-1,1.73.08.52-.36,1.63c-.26.92-.51,2-.73,3.14a4.33,4.33,0,0,1-2.64,2.92l-.31,1.89a8.31,8.31,0,0,0-1,1.48,14.87,14.87,0,0,0-.92,2,2.85,2.85,0,0,0,.27.74,4.78,4.78,0,0,1,.37,1.25,27.14,27.14,0,0,0-2.72.58c-.8.22-.88,1-.25,2.27l-.7,1.43a3.45,3.45,0,0,1-.62,1c-.26.3-.37.55-.34.71a2.27,2.27,0,0,1,1.15,2.31,11.23,11.23,0,0,1-.72,2.21c-.31.67-.61,1.37-.89,2.12a2.35,2.35,0,0,0,.37,2.3,19.38,19.38,0,0,1-2.6.29,18.44,18.44,0,0,0-2,.2.73.73,0,0,1-.23.56,30.22,30.22,0,0,0,3.3,1c-.22,1.27-.43,2.48-.65,3.65a11.7,11.7,0,0,1-1.31,3.5,3.3,3.3,0,0,1-1.72.93c-.8.23-1.7.51-2.69.84.47.28,1,.63,1.59,1.05a23,23,0,0,0,1.93,1.26c.06.34,0,.53-.22.56a5.46,5.46,0,0,0-2.66,2.93,6.59,6.59,0,0,0,.65,4,5.85,5.85,0,0,1-.53,4.42c-.77,1.61-1.46,3.17-2.05,4.66a7.21,7.21,0,0,1-.47,1,1.39,1.39,0,0,0-.15.94c.86,1.44.39,2.65-1.39,3.64q-2.12,1.67-.6,3.25c.46.28.79,1,1,2.2.25,2.76-1.44,3.91-5,3.46a.51.51,0,0,1-.09.4.48.48,0,0,0-.09.41c1.33.49,2.44.93,3.34,1.31a2.2,2.2,0,0,0-.57,1.28,2.33,2.33,0,0,1-.57,1.29,11.06,11.06,0,0,1-2.49,2,16,16,0,0,1,1.41,1,15.36,15.36,0,0,0,1.41,1c-.29.76-.59,1.47-.9,2.14s-.61,1.38-.9,2.13a44.55,44.55,0,0,0-1.42,13.2,83,83,0,0,1-.48,13.24,15.1,15.1,0,0,0,.1,4.44,8.42,8.42,0,0,1-.76,4.85,5.51,5.51,0,0,0-.51,4.55,13.16,13.16,0,0,1,.5,4.9c-.22,1.26-.43,2.48-.65,3.65s-.45,2.39-.65,3.65A6.89,6.89,0,0,0,832,597a11.85,11.85,0,0,0,1.62,4.19,38.13,38.13,0,0,1,1.65,4.33,15.86,15.86,0,0,0,1.91,4,4.09,4.09,0,0,0,2.14,1.62l3,1a1.64,1.64,0,0,0,1.43.15,8.34,8.34,0,0,1,1.34-.35q-1.5,4.19-8.48,3.5a12.88,12.88,0,0,1-3.12-.94,12.86,12.86,0,0,0-3.12-.93,21.34,21.34,0,0,1-9-4.55,67.2,67.2,0,0,1-6.58-6.79,25.18,25.18,0,0,1-5.15-10.44q-1.39-6.6-2.14-13L806,565.61a18,18,0,0,0,.14-2c0-.61.71-1,2.13-1.27.2,0,.38-.23.53-.61s.29-.75.44-1.12c0-.17-.26-.27-.67-.29a2,2,0,0,1-1-.23,3.31,3.31,0,0,0-.73-.67.91.91,0,0,1-.43-.72c0-2.28.13-4.58.27-6.88s.23-4.59.28-6.88c0-.89.07-1.68,0-2.37a16.81,16.81,0,0,1,.1-2.12q.43-4.55.84-9.34t1.13-9.39c.09-.71.19-1.35.31-1.89a13.67,13.67,0,0,1,.62-2,1.47,1.47,0,0,1,.79,0,.69.69,0,0,0,.47.05,3.55,3.55,0,0,0-.31,1.89,3.25,3.25,0,0,0,.32,1,4.16,4.16,0,0,1,.32,1,3.17,3.17,0,0,1,1-.82,1.28,1.28,0,0,0,.65-.76c1-1.73.45-3-1.54-3.69a2.9,2.9,0,0,1-1.19-.59.81.81,0,0,1-.32-1q.95-5.69,2-11.38t2.34-11.43q.68-3.53,1.54-6.82t1.84-6.88q1.73-4.75,3-9.17c.88-2.95,1.88-6,3-9.18q1.42-4.69,2.7-9.25t3.06-9.05q1-3.06,2.27-6.15t2.58-6.21a2.8,2.8,0,0,1-1,.43.9.9,0,0,0-.67.64q-5.37,5.36-9.82,10.55c-2.83,3.1-5.61,6.13-8.34,9.13s-5.42,6-8,9.07a41.29,41.29,0,0,0-2.73,4.26c-.81,1.45-1.6,2.94-2.39,4.47a61.32,61.32,0,0,0-3.66,5.33,37.45,37.45,0,0,1-3.69,5.08,15.76,15.76,0,0,1-1.49,2.35c-1.31,2.14-2.68,4.29-4.09,6.45s-2.78,4.32-4.09,6.46a5.28,5.28,0,0,0-.64,1.82,5.62,5.62,0,0,1-.64,1.8l-2,5.06q-1.89,3.74-4.08,7.51c-1.45,2.52-2.92,5-4.38,7.56q-1.18,2.3-2.67,4.64t-2.67,4.65a15.14,15.14,0,0,0-1.45,3.52,25,25,0,0,1-1.41,3.78c-1.09,2.29-2.23,4.53-3.42,6.74s-2.33,4.55-3.38,7a117.11,117.11,0,0,0-4.47,10.85c-1.27,3.63-2.65,7.32-4.11,11.07-.77,1.7-1.59,3.32-2.48,4.87a26.71,26.71,0,0,0-2.18,4.82,10.2,10.2,0,0,1-3.8,5.35,28.39,28.39,0,0,0-4.89,4.47,11.83,11.83,0,0,1-2.68,1.75,5.21,5.21,0,0,1-3.88.12,43.86,43.86,0,0,0-7.33-1.82,15.75,15.75,0,0,1-6.49-2.47,34,34,0,0,1-3.16-2.11,9.06,9.06,0,0,1-2.29-2.51,20.19,20.19,0,0,1-5.2-9.79q-1-5.22-1.89-10.6a32.93,32.93,0,0,1,.16-6.6,59.47,59.47,0,0,0,.47-6.65,38.91,38.91,0,0,1,.65-7.47q1.29-7.31,2.73-14.77t3.37-14.63c1-3.84,2.22-7.68,3.58-11.49s2.76-7.6,4.23-11.35q2.85-7.29,5.7-14.74t6-14.78Q732.27,453.1,735,447c1.84-4.07,3.77-8.11,5.82-12.13a7.72,7.72,0,0,1,2.84-3.61,6.81,6.81,0,0,1,5.17-.85c.39,2.38,1.75,3,4.07,2a24,24,0,0,1,5-1.74,6.12,6.12,0,0,1,4.88,1.17,8.49,8.49,0,0,1-4.11.67q-2.37-.13-4.42,2.56a36.27,36.27,0,0,1,4.12.38,4.72,4.72,0,0,0,3-.5,5.44,5.44,0,0,1,4.39-.86,21.31,21.31,0,0,0,4.64.69,7.57,7.57,0,0,1,3.45,1,17.14,17.14,0,0,1,3.54,2.57,17.61,17.61,0,0,1,2.72,3.23,5.1,5.1,0,0,1,1,3,12.14,12.14,0,0,1-1.22,4c-.63,1.24-1.25,2.52-1.86,3.85-1.32,2.14-2.53,4.3-3.62,6.5s-2.29,4.44-3.58,6.75-2.46,4.65-3.53,7a34.2,34.2,0,0,1-4.18,6.85,14.45,14.45,0,0,0-2.92,5.07,45.09,45.09,0,0,1-2,5.18l-1,1.22-1,1.22a7.49,7.49,0,0,1-.94.94.84.84,0,0,0-.33.85,6,6,0,0,1-1.6,5.51L749,503.84a5.44,5.44,0,0,0-1.35,4.16c0,1.93.58,3.23,1.73,3.92q-4.26,2.54-4.94,6.05t-1.64,7.1l-.44,1.12q-1.06,3.06-2.16,5.87t-2.2,5.6a7.11,7.11,0,0,0-.68,1.56c-.14.46-.28.88-.42,1.25a3.15,3.15,0,0,0,.32,1,4.08,4.08,0,0,1,.32,1,.65.65,0,0,0,.43-.2.7.7,0,0,1,.44-.2q1.39-2.85,2.63-5.81a20.14,20.14,0,0,1,3.33-5.41,14,14,0,0,0,2.9-5.19,19.25,19.25,0,0,1,2.28-5.1,78.07,78.07,0,0,0,4.21-6.73c1.28-2.31,2.58-4.53,3.9-6.68a3.63,3.63,0,0,1,1.48-1.42c.67-.37,1.19-.67,1.57-.91a13.24,13.24,0,0,0,.49-2.71,5.28,5.28,0,0,1,.84-2.5A127.31,127.31,0,0,0,770.63,487q3.92-6.54,8.22-12.76l.3,0c-.21,0,.28-.22,1.44-.76q-1.37,3.12-2.34,5.76a25.52,25.52,0,0,1-2.46,5,34.2,34.2,0,0,1-3,4.69,44,44,0,0,0-3.25,5,10.85,10.85,0,0,0-1.49,3.26,32.05,32.05,0,0,1-1.15,3.47,1.73,1.73,0,0,0,1.39.82,8.38,8.38,0,0,1,1.7-1.06,3,3,0,0,0,1.35-1.28q3.76-5.6,7.4-11.05T786.16,477c1.55-2,3.15-3.92,4.83-5.78s3.3-3.69,4.87-5.52a19.86,19.86,0,0,0,2.28-3.26,38.42,38.42,0,0,1,2.23-3.52l.22-.56c0-.16.06-.27.26-.3a7.13,7.13,0,0,0,3.87-1.16,11.58,11.58,0,0,0,2.42-2.37,21.54,21.54,0,0,0,1.87-2.93,7.34,7.34,0,0,1,2.22-2.59,17.05,17.05,0,0,0,3.27-2.9l2.62-3.06a3.12,3.12,0,0,0,.69-1.55,3.1,3.1,0,0,1,.68-1.56,26.62,26.62,0,0,0,3.35-2.38,12.69,12.69,0,0,0,3.65-4.41,32.49,32.49,0,0,0,2-5.18,1.44,1.44,0,0,1,.51-.73,2.66,2.66,0,0,0,.54-.49,29.61,29.61,0,0,0,7-6.91,16.46,16.46,0,0,1,2.35-2.75l2.69-2.54a.72.72,0,0,0,.22-.57,1.84,1.84,0,0,0,.36-.58,2.15,2.15,0,0,1,.37-.58l0-.26c.29-.74.54-1.44.75-2.09a4.53,4.53,0,0,1,.83-1.58,7.06,7.06,0,0,1,.75-1.17l.79-.92a6.44,6.44,0,0,0,1.8-4.23,9,9,0,0,1,2.08-3.49c1-1,2-2.08,3.08-3.13.87-1,2.37-1.35,4.51-1l7.66.06a11.45,11.45,0,0,1,7.05,2l3.37,2.46a7.58,7.58,0,0,0,4.42,1.25C878.9,400.64,879.12,400.69,879.15,400.86ZM757.94,522.33c.79-1.53,1.58-3,2.39-4.46s1.6-2.93,2.39-4.47a3.09,3.09,0,0,0-.67-.28,2.23,2.23,0,0,1-.67-.28q-1.85,2.14-3.37,4.22c-1,1.4-2,2.88-3,4.44a3,3,0,0,0,.28.74c.16.32.34.47.54.43C756.88,522.85,757.59,522.74,757.94,522.33Zm53.95,52.81c.7-.81,1-1.31,1-1.48a19.76,19.76,0,0,0,.6-3,9.89,9.89,0,0,0,0-2.88c0-1.4,0-2.85.07-4.35s-.83-2.79-2.67-3.89c-.19,1.44-.32,2.81-.42,4.14s-.23,2.71-.41,4.14c-.35-.82-.83-1.88-1.46-3.18l-1.21.2.37,2.3a2.25,2.25,0,0,0,.9,1.69,4.25,4.25,0,0,1,2.07,2.15,4.4,4.4,0,0,1,0,2.51.64.64,0,0,0,.29.87A3.36,3.36,0,0,1,811.89,575.14Zm41.19-139.29a1.42,1.42,0,0,0,.23-1.48,2.05,2.05,0,0,0-.65-1.08,12.59,12.59,0,0,1-1.84.17,1.9,1.9,0,0,0-1.46.64,10.72,10.72,0,0,0-2.07,2.57c-.49.86-1,1.77-1.43,2.72-1.06,2.45-2,4.89-2.86,7.3s-1.81,4.85-2.86,7.29q-1.07,3.06-2.41,6.3t-2.36,6.55c-.7,2.05-1.37,4.17-2,6.37s-1.26,4.32-1.89,6.35a17.62,17.62,0,0,1-.93,2,17,17,0,0,0-.92,2c-.62,2.55-1.25,5.11-1.87,7.66l-1.86,7.65c-.63,2.56-1.35,5.12-2.17,7.7s-1.55,5.16-2.17,7.71q-.5,2.7-.84,5.39c-.22,1.78-.39,3.65-.48,5.59-.33,1.8-1.34,2.67-3,2.59q.57-2.19,1.11-4.65a39.34,39.34,0,0,0,.76-4.85,15.42,15.42,0,0,0,.18-3.7,15,15,0,0,1,.17-3.7,14.56,14.56,0,0,1,1-3.44q.69-1.56,1.35-3.24a3.41,3.41,0,0,0,.1-2.25,3.35,3.35,0,0,1,.09-2.25c.54-1.83,1.08-3.58,1.64-5.25s1.09-3.5,1.6-5.51a37.5,37.5,0,0,0,.86-4.21,14.89,14.89,0,0,1,1.22-4c1.06-2.44,2-4.79,2.91-7a19.58,19.58,0,0,0,1.34-7.05,4.31,4.31,0,0,1,.68-2.21,9.36,9.36,0,0,0,1-2c.55-1.49,1-2.88,1.41-4.17s.88-2.68,1.47-4.17a2.35,2.35,0,0,1-1.61-.27,10.86,10.86,0,0,0-1.39,3.25,3.74,3.74,0,0,1-1.8,2.53q-2.1,1.65-1.51,3.39a3.62,3.62,0,0,1-.36,3.21l-2,.33a20.52,20.52,0,0,0,.23,3.24,20.62,20.62,0,0,1,.24,3.24q-3.64-.71-5.1.19c-1,.6-1.81,2-2.52,4.21s.82,3.72,4.59,4.5c-.31.75-.74,2.05-1.29,3.88a7.44,7.44,0,0,1-1.81-1.27,27.65,27.65,0,0,0-3.46,2.4,5.44,5.44,0,0,0-.88,2.25,9.6,9.6,0,0,1,2.51-.15,8.45,8.45,0,0,1,2.59.1l-2.29.77a16.54,16.54,0,0,0-1.64.66,12.58,12.58,0,0,0,1.56.79,21.39,21.39,0,0,1,1.93,1l-2.65,1.35a6.12,6.12,0,0,0-2,1.5,8.89,8.89,0,0,0-2.19,3.77c0,.35.43.72,1.12,1.13q.82-.66,1.5-1.29a17.16,17.16,0,0,0,1.2-1.25l.79-.92a11.81,11.81,0,0,1-.54,3.5c-.36,1.11-.65,2.21-.9,3.3a28.2,28.2,0,0,0-.56,3.37,31.55,31.55,0,0,1-.57,3.37q-.51,2.71-.89,5.27a28.33,28.33,0,0,1-1.25,5.06,9.89,9.89,0,0,1-1.18,2.55c-.51.79-1,1.66-1.49,2.61-.69,1-1.36,2-2,3.09s-1.33,2.1-2,3.08l1,.62a7,7,0,0,1,1.16-.59,2.79,2.79,0,0,0,1.11-.83l.17,1q0,3.93-.26,7.92t-.27,7.91c-.1,1.94-.19,3.88-.29,5.82s-.2,3.89-.29,5.82a21.47,21.47,0,0,0,3.86.68,11.31,11.31,0,0,1,.84,8,13.29,13.29,0,0,0,.19,7.84,13.7,13.7,0,0,1,.52,5,38.19,38.19,0,0,0-.1,5.14,3.66,3.66,0,0,0,.9,1.68,7.36,7.36,0,0,0,1.27-1.78,14.21,14.21,0,0,0,.52-2.58,5.27,5.27,0,0,1,.86-2.37,4.16,4.16,0,0,0,.34-2.68c-.22-.66-1.27-1.1-3.19-1.31a30.88,30.88,0,0,1,3-1.29,20.83,20.83,0,0,0,.75-4.32,4.84,4.84,0,0,1,1.53-3.4,13.07,13.07,0,0,0,2.1-2.44,5.38,5.38,0,0,0,.79-2.76,11,11,0,0,0-.42-1.64,10.4,10.4,0,0,1-.43-1.63c-.35.41-.69.86-1,1.35a14.87,14.87,0,0,1-1,1.35l-.87.4a5.32,5.32,0,0,1,.14-2,10.15,10.15,0,0,0,.27-2.14,1.35,1.35,0,0,0-.84-1.31c-.56-.25-1.77-.14-3.63.34.28-.92.57-1.76.88-2.51s.61-1.58.89-2.51c.59.95,1,1.71,1.35,2.27a20.06,20.06,0,0,0,1.31,2c.48-.83.89-1.52,1.22-2s.65-1.1,1-1.72l.8,4.85c1.36-1.8,2-3,1.93-3.46s-.84-1.26-2.25-2.25a1.87,1.87,0,0,1-.85-1.42,6.82,6.82,0,0,1,0-2.07,5.58,5.58,0,0,1,.66-1.67,5.23,5.23,0,0,0,.62-1.92,1.42,1.42,0,0,0-.21-1.27,10.28,10.28,0,0,0-.81-1.16.78.78,0,0,1-.48-.05.73.73,0,0,0-.48-.06,7.56,7.56,0,0,0-.68,1.55c-.14.45-.35,1.05-.64,1.79-1.24-1.18-1.86-2.12-1.87-2.81a6,6,0,0,1,1-2.76c1.32-2.11,2.56-4.36,3.74-6.72s2.48-4.86,3.92-7.52l-5.17.84q.84-2.49,1.53-5a48.34,48.34,0,0,1,1.57-4.72c-.06-.34.32-.58,1.13-.71,1.58-.61,2.52-.55,2.85.19a4.86,4.86,0,0,1,.4,2.42l1.3.32a18.26,18.26,0,0,1,2.66-4.11q.81-4.33,1.19-8.47a29.07,29.07,0,0,1,2.12-8.35,49.06,49.06,0,0,0,1.65-6,46.39,46.39,0,0,1,1.66-6.05,64.42,64.42,0,0,1,2.24-7.32,68.74,68.74,0,0,0,2.23-7.32q.57-2.19,1-4.62a21.76,21.76,0,0,1,1.26-4.67c.7-2,1.5-4.18,2.38-6.43s1.67-4.38,2.38-6.42a1.88,1.88,0,0,0-.26-.61,2.62,2.62,0,0,1-.3-.87,32.22,32.22,0,0,1-3.47,4.5,4.34,4.34,0,0,0-.92,4.88,1.4,1.4,0,0,1-.44,1.12c-.59,1.5-1.2,2.87-1.82,4.1s-1.26,2.53-1.87,3.85a28.1,28.1,0,0,1-1.44,2.6,26.17,26.17,0,0,0-1.45,2.6,9.94,9.94,0,0,1-1.21,2.17c-.51.7-.62,1.28-.33,1.76a3.44,3.44,0,0,1,.68,2.25,2.67,2.67,0,0,1-1,1.48c-.55.44-1.16.89-1.81,1.34a4.73,4.73,0,0,0-1.46,1.55c.18-1.42.37-2.77.59-4a10.9,10.9,0,0,1,1.28-3.62q1.09-2.81,2.2-5.61a21.87,21.87,0,0,1,2.89-5.2c1.19-1.59,1.2-2.82,0-3.67l1.18-1.38a5.07,5.07,0,0,0,.88-1.32q1.89-5.57,3.79-11.12A65.76,65.76,0,0,1,853.08,435.85Zm-35.86,95.64a6.61,6.61,0,0,1-1.06-.75,7,7,0,0,0-1.06-.74,16.65,16.65,0,0,1,2.14-2.19,23.29,23.29,0,0,1,2.3.67,7.63,7.63,0,0,0,2.25.42c1.27.14,2,.55,2.23,1.21a6.28,6.28,0,0,1,.22,2.32,7.22,7.22,0,0,1-1.64-.52,2.63,2.63,0,0,0-2.67-.08,3.62,3.62,0,0,0-1.34,2.32c-.18,1.43-.42,2.82-.72,4.18s-.53,2.76-.72,4.19a11,11,0,0,0-.27,3.06,11.36,11.36,0,0,1-.28,3.06c-.19,1.44-.42,2.87-.7,4.32s-.52,2.88-.69,4.31c-.5-.44-.73-1.85-.7-4.22s.13-5,.29-7.78a60.61,60.61,0,0,1,1-8.17A34.78,34.78,0,0,1,817.22,531.49ZM831,545c1-.51,1.81-1,2.56-1.47s1.61-1,2.57-1.47a13.06,13.06,0,0,1-2.77-.73,19.81,19.81,0,0,0-2.47-.77,2.32,2.32,0,0,0,.12-1.2,2.21,2.21,0,0,1,.11-1.2l-.73-.67a18.71,18.71,0,0,0-2.09,1.52,13.49,13.49,0,0,1-2.4,1.58,3.31,3.31,0,0,0-.73-.67,2.74,2.74,0,0,1-.74-.67.79.79,0,0,0-.44.21.67.67,0,0,1-.43.2,8.93,8.93,0,0,1,.73,1.59,3.62,3.62,0,0,0,1,1.53,1.38,1.38,0,0,0,1,.11l1.21-.2q3.22-1.32,3.42,1.8Zm-3.85-10.13,2.73.47c.75.14,1.56.32,2.43.52a.8.8,0,0,0,.78,0,2.64,2.64,0,0,1,.74-.26c.29-.74.21-1.25-.26-1.53a3.57,3.57,0,0,0-3.37-1.55A4.44,4.44,0,0,0,827.14,534.84Zm6.45,18.36a7.55,7.55,0,0,1-1.65-.51,7.56,7.56,0,0,0-.68,1.55c-.14.46-.27.88-.42,1.25-.18.21-.05.36.39.46a1.94,1.94,0,0,1,1,.62Zm-2.38-26.37c.23-1.09.47-2.14.73-3.14s.48-2.13.69-3.39a7.5,7.5,0,0,0-3.38,3.17c-.72,1.35-.8,2.41-.25,3.2.08.51.53.69,1.34.56,0,.17.19.19.48,0S831.23,527,831.21,526.83Zm2-27.11a2.35,2.35,0,0,1,1.85,1.8c.14.86-.44,1.74-1.75,2.65a3.35,3.35,0,0,0-1.31,2.45,8.32,8.32,0,0,1-.37,2.55,11.61,11.61,0,0,0-.45,3,18.05,18.05,0,0,1-.4,3.22q-2.87-2.16-2.16-6.47A20.18,20.18,0,0,1,833.24,499.72Zm-6.77-24.08a6.33,6.33,0,0,1-.7,1.43,6.09,6.09,0,0,0-.87,1.33,6.46,6.46,0,0,1-.88,1.32l-.82-1.18a11.2,11.2,0,0,1,.45-2C823.85,475.86,824.79,475.57,826.47,475.64Zm10.7,40a9.16,9.16,0,0,1,1.8-5.15,3.94,3.94,0,0,0,0-4.85c-.8,1.53-1.57,3.14-2.33,4.84s-1.53,3.4-2.29,5.1a6.41,6.41,0,0,1,1.24-.07C836,515.5,836.53,515.55,837.17,515.61Zm-.25-25.94c-1.76-.58-2.64-1.14-2.62-1.67s1.17-2,3.45-4.5a26.24,26.24,0,0,0-.55,3.37C837.11,487.85,837,488.78,836.92,489.67Zm3.54-46.76a1.72,1.72,0,0,0-1-.36,4.21,4.21,0,0,0-2.29,2.21c-.37.94-.68,1.86-.95,2.78q.16,1,1.08.87c.46.28,1,.11,1.48-.51.27-.91.54-1.74.84-2.49S840.19,443.83,840.46,442.91ZM847,484.35q3-.5,2.58-3.31a2,2,0,0,1-.54-.43,2.28,2.28,0,0,0-.54-.44,28.06,28.06,0,0,0-2.66,2.8c-.21,0-.11.28.28.74S846.75,484.39,847,484.35Zm3.64-52a8.38,8.38,0,0,0,3.73-3.89c1.12-2,1.38-3.6.78-4.72a7.16,7.16,0,0,0-3.44,3.71A8.25,8.25,0,0,0,850.59,432.32Z"/><path class="cls-15" d="M940.75,397.57a22.31,22.31,0,0,1,7.83,4l6.48,5.24c.52.61,1,1.27,1.58,2a3.42,3.42,0,0,1,.7,2.37,53,53,0,0,0,0,5.91,20.38,20.38,0,0,1-.8,6.56,63.42,63.42,0,0,1-4.75,8.12,46.52,46.52,0,0,0-4.45,8.08c-.82,2.59-1.69,5.22-2.6,7.91s-1.89,5.34-2.91,8a12.31,12.31,0,0,1-.56,2.32c-.28.83-.55,1.71-.82,2.62a10.8,10.8,0,0,0-1.49,3.27,8.55,8.55,0,0,1-1.8,3.31,22.21,22.21,0,0,1-2.72,6.22c-.83,1.36-1.61,2.59-2.37,3.67s-.61,2.33.46,3.73c.48.45.46,1.24-.08,2.38a5.24,5.24,0,0,1-2.25,2.47q-3,2.85-1,5.41c1.24,1.2,1.23,2.07,0,2.63a5,5,0,0,0-2.6,2.26,4,4,0,0,0,1,.49l1,.23c-.47,1-1,2-1.54,3a21.37,21.37,0,0,0-1.45,3.52,64.09,64.09,0,0,0-3.57,8.72,8.27,8.27,0,0,0-.53,2.45,2.28,2.28,0,0,0,.64,2,3.91,3.91,0,0,1,1,4.3,4.62,4.62,0,0,0-1.24,3.87c0,1.06-.1,2-.19,2.66s-.89,1.55-2.4,2.49c-.18.21-.2.69-.08,1.46a10.64,10.64,0,0,0,.71,2.38,7.1,7.1,0,0,0-1.6,2.62c-.2.73.31,1.61,1.52,2.64a4.72,4.72,0,0,1-.07,1.45,6.2,6.2,0,0,0,0,2c-.1,1.94-.14,3.92-.12,5.92s0,4-.12,5.93a16.31,16.31,0,0,0-2.63.17,11.54,11.54,0,0,1-2.32.11.93.93,0,0,1,0,.67.5.5,0,0,0-.1.41,13.54,13.54,0,0,0,2.13.57c.75.14,1.56.31,2.43.52a16,16,0,0,0,.15,4.7,7.63,7.63,0,0,1-1.6,5.51,1.4,1.4,0,0,0-.22,1.48,2.11,2.11,0,0,1,.07,1.43c-.09.71-.14,1.33-.16,1.86a2.19,2.19,0,0,1-.55,1.4q-2.44,2.25-1.54,3.93c.6,1.13,1.21,2.34,1.85,3.63.33.82.74,1.67,1.2,2.56a9.3,9.3,0,0,1,.93,2.87q1.2,3.46-3,2.85a49.81,49.81,0,0,1-11.07-2.78,12.11,12.11,0,0,1-7.1-7.1,85.65,85.65,0,0,0-3.42-9.41,32.69,32.69,0,0,1-2.55-9.82c-.5-5.51-.83-11.05-1-16.63a136.76,136.76,0,0,1,.51-16.88,60,60,0,0,1,.35-8.32c.31-2.58.62-5.39,1-8.42.56-2.89,1.14-5.74,1.72-8.55s1.14-5.74,1.68-8.81q1.88-9.48,4.12-18.65t4.72-18.75q2-7.14,4.34-14.49t4.64-14.54q2.37-6.42,4.13-12.88t3.52-12.78a13.8,13.8,0,0,1,.7-1.43,1.69,1.69,0,0,1,1.09-1A35.84,35.84,0,0,1,940.75,397.57ZM901.61,535.74a2.46,2.46,0,0,0-.28-1.67c-.3-.56-.61-1.16-.92-1.81-.3.75-.54,1.44-.75,2.09a10,10,0,0,1-.79,1.83l0,.26q-.64,5.61-1,11a28.11,28.11,0,0,0,1.48,10.92c.22.13,0,.69-.67,1.68a23.52,23.52,0,0,1-1.52-3.56,16.2,16.2,0,0,0-1.86-3.76,1.94,1.94,0,0,1-.12-1.68,13.7,13.7,0,0,0,.46-1.92,2.43,2.43,0,0,0-.27-1.66,3.62,3.62,0,0,0-2.08-1.23q.36,6,1,11.65t1.58,11.54a9.48,9.48,0,0,0,1.12,2,11.81,11.81,0,0,1,1.08,1.79c1.62-1.49,2.19-2.8,1.69-3.95s-.95-2.29-1.35-3.45a6.72,6.72,0,0,1-.05-2.22,4.44,4.44,0,0,1,1.51-2.22,4.6,4.6,0,0,0,2-3.34,4.69,4.69,0,0,0-1.48-3.3,10,10,0,0,1,1.27-2.7,3.33,3.33,0,0,0,.71-2.34,11.65,11.65,0,0,1-1.13-4,9.44,9.44,0,0,1,.7-4.31A8.66,8.66,0,0,0,901.61,535.74Zm-8.12,0c-.06.88-.14,1.73-.21,2.52s-.15,1.65-.21,2.53a5.83,5.83,0,0,1,2.21.16c.07-.88.09-1.67.08-2.37s0-1.49.08-2.38c0-.17-.25-.26-.67-.28A7.17,7.17,0,0,1,893.49,535.76Zm16.41-31.3a2.94,2.94,0,0,0,2-1,2.83,2.83,0,0,0,.53-1.53c0-.53,0-1.06.06-1.59a3.59,3.59,0,0,1,.5-1.65,8.34,8.34,0,0,1-3.21-.53,21.12,21.12,0,0,1-3.94-1.19c-.15.38-.29.8-.42,1.25s-.26,1-.38,1.51q-1,3.31-2,6.89a74.15,74.15,0,0,0-1.6,7.35q-.68,3.53-1,7.12c-.23,2.4-.56,4.86-1,7.38a1.13,1.13,0,0,0,.19,1.14,9.56,9.56,0,0,0,.79,1c.38-.23.86-.48,1.44-.76s.84-.57.78-.91a5.27,5.27,0,0,1,.79-3.8,4.28,4.28,0,0,0,.47-3.76c-.29-.48-.18-1.15.3-2A21.7,21.7,0,0,0,905.4,517a18.73,18.73,0,0,0,2.32-3c-.75-.75-1.43-1.38-2-1.9a2.48,2.48,0,0,1-1-1.28,29.65,29.65,0,0,1,1.48-4.31,18.2,18.2,0,0,0,1.21-4,5,5,0,0,1,1.28,1.1A2.31,2.31,0,0,0,909.9,504.46Zm-2.16,5.86c1.88.05,3-.23,3.45-.83a1.7,1.7,0,0,0-.18-2.07c.14-.37,0-.62-.28-.74a6.16,6.16,0,0,1-1.19-.59,9.51,9.51,0,0,0-1,2.14C908.28,508.88,908,509.58,907.74,510.32Zm5-13.41c1-.17,1.58-1.09,1.73-2.78a9.46,9.46,0,0,0-.78-4.73q-5,1.88-5.5,2.61c-.34.5-.09,1.37.74,2.64a3.43,3.43,0,0,0,1.66,1.56A6.45,6.45,0,0,0,912.72,496.91Zm85.5-169.66a11.14,11.14,0,0,1-.26,7.92,26.69,26.69,0,0,1-5,7.38,31.46,31.46,0,0,1-4.11,4.48,51.14,51.14,0,0,0-4.41,4.53,12.35,12.35,0,0,0-3.1,3.92q-.93,2-2.11,4.29a5.15,5.15,0,0,1-4.36,3.86,6.87,6.87,0,0,0-2.45,2.24,22.7,22.7,0,0,0-1.7,2.9c-.8,1.54-1.61,2.93-2.44,4.21a8.93,8.93,0,0,1-3.85,3.12,3.58,3.58,0,0,0-1.54,2.09q-2,3-3.51,3.33t-4.22-1a13.22,13.22,0,0,1-7.47-7.43,15.9,15.9,0,0,1-.51-10.68q4.27-10.14,8.39-20.27t8.68-20.32a25,25,0,0,1,2.51-5.66q1.57-3.66,3.78-4.56t8.18-.55c-.55.4-1.07.79-1.52,1.16s-.87.76-1.23,1.12c.75.76,1.21,1,1.39.83a16.79,16.79,0,0,1,6.34-1.31,10.52,10.52,0,0,1,5.64,2c.51.61,1,1.11,1.33,1.48a2.42,2.42,0,0,1,.69,1.33,10.32,10.32,0,0,0,.92,1.82,5.45,5.45,0,0,0,2.1,1.36,8,8,0,0,1,2.83,2.95A6.87,6.87,0,0,1,998.22,327.25Z"/><path class="cls-15" d="M1074.79,447.46a3.26,3.26,0,0,0-1.2,2.17c-.08.8-.17,1.56-.25,2.27a3.1,3.1,0,0,1-.95,1.86c-.53.53-1.66.67-3.37.42a10,10,0,0,1,1.6,2.11c.2,1.2.34,2.4.44,3.61a7.34,7.34,0,0,0,1,3.26q2.67,4.81,5.79,9.58c2.08,3.17,4,6.35,5.79,9.57a58.53,58.53,0,0,0,5,7.73q2.76,3.63,5.84,7.06,2.24,2.26,4.19,4.58c1.29,1.54,2.59,3.17,3.92,4.88a1.44,1.44,0,0,1,.78.93c-.77,1.7-.61,2.95.46,3.74s2.07,1.54,3,2.26c1.93,1.61,3.79,3.11,5.57,4.48a37.18,37.18,0,0,1,5,4.58,3.22,3.22,0,0,1,.95,2l.42,2.56a5.57,5.57,0,0,1,0,1.18,1.12,1.12,0,0,0,.64,1.08q5.2,3.09,10.1,6.37c3.27,2.18,7.42,3.29,12.42,3.35a6,6,0,0,1-6.31,3.4q-4.43-.33-9.09-.22a51.51,51.51,0,0,1-17.24-2.29,42.74,42.74,0,0,1-7.71-3.2A128.6,128.6,0,0,1,1070.72,514q-6.6-6-12.52-12.53t-12.26-12.84a14,14,0,0,0-1.86-.87,2,2,0,0,0-1.73-.11q-2,1.38-3.75,2.85c-1.19,1-2.43,2-3.71,3.1,2.19.69,2.85,1.51,2,2.44s-1.78,1.91-2.65,2.93a56.83,56.83,0,0,1-4.12,4.36,54.77,54.77,0,0,0-4.13,4.35,14.85,14.85,0,0,0-2.22,2.6,30.12,30.12,0,0,1-2.19,2.86l.35.2a.66.66,0,0,0,.38.46c-.82,1.37-1.6,2.59-2.36,3.68s-1.58,2.14-2.45,3.16a38.57,38.57,0,0,0-4.47,8,14.91,14.91,0,0,1-6.2,6.93,3.76,3.76,0,0,0-1.57,1.84c-.3.75-.67,1.6-1.14,2.55a16.74,16.74,0,0,1-1.6,2.63,5,5,0,0,1-3.33,1.59c-.64-.07-1.39.41-2.26,1.42q-2.76,4.14-5.54,8.14a14.64,14.64,0,0,0-2.55,9.22,13.83,13.83,0,0,1-.76,4.86,22.83,22.83,0,0,0-1.07,4.9,4.67,4.67,0,0,0,.19,2.07,21.51,21.51,0,0,1,.61,2.78,7.22,7.22,0,0,0-2.45.27,4.33,4.33,0,0,1-2.5,0,22.65,22.65,0,0,1-7.74-4.37,13.35,13.35,0,0,1-4.13-7.07,41.13,41.13,0,0,1,0-18.92,116.45,116.45,0,0,1,6-18.34c1.21-2.82,2.36-5.59,3.47-8.32a47.21,47.21,0,0,1,4.17-7.91q7.7-12,15.47-23.7T1016,465.66a36.81,36.81,0,0,1,3.19-4.34q1.7-2,3.23-4.08a3.5,3.5,0,0,0,.46-4.8,41.11,41.11,0,0,1-2.9-4.39q-1.32-2.28-2.65-4.69-2.24-4.1-4.66-8.43t-4.71-8.69q-4.08-7.73-8.14-15.35t-8.44-15.3a4.71,4.71,0,0,1-.86-2.35c0-.61.66-1.38,2-2.3,1.51-.94,2.93-1.79,4.26-2.53a10.29,10.29,0,0,1,5.13-1.11A8.28,8.28,0,0,0,1006,386a24.61,24.61,0,0,1,4.33-2.15l1.74-.82a1.62,1.62,0,0,1,1.56,0,11.39,11.39,0,0,0,7.43.49,18.2,18.2,0,0,1,7.25-.53q2.82.06,6.53,2.73c2.48,1.78,4,3.43,4.41,4.93,1,3.86,2.08,7.67,3.12,11.44s2.08,7.59,3.13,11.45a32.07,32.07,0,0,0,1.58,3.94q.95,1.95,2,4.41a2.87,2.87,0,0,1,1.26-.87,2.94,2.94,0,0,0,1.27-.86l15.85-17.59,11.17-11.81,11.18-11.82q6-5.46,11.8-10.88t11.8-10.87q3-2.6,6.21-5a12.8,12.8,0,0,1,7.89-2.35c.84,0,1.57.07,2.19.07a3.61,3.61,0,0,1,2,.67,14.75,14.75,0,0,1-1.82,1.29c-.67.39-1.37.84-2.12,1.34l.12.77a15.51,15.51,0,0,1,2.15-.22,15.36,15.36,0,0,0,2.15-.22c1.62-.27,3.35-.51,5.2-.72a6.34,6.34,0,0,1,4.91,1.42,2.23,2.23,0,0,1,1,1.15,2.19,2.19,0,0,0,1,1.15,1.81,1.81,0,0,1,.45.85.83.83,0,0,0,.41.59c1.36.65,2.72,1.35,4.09,2.08a22.44,22.44,0,0,0,4.35,1.78c2.8.59,3.55,1.95,2.24,4.1a16.58,16.58,0,0,0,1.5,1.58l1.48,1.34c1.31,1.71,1.94,3,1.88,3.88s-1,2.18-2.8,3.88q-3,2.6-5.82,5.41t-5.78,5.68a19.4,19.4,0,0,1-2.18,1.93q-3.15,1.83-6,3.22c-1.94.93-3.94,2-6,3.22q-2.24,1.68-4.14,3.3t-4.15,3.31q-2.22,1.68-4.33,3.07a41.57,41.57,0,0,0-4,3q-3,2.85-5.59,5.9t-5.59,5.9a11.63,11.63,0,0,1-2.31,2.09,25.91,25.91,0,0,0-2.36,1.83c-2.67,2.71-5.32,5.33-7.92,7.86s-5.24,5.15-7.92,7.86a21.46,21.46,0,0,1-11.8,6.14c-.43-.1-.73,0-.89.28a2.18,2.18,0,0,1-.81.78.45.45,0,0,0,.22.36.5.5,0,0,1,.22.36Zm-87.7,82.11c-1.15.54-2.27,1.07-3.32,1.6a12.21,12.21,0,0,0-2.95,2.05,4,4,0,0,0-1.31,2.45,23.35,23.35,0,0,1-.62,2.86c.05.34.47.67,1.25,1s1.73.73,2.85,1.24a43,43,0,0,1-.57-5.42c-.06-1.56,1.36-2.49,4.22-2.79.41-.07.67-.37.79-.92a3.22,3.22,0,0,1,.7-1.42Zm2.55-5.4q1.2-4.14,2.52-7.5c.14-.38.92-.68,2.35-.91,1.3.31,2.1.18,2.43-.4a5.26,5.26,0,0,0,.57-2.2l.63-3.77a11.12,11.12,0,0,1,1.29-3.63c1.13-1.93,2.29-3.78,3.45-5.55l3.51-5.3a4.26,4.26,0,0,0,.19-2.65,4.77,4.77,0,0,0-2.66,1,6.68,6.68,0,0,0-1.33,1.4c-.34.49-.66,1-1,1.6l-4.9,8.16q-2.46,4.08-4.91,8.15c-.3.75-.58,1.54-.86,2.37a11.42,11.42,0,0,1-1.16,2.42,41.06,41.06,0,0,1-2.78,4,50.79,50.79,0,0,0-3,4.31,1.77,1.77,0,0,0-.38,1.5,4.45,4.45,0,0,1,0,1.71.83.83,0,0,0,.5.18,1.06,1.06,0,0,1,.5.18A38.62,38.62,0,0,1,989.64,524.17Zm14.66-13.43c2.31.14,3.8,0,4.47-.34a5.83,5.83,0,0,0,2-2.3,3.17,3.17,0,0,0,.7-1.42c.12-.55.38-.85.79-.92,2.63-.43,4.27-1.57,4.9-3.43a10.84,10.84,0,0,1,3.13-4.71,45.65,45.65,0,0,0,6.57-7.51q2.78-4,5.54-8.12c.67-1,1.3-1.92,1.88-2.81a9.73,9.73,0,0,0,1.27-2.7,1.05,1.05,0,0,0,.1-1.33,3.67,3.67,0,0,1-.52-1.23,11.39,11.39,0,0,1-1.54.13,1.83,1.83,0,0,0-1.45.63,36.51,36.51,0,0,1-5.41,5.09,7.41,7.41,0,0,0-3,6.27l-.79.91-3.93,4.58-3.93,4.59a16.83,16.83,0,0,0-2.26,3.39,28.28,28.28,0,0,1-2.21,3.64c-.85,1.19-1.79,2.39-2.84,3.61Zm3.32-19.71a14.55,14.55,0,0,1,1.83-1.22,5.61,5.61,0,0,0,1.53-1.16,9,9,0,0,0,1.7-2,16.52,16.52,0,0,1,1.67-2.24,4.59,4.59,0,0,0,.74-1.17,4,4,0,0,1,.74-1.17q1.27-1.79,2.5-3.83c.82-1.35,1.65-2.63,2.49-3.82a33,33,0,0,1,3.28-3.82c1.16-1.15,2.36-2.44,3.58-3.86a4.63,4.63,0,0,0,1.19-2.3c.08-.71-.45-1.41-1.6-2.1A47.1,47.1,0,0,0,1021,469q-3.49,4.38-6.67,8.84a70.31,70.31,0,0,0-5.19,8.33C1007.82,488.77,1007.31,490.39,1007.62,491Zm19.56,3.09c-.88,1-1.76,2-2.64,2.93s-1.77,1.91-2.65,2.93a6.12,6.12,0,0,0,1.43,1.07,39.23,39.23,0,0,0,2.45-3.16c.76-1.08,1.57-2.13,2.45-3.15Zm7.38-8.3q-5.13-1-4.55,6.52c.88-1.36,1.63-2.53,2.24-3.51A21.47,21.47,0,0,1,1034.56,485.82Zm40.32-77.74a5,5,0,0,0-1-.49,4.21,4.21,0,0,1-1-.48,11,11,0,0,0-.9,1.19,9,9,0,0,1-.89,1.2,3.94,3.94,0,0,0-.75,1.17,3.84,3.84,0,0,1-.74,1.17q-3.77,3.77-7.36,7.51t-7.31,7.76a2.43,2.43,0,0,0-.51,1.66,15.16,15.16,0,0,1-.12,2.12,15.16,15.16,0,0,1,2.16-1.14,8.34,8.34,0,0,0,1.85-1.09,21,21,0,0,0,2.86-3.49,32.37,32.37,0,0,1,2.56-3.44c1.42-1.46,2.81-2.82,4.16-4.1s2.74-2.63,4.17-4.09a17.93,17.93,0,0,0,1.58-2.75C1074,409.94,1074.42,409,1074.88,408.08Z"/></g></svg>