<svg xmlns="http://www.w3.org/2000/svg" xmlns:xlink="http://www.w3.org/1999/xlink" viewBox="0 0 1216.15 1043.66"><defs><style>.cls-1{font-size:134.82px;font-family:Seravek-ExtraLight, Seravek;font-weight:200;}.cls-1,.cls-16{fill:#fff;}.cls-2{letter-spacing:0.02em;}.cls-3{fill:url(#linear-gradient);}.cls-4{fill:url(#linear-gradient-2);}.cls-5{fill:url(#linear-gradient-3);}.cls-6{fill:url(#linear-gradient-4);}.cls-7{fill:url(#linear-gradient-5);}.cls-8{fill:url(#linear-gradient-6);}.cls-9{fill:url(#linear-gradient-7);}.cls-10{fill:url(#linear-gradient-8);}.cls-11{fill:url(#linear-gradient-9);}.cls-12{fill:url(#linear-gradient-10);}.cls-13{fill:url(#linear-gradient-11);}.cls-14{fill:#ff733f;}.cls-15{fill:none;}.cls-17{fill:#dd003c;}</style><linearGradient id="linear-gradient" x1="353.68" y1="408.22" x2="313.8" y2="309.68" gradientUnits="userSpaceOnUse"><stop offset="0" stop-color="#fff"/><stop offset="0.14" stop-color="#fff" stop-opacity="0.88"/><stop offset="0.45" stop-color="#fff" stop-opacity="0.59"/><stop offset="0.89" stop-color="#fff" stop-opacity="0.12"/><stop offset="1" stop-color="#fff" stop-opacity="0"/></linearGradient><linearGradient id="linear-gradient-2" x1="394.57" y1="539.15" x2="296.73" y2="404.13" xlink:href="#linear-gradient"/><linearGradient id="linear-gradient-3" x1="415.72" y1="3768.26" x2="345.89" y2="3678.57" gradientTransform="matrix(0.78, -0.63, 0.63, 0.78, -2226.21, -2067.38)" xlink:href="#linear-gradient"/><linearGradient id="linear-gradient-4" x1="508.33" y1="617.27" x2="418.29" y2="702.3" xlink:href="#linear-gradient"/><linearGradient id="linear-gradient-5" x1="565.53" y1="643.65" x2="536.3" y2="697.2" xlink:href="#linear-gradient"/><linearGradient id="linear-gradient-6" x1="-5279.16" y1="688.67" x2="-5280.46" y2="754.96" gradientTransform="matrix(-1, 0, 0, 1, -4684.25, 0)" xlink:href="#linear-gradient"/><linearGradient id="linear-gradient-7" x1="-5520.83" y1="408.56" x2="-5560.77" y2="309.87" gradientTransform="matrix(-1, 0, 0, 1, -4684.25, 0)" xlink:href="#linear-gradient"/><linearGradient id="linear-gradient-8" x1="-5480.13" y1="540.49" x2="-5578.12" y2="405.28" gradientTransform="matrix(-1, 0, 0, 1, -4684.25, 0)" xlink:href="#linear-gradient"/><linearGradient id="linear-gradient-9" x1="-4151.14" y1="72.65" x2="-4221.14" y2="-17.26" gradientTransform="matrix(-0.78, -0.63, -0.63, 0.78, -2458.03, -2067.38)" xlink:href="#linear-gradient"/><linearGradient id="linear-gradient-10" x1="-5366.58" y1="618.27" x2="-5456.83" y2="703.49" gradientTransform="matrix(-1, 0, 0, 1, -4684.25, 0)" xlink:href="#linear-gradient"/><linearGradient id="linear-gradient-11" x1="-5309.29" y1="644.65" x2="-5338.52" y2="698.19" gradientTransform="matrix(-1, 0, 0, 1, -4684.25, 0)" gradientUnits="userSpaceOnUse"><stop offset="0" stop-color="#fff"/><stop offset="0.14" stop-color="#fff" stop-opacity="0.88"/><stop offset="0.45" stop-color="#fff" stop-opacity="0.59"/><stop offset="0.89" stop-color="#fff" stop-opacity="0.12"/><stop offset="1" stop-color="#fff" stop-opacity="0"/></linearGradient></defs><title>Logo</title><g id="Nav_Bar" data-name="Nav Bar"><text class="cls-1" transform="translate(482.41 264.4)">THE<tspan x="-113.65" y="92.77">M</tspan><tspan class="cls-2" x="-1.48" y="92.77">Y</tspan><tspan x="68.63" y="92.77">THIC</tspan></text><path class="cls-3" d="M350.4,387.62c-18.27-25.09-29.64-58.38-29.64-94.92a175.24,175.24,0,0,1,3.94-37l-.22.49c-4.12,13.91-36.2,129.18,14.64,180,19.38-19.37,30.69-27.33,30.69-27.33a109.9,109.9,0,0,1-9.05-8.7v0A125.05,125.05,0,0,1,350.4,387.62Z"/><path class="cls-4" d="M253.16,341.64s20.18,136.07,166.5,227.59a112.7,112.7,0,0,1-14.2-54.93q0-2.53.12-5c-55.5-14.35-92.91-55.39-116.83-93.33a273.77,273.77,0,0,1-30.11-60.16C255.68,348.26,253.91,343.17,253.16,341.64Z"/><path class="cls-5" d="M394.53,591.47h0q-3.6-1-7-2a228,228,0,0,1-43.94-17.23c-9.46-4.68-16.9-9.09-22.57-12.59-6.07-3.67-10.2-6.35-11.81-7.1,0,.06.07.11.1.16,2.27,3.39,40.86,59.21,179.11,64.9,3.77-4.36,7.86-8.69,10.37-11.29a111.23,111.23,0,0,1-24.1-22.16c-1.07-1.31-2.09-2.64-3.09-4-24,16.06-51.83,16.63-77.58,10.89l.54.44Z"/><path class="cls-6" d="M474.65,636.33a2.82,2.82,0,0,1-.29.5h0l-.1.12c-3.57,5.87-13.67,16.95-24.81,28.42-19.35,21.57-30.64,32.45-37.19,37.65,62.42-18.47,123.84-96.86,123.84-96.86l-33.87-3.43S478.14,626.67,474.65,636.33Z"/><path class="cls-7" d="M572.72,614.4a138.77,138.77,0,0,1-15.05,48c-15.8,32.3-34.89,46.79-40.06,50.28l-.79.71.56-.12c5.46-2.78,34.59-19.64,60.45-73.41A218.62,218.62,0,0,0,575.34,615Z"/><path class="cls-8" d="M595.92,658.23a110.76,110.76,0,0,0,21.46,62.12,75.63,75.63,0,0,0-15.27,33.56,74,74,0,0,0-1.05,12.44c0,.81,0,1.61,0,2.42,0,.55,0,1.1.08,1.65-3.64,7.44-6,12.09-6,12.09s-2.35-4.63-6-12c.08-1.36.12-2.74.12-4.12,0-1.12,0-2.22-.08-3.33,0-.38,0-.76-.06-1.13a72.79,72.79,0,0,0-7.76-28.69,76.71,76.71,0,0,0-7.74-12.63,109.27,109.27,0,0,0,21.68-65.5C595.37,656.3,595.88,657,595.92,658.23Z"/><path class="cls-9" d="M839.67,387.62c18.27-25.09,29.64-58.38,29.64-94.92a174.59,174.59,0,0,0-3.94-37c.08.17.15.33.23.49,4.11,13.91,36.69,129.68-14.15,180.52-19.38-19.37-30.9-27.67-30.9-27.67s3.6-3.37,8.76-8.86v0A125.05,125.05,0,0,0,839.67,387.62Z"/><path class="cls-10" d="M937.42,342.63S917.23,479.2,770.91,570.72a114.6,114.6,0,0,0,14.2-55.42c0-1.69,0-3.37-.12-5,55.5-14.34,92.91-55.39,116.83-93.33a273.53,273.53,0,0,0,30.11-60.15C934.89,349.26,936.66,344.17,937.42,342.63Z"/><path class="cls-11" d="M796.54,592.47h0q3.6-1,7-2a228,228,0,0,0,43.94-17.23c9.46-4.69,16.9-9.09,22.57-12.6,6.07-3.66,10.2-6.34,11.81-7.09,0,.06-.07.11-.1.16-2.27,3.39-41.86,59.21-180.11,64.9-3.77-4.36-7.36-8.69-9.87-11.29a116.08,116.08,0,0,0,24.6-22.66c1.07-1.31,2.09-2.65,3.09-4,24,16.06,51.83,17.12,77.58,11.39l-.54.44Z"/><path class="cls-12" d="M716.42,637.33c.08.17.19.33.29.5h0l.1.12c3.57,5.87,13.67,16.95,24.81,28.41,19.35,21.58,30.64,32.46,37.19,37.66-63.3-17.92-124.34-96.86-124.34-96.86l34.37-3.43S711.8,628,716.42,637.33Z"/><path class="cls-13" d="M618.35,614.9c2.3,18,7.12,34.56,14.55,48.5,15.8,32.3,34.89,46.79,40.06,50.28l.79.71-.56-.12c-5.45-2.79-34.59-19.64-60.45-73.42A218.68,218.68,0,0,1,615.23,616Z"/><path class="cls-14" d="M760.74,515.08c-1.23,0-2.4-.11-3.52-.23,1-.11,2-.28,2.91-.48Z"/><path class="cls-14" d="M760.74,515.08c-1.23,0-2.4-.11-3.52-.23,1-.11,2-.28,2.91-.48Z"/><path class="cls-15" d="M785.28,510.41c55.5-14.35,92.91-55.39,116.83-93.33a293.93,293.93,0,0,0,15.75-26.89,329,329,0,0,1-31.64,48.88q2.85-14,4.35-28.65C858.08,453.5,815.51,502.6,785.28,510.41Z"/><path class="cls-15" d="M560.24,418.47c4.1-2.66,4.14-8.24,4.14-8.24-4.19,4.16-15.09,8.51-15.09,8.51S556.53,420.86,560.24,418.47Z"/><path class="cls-15" d="M917.86,390.19a293.93,293.93,0,0,1-15.75,26.89c-23.92,37.94-61.33,79-116.83,93.33.08,1.67.12,3.36.12,5.05a110.75,110.75,0,0,1-14.2,54.42C814.64,542.71,847,511.65,871,481.39c53.58-67.59,65.47-131.08,66.63-138C936.4,347.4,930.8,365.66,917.86,390.19Z"/><path class="cls-15" d="M596.72,672.39a108.6,108.6,0,0,1-1.37-13.46,110.7,110.7,0,0,1-21.16,61.69A73,73,0,0,1,588.5,753.1a73.88,73.88,0,0,1,1,12.44c0,.81,0,1.61,0,2.41,0,.56,0,1.11-.08,1.66,3.64,7.44,6,12.08,6,12.08s2.26-4.44,5.76-11.6c0-.38,0-.76-.05-1.14,0-.81,0-1.6,0-2.41a74,74,0,0,1,1-12.45c.06-.31.11-.62.17-.93,0-.08,0-.15,0-.22a73,73,0,0,1,14.27-32.31,110.58,110.58,0,0,1-19.9-48.17A.15.15,0,0,1,596.72,672.39Z"/><path class="cls-15" d="M601.1,512c0-.8,0-1.6,0-2.41,0-.56,0-1.1.08-1.65-3.64-7.44-6-12.09-6-12.09s-2.36,4.63-6,12q.12,2,.12,4.11c0,1.12,0,2.23-.08,3.34,0,.37,0,.75-.06,1.13a73.09,73.09,0,0,1-15.5,40.82,110.75,110.75,0,0,1,21.68,66c0-1.23,0-2.44.06-3.67a110.68,110.68,0,0,1,21.45-62.11,73.06,73.06,0,0,1-14.77-33.06A74,74,0,0,1,601.1,512Z"/><path class="cls-16" d="M473.59,637.88h0c.18-.27.34-.52.49-.77l.11-.12h0c.1-.16.19-.33.28-.49,3.5-6.22,9-13.24,14.24-19.26C359,611.9,316.56,562.89,309.94,554l-1-.48C352.7,623.52,420.24,638.79,473.59,637.88Z"/><path class="cls-16" d="M937.86,342.59h0c0,.17-10.12,67.22-66.89,138.8-24,30.25-56.31,61.31-99.77,88.49a110.75,110.75,0,0,0,14.2-54.42c0-1.69,0-3.38-.12-5.05,30.23-7.81,72.8-56.91,105.29-100a304.09,304.09,0,0,0,1.6-31.28c0-44-9.39-85.47-26-121.74,5.19,17.92,34.75,129.23-15,178.94C831.87,417,820.55,409,820.55,409l-16.62,11.78A111.34,111.34,0,0,1,651.36,509.9a61.36,61.36,0,0,1-12.06-5.82c-20.14-12.53-31.13-35-26.92-49.85a59.11,59.11,0,0,0,60.6-7.06,59.23,59.23,0,0,1-59.48-7.66c-.29-.21,8.72,1,13.36,1A59.07,59.07,0,0,0,663,428.19a58.84,58.84,0,0,1-23.23,4.74c-10.4,0-28.38-7.46-29.5-7.92a59.6,59.6,0,0,0,65.93-26.07,59,59,0,0,1-43.81,19.38c-4.74,0-13.79-3.36-22.24-7-9.73-4.23-18.66-8.85-19.23-9.21-1.45-.8-3-1.63-4.53-2.32-1.26-.58-2.54-1.1-3.85-1.56a44.17,44.17,0,0,0-5.44-1.55,23.08,23.08,0,0,0-3.62-.66,37.73,37.73,0,0,0-4.45-.4c-.65-.05-1.28-.05-1.94-.05h-.4a46,46,0,0,0-27.07,9.07c-.85.63-1.74,1.35-2.54,2a46.88,46.88,0,0,0-16.39,35.68,52.11,52.11,0,0,0,.75,8.56,29,29,0,0,1,51.24,19,53.37,53.37,0,0,1-.63,6c-.6,3-1.31,8.95-2.93,14.46a61.84,61.84,0,0,1-8.61,17.32c-3.12,4.54-8.78,8.79-15.82,12l0,0A111.33,111.33,0,0,1,417.5,493.84q-3.72-4-7-8.36a110.78,110.78,0,0,1-22.59-64,110.22,110.22,0,0,1-18.33-13.06c-2.47,1.82-13.24,10-30.14,26.93C290.76,386.69,318,279,324.09,257.66a292.8,292.8,0,0,0-25.87,121.48A301,301,0,0,0,304,438.31c23.63,30.64,56.6,59.54,101.33,71.1-.08,1.68-.12,3.36-.12,5.05a110.75,110.75,0,0,0,14.2,54.42C273.13,477.36,253,341.79,253,341.79c.43.89,1.21,3,2.36,6a64.77,64.77,0,0,0-2.4-6.27c-10.12,83.76,34.74,139.17,77.55,172.16,16,30.59,37.2,57,62.22,77.48h0l1.64.46h0l-.55-.44c25.76,5.73,53.55,5.17,77.59-10.9q1.49,2,3.08,4a111.18,111.18,0,0,0,24.1,22.15c2.15-2.22,3.5-3.55,3.5-3.55l33.87,3.42s-60.28,77-122.11,96.34c-1.78,1.49-3.28,2.64-4.52,3.48,71.39,1.73,113-31.74,136.52-69.35l0-.09s.06.07,0,.08a100.58,100.58,0,0,1,25-9.71c.92-4.06,1.67-8.22,2.22-12.51l2.11.59A218.68,218.68,0,0,1,577.62,640c-22.79,47.4-48.13,66.11-57.55,71.79h0a45,45,0,0,1-3.95,2.74c27.93-5.92,46.77-19.61,59.39-36.49-2.53,16.62-6.9,33-14.33,40.88,13.33,33.44,34.34,74.87,34.34,74.87s21-41.43,34.4-74.87c-7.46-7.87-11.83-24.28-14.36-40.91,12.27,16.47,30.48,29.89,57.26,36C666,710.39,638,692.87,613,641a220.76,220.76,0,0,1,2.49-24.87l2.12-.59,2.46,11.64a99.79,99.79,0,0,1,22.81,8.7c23.51,37.75,64.61,72,136.2,70.24-1.12-.76-2.45-1.76-4-3-61.21-20.26-120.36-95.77-120.36-95.77l33.86-3.42s1.35,1.33,3.5,3.55a111.18,111.18,0,0,0,24.1-22.15c1.07-1.32,2.09-2.65,3.09-4,23.89,16,51.48,16.62,77.1,11,25.51-20.6,47.18-47.3,63.4-78.29C902.53,481.21,947.53,426.05,937.86,342.59ZM560.24,418.47c-3.71,2.39-11,.27-11,.27s10.9-4.35,15.09-8.51C564.38,410.23,564.34,415.81,560.24,418.47Zm56.39,302.16a73,73,0,0,0-14.27,32.31c0,.07,0,.14,0,.22-.06.31-.11.62-.17.93a74,74,0,0,0-1,12.45c0,.81,0,1.6,0,2.41,0,.38,0,.76.05,1.14-3.5,7.16-5.76,11.6-5.76,11.6s-2.36-4.64-6-12.08c0-.55.06-1.1.08-1.66,0-.8,0-1.6,0-2.41a73.88,73.88,0,0,0-1-12.44,73,73,0,0,0-14.31-32.48,110.7,110.7,0,0,0,21.16-61.69,108.6,108.6,0,0,0,1.37,13.46.15.15,0,0,0,0,.07A110.58,110.58,0,0,0,616.63,720.63Zm-21.16-101c0,1.23-.06,2.44-.06,3.67a110.75,110.75,0,0,0-21.68-66,73.09,73.09,0,0,0,15.5-40.82c0-.38,0-.76.06-1.13.05-1.11.08-2.22.08-3.34q0-2.07-.12-4.11c3.62-7.41,6-12,6-12s2.35,4.65,6,12.09c0,.55-.06,1.09-.08,1.65,0,.81,0,1.61,0,2.41a74,74,0,0,0,1,12.45,73.06,73.06,0,0,0,14.77,33.06A110.68,110.68,0,0,0,595.47,619.65Z"/><path class="cls-16" d="M771.2,569.88C814.66,542.7,847,511.64,871,481.39,847,511.65,814.64,542.71,771.2,569.88Z"/><path class="cls-16" d="M702,618.23c5.2,6,10.74,13,14.24,19.26l.22.38C769.6,638.93,837,624,880.92,554.77,875,562.83,833.05,612.84,702,618.23Z"/><path class="cls-17" d="M155.71,733.76a1.65,1.65,0,0,0,0,1.18,2.42,2.42,0,0,1,.29.86c-2.09,1.23-4.13,2.39-6.14,3.51s-4,2.28-6.13,3.5-4.1,2.34-6,3.35-3.94,2.05-6,3.09c-1,.51-1.5,1-1.62,1.58a7.59,7.59,0,0,1-6.48,2.37,12.52,12.52,0,0,1-4.58,3.51,22.51,22.51,0,0,0-4.7,2.74c-1,.51-1.87,1-2.74,1.37s-1.79.86-2.74,1.37a7.36,7.36,0,0,0-2,2,3.26,3.26,0,0,0,0,2.76,9.43,9.43,0,0,0-.39,1.38,10.74,10.74,0,0,1-.4,1.38c-.53.61-.67,1-.44,1.12a5.15,5.15,0,0,1-2.55,5.4,3.25,3.25,0,0,0-.79,2.76,8.11,8.11,0,0,1,.6,4.62c-.26,1.62-.48,3.14-.66,4.57a18.22,18.22,0,0,1-1.11,1.76,3.19,3.19,0,0,1-2.16,1.14c-.2,0-.41.38-.61,1s-.2,1,0,1.18c1.18.85,1.57,1.7,1.19,2.55a8.1,8.1,0,0,1-1.92,2.55c.92.55,1.29,1.19,1.1,1.92a8.53,8.53,0,0,1-1,2.27,5.12,5.12,0,0,0-.88,2.24q1,2.46-1.81,4.23a2.68,2.68,0,0,0-.46,1.92,8.42,8.42,0,0,1-.35,2.68,13.34,13.34,0,0,0-.51,2.58,14.94,14.94,0,0,1-.51,2.57,3.57,3.57,0,0,0-.36,1.63,11.73,11.73,0,0,0-.26,3.2,6,6,0,0,1-.86,3.29,4.71,4.71,0,0,0-.2,4.49,13.23,13.23,0,0,1-.38,6.23,22.66,22.66,0,0,1-2.94,5.86,2.94,2.94,0,0,0,.09,1.56,3.79,3.79,0,0,1,.33,1,14.7,14.7,0,0,0-.2,3.58c.08,1.12.1,2.21.07,3.26-.18.21-.25.35-.24.44s-.07.23-.24.43q-3.06,2.34-2.56,4.36a19,19,0,0,1,.51,4.11,23.68,23.68,0,0,0-.35,5.44,46.06,46.06,0,0,1,0,5.39c.11.68-.34,1.1-1.36,1.27a2.88,2.88,0,0,0-2.27,3.26l.13.77a7.94,7.94,0,0,0-1,6.45,27.64,27.64,0,0,1,1.19,6.37,13.77,13.77,0,0,1,.21,2.19c0,.62-.06,1.28-.14,2a7.43,7.43,0,0,1-1.4,1c-.35.41-.4.68-.17.82l1.36,1.61a12.78,12.78,0,0,0,1.31,1.36,1.61,1.61,0,0,1-.29,1.1,1.59,1.59,0,0,0-.29,1.1,2.7,2.7,0,0,0-1.1-.08,3.2,3.2,0,0,1-1.11-.09c-.2,0-.33-.12-.39-.46,0-.17-.14-.24-.34-.2a4.85,4.85,0,0,1-4.21-.89,19.16,19.16,0,0,0-3.2-2.36,16,16,0,0,0-2.11-2.41,7.45,7.45,0,0,1-1.93-3.22A43,43,0,0,1,66,886.52q-1-3.24-2.2-6.72a78.93,78.93,0,0,1-2.77-16.87c0-4-.1-8.25-.21-12.69s-.28-8.65-.51-12.64q.38-7.15.79-14.17t1.45-14c.39-3.91.94-7.59,1.62-11s1.46-7,2.32-10.62c.15-1.6.35-3.25.59-4.95s.41-3.52.51-5.46q-.28-1.79-1.29-2.16-2.64-.87-5.31-1.88c-1.78-.67-3.64-1.28-5.6-1.83l-.61.1c-.21,0-.32,0-.35-.21-1.29-1.53-2.47-3-3.51-4.28s-2.22-2.74-3.52-4.27a7.22,7.22,0,0,0-1.81-1.54,7.72,7.72,0,0,0-2.64-.88,14.74,14.74,0,0,1-5-6,45,45,0,0,1-2.39-6.95,3.42,3.42,0,0,0-.86-1.43,10.08,10.08,0,0,1-.64-2,8.85,8.85,0,0,0-.64-2l-.16-1a2.94,2.94,0,0,1-.67-2.12c.11-.63,1-1.16,2.55-1.6a6,6,0,0,0-2.38-1.18,20.7,20.7,0,0,0,.59-4l.61-.1A16,16,0,0,0,37,735.41c1.21,1,1.56,2.54,1.06,4.55a56.48,56.48,0,0,1,5.42,4.49,9.9,9.9,0,0,0,5.73,2.6c1.89,0,3.71.05,5.47,0a39.72,39.72,0,0,0,5.69-.54,33.58,33.58,0,0,0,8.56-2.06,37.63,37.63,0,0,0,8.19-4.36,2.77,2.77,0,0,0,1.49-2.35q1.23-3.87,2.17-7.7t1.9-7.4q1.77-4.49,3.24-8.8t3.2-9.05a33.36,33.36,0,0,1,1.49-3.27,10.69,10.69,0,0,0,1.11-3.72,39.79,39.79,0,0,0,2.21-6.53,39.18,39.18,0,0,1,2.21-6.53,62.69,62.69,0,0,1,2.18-6.66c.81-2.05,1.67-4.12,2.57-6.19a14.21,14.21,0,0,0,.52-2.58,13.2,13.2,0,0,1,1-3.44q-2.23,1.68-3.87,3.12c-1.09,1-2.18,1.89-3.29,2.77a87.13,87.13,0,0,0-7.73,6.13,71.2,71.2,0,0,0-7,7.05c-2.12,2.27-4.26,4.5-6.39,6.69s-4.17,4.4-6.1,6.64c-2,1.73-4,3.55-6,5.45s-4,3.71-6,5.44a11.9,11.9,0,0,1-3.31,2.64c-1.34.75-2.76,1.59-4.27,2.54-.38.24-.7.47-1,.68a8.31,8.31,0,0,1-1,.69,15.3,15.3,0,0,0-1.72.94,2,2,0,0,1-1.5.38,53.14,53.14,0,0,1-7.11-1.46,17.16,17.16,0,0,1-6.49-3.4A10.52,10.52,0,0,1,28,709.86a26.54,26.54,0,0,0-1.48-2.38c-.14-.85-.41-1.24-.82-1.17-1.88,0-2.87-.67-3-1.88s-.21-2.24-.35-3.09a4.05,4.05,0,0,1,.64-2.73,6.13,6.13,0,0,1,3.21-2.36.71.71,0,0,0,.67-.64,2.3,2.3,0,0,1,.59-1.15c.3-.74.55-1.44.75-2.09a11.1,11.1,0,0,1,.79-1.83,13.51,13.51,0,0,1,3.74-3.9q2.23-1.54,4.46-3.22,4.15-3.31,8-7.1c2.6-2.53,5.27-5,8-7.35a39.15,39.15,0,0,0,4.42-3.48q1.89-1.75,3.78-3.64a47.83,47.83,0,0,1,3.68-3.23,47.82,47.82,0,0,0,3.69-3.23q4.67-3.92,10.07-8.08t10.42-7.88q6.36-5,12.81-9.45t12.85-9.2a35.59,35.59,0,0,1,3.08-2.21,35,35,0,0,0,3.07-2.21,13,13,0,0,1,2.55-2.52,37,37,0,0,1,4-1.44,36.64,36.64,0,0,0,4.72-2.61q2.12-1.39,4.08-2.77c1.53-.77,3.08-1.51,4.63-2.2s3.09-1.43,4.64-2.21a41.76,41.76,0,0,0,4.5-2.05,43,43,0,0,1,4.51-2c2-.67,3.93-1.39,5.89-2.15s4-1.49,6.19-2.2a34.85,34.85,0,0,1,4.4-1.77c4-1.18,7.95-2.26,11.95-3.27a69.32,69.32,0,0,1,11.86-2l7.15-1.18a52.63,52.63,0,0,1,7.23-.66q4.34-.18,8.55-.22a16.51,16.51,0,0,1,8,2,14.93,14.93,0,0,0,3.38.63,31.58,31.58,0,0,1,3.34.37l6.59,2.06c2.19.69,4.29,1.4,6.28,2.12q6.1,2.94,11.64,6.22l0,.26a.7.7,0,0,0,.39.46,32.11,32.11,0,0,0,6.05,8.33,22.81,22.81,0,0,1,5.49,8.67,10.47,10.47,0,0,1,.07,2.35,5.35,5.35,0,0,0,.42,2.56,8.09,8.09,0,0,0,.31,2.83,5.25,5.25,0,0,1,0,2.89,10.32,10.32,0,0,1-1.19,7c-1.21,2.12-2.47,4.26-3.79,6.39-1.26,2.48-2.58,4.89-4,7.21s-2.74,4.57-4.06,6.71l.09.51a6.43,6.43,0,0,0-3.78,4.55,8.14,8.14,0,0,1-3.39,5,31.41,31.41,0,0,0-3.26,3q-1.59,1.71-2.9,3.23a50.19,50.19,0,0,0-6.87,5.72q-2.94,3-6.22,5.88c-2.2,1.76-4.27,3.46-6.19,5.08s-4,3.33-6.19,5.09q-2.79,2-5.49,3.65c-1.8,1.09-3.64,2.22-5.53,3.41a8.49,8.49,0,0,0-1.92,1.62,12.82,12.82,0,0,1-2.18,1.94,57.56,57.56,0,0,1-6.25,4.69q-3.25,2.11-6.87,4.81-3.91,2.75-7.21,5.51t-7.21,5.52c-.93.67-2,1.37-3.1,2.08a36.25,36.25,0,0,0-3.35,2.39,5.44,5.44,0,0,1-2,1,5.74,5.74,0,0,0-2,1c-1,.17-1.51.34-1.48.51q-.53,2.45-2.4,2.49a11.67,11.67,0,0,0-3.34.55ZM71.24,873.6a4.82,4.82,0,0,1-.62-1,4.34,4.34,0,0,1-.36-1.25q-.29-3.63-.83-6.95A36.09,36.09,0,0,1,69,857.7c.09-1.94.14-3.87.14-5.79a47.16,47.16,0,0,1,.4-6.11,9.33,9.33,0,0,1,0-3.93,9.33,9.33,0,0,1,0-3.93c.29-.75.54-1.45.75-2.09a11.19,11.19,0,0,0,.44-2q.69-5.37,1.36-10.73t1.37-10.72a134.25,134.25,0,0,1,2-16.59,77.58,77.58,0,0,0,1.91-8.32,60.85,60.85,0,0,1,2.18-8.62,2.52,2.52,0,0,0-2.64-2.72c-.26.93-.46,1.61-.59,2.07a8.54,8.54,0,0,1-.68,1.55,11.16,11.16,0,0,0-.94,3.83,10.86,10.86,0,0,1-.51,1.66,11.22,11.22,0,0,0-.51,1.66A36.69,36.69,0,0,1,72.21,791a4.65,4.65,0,0,0,.17,3.91A6.9,6.9,0,0,0,71,797.8l-.9,5.92c-.3,2-.71,4-1.21,6a41.72,41.72,0,0,1-.77,4.85,41.67,41.67,0,0,0-.76,4.85c-.16,1.6-.29,3.29-.42,5.05a44.1,44.1,0,0,0-.07,5.26,38.29,38.29,0,0,1-.76,6.82,12,12,0,0,0,.47,6.62.47.47,0,0,1-.09.4.88.88,0,0,0,0,.67,4.06,4.06,0,0,0-.25,1.35,3.73,3.73,0,0,1-.51,1.66,8.69,8.69,0,0,1,.15,4.7,5.47,5.47,0,0,0,.71,4.34c0,.18-.31.67-1,1.48a5.5,5.5,0,0,1,0,1.71,4.87,4.87,0,0,0-.08,1.46c.25,1.53.45,3.07.61,4.62s.33,3,.56,4.37a12.84,12.84,0,0,0,.83,3.14c.32.74,0,1.61-.82,2.63a.5.5,0,0,0,.21.36.48.48,0,0,1,.22.36,6.78,6.78,0,0,1,.8,4.85c.42,2.56,1.46,3.87,3.14,4a2,2,0,0,0,.58-2.2c-.32-.64-.69-1.33-1.12-2a6,6,0,0,1-.81-2.1c-.11-.68.28-1.44,1.18-2.29l-.12-.77a15.49,15.49,0,0,1-2.22-.16,7.2,7.2,0,0,0,1.84-1.22A4,4,0,0,1,71.24,873.6Zm7.64-37.21a16.1,16.1,0,0,0,1.36-3.11,4.16,4.16,0,0,0-.32-1,3.28,3.28,0,0,1-.32-1,9.75,9.75,0,0,1-1,.55,2.11,2.11,0,0,0-.7.51,11.88,11.88,0,0,0-.41,3.22,2,2,0,0,0,.47,1Zm3.74-17.15-.69-.41c-1.16.54-1.73.9-1.7,1.07a2.31,2.31,0,0,0-.62,1.94,2,2,0,0,0,1.25,0,6.08,6.08,0,0,0,.88-1.32A6.53,6.53,0,0,1,82.62,819.24Zm-1.54-3.68c2.52-1.11,3.9-2.83,4.15-5.14a2.37,2.37,0,0,1,0-.92,2.56,2.56,0,0,0,0-.92,4.16,4.16,0,0,0-.32-1,1.28,1.28,0,0,1,0-1.05,2.31,2.31,0,0,1-1.43.76c-.61.1-.89.33-.83.66a30.65,30.65,0,0,1-.76,3.94A33.16,33.16,0,0,0,81.08,815.56Zm5.28-21.08a3.88,3.88,0,0,0,1.39-1,2.21,2.21,0,0,0,.55-1.4,2.26,2.26,0,0,1,.55-1.41l-.6.1a.66.66,0,0,1-.48,0,.73.73,0,0,0-.48-.05A4.5,4.5,0,0,0,86.11,793Zm2.55-5.4a5.11,5.11,0,0,1,1.22-2,8.88,8.88,0,0,0,.41-2.3A3.63,3.63,0,0,1,91,783a27.82,27.82,0,0,0,.81-4.59,1.42,1.42,0,0,1-.78,0,1.48,1.48,0,0,0-.78,0q-.45,3-1,5.28t-1,5ZM92.55,720a18.06,18.06,0,0,0-1.1,3.72,7.18,7.18,0,0,1-1.24,3q2.79-2,3.19-3.41A4,4,0,0,0,92.55,720Zm36.2,7.44c2.75-1,5.6-2,8.54-3.11a36,36,0,0,0,8.6-4.69,7.71,7.71,0,0,0-1.4-1l-1.37-.7-.53.55c.22.12.4.55.52,1.29-1.46-.06-2.92-.05-4.36,0a5,5,0,0,0-3.72,2.09,16.86,16.86,0,0,1-3,2.72,5.8,5.8,0,0,1-3.89,1,6,6,0,0,0-1.44.76q-4.53,2.85-8.71,5.89c-.55.45-1.06.83-1.53,1.17a7.73,7.73,0,0,0-1.22,1.12.48.48,0,0,0,.22.36.47.47,0,0,1,.21.36,2.87,2.87,0,0,1,.87-.41,2.56,2.56,0,0,0,.87-.4,52.07,52.07,0,0,0,4.75-2.49,30.42,30.42,0,0,1,4.48-2.18,7.07,7.07,0,0,0,1.89-.83C128.82,728.82,128.89,728.28,128.75,727.43Zm-4.12-15.59a3.68,3.68,0,0,1,1.08-.05,1.63,1.63,0,0,0,1-.3q4-2.24,7.58-4.27c2.38-1.35,4.81-2.75,7.27-4.21q5.35-3.5,10.55-7.11t10.24-7.06q5-3.45,9.56-6.43a105,105,0,0,0,8.91-6.58q5.31-3.75,10.57-7.9t10.22-8.11q4.71-3.66,9.14-7.14t9.09-7.4A107.2,107.2,0,0,0,232.53,633a61.62,61.62,0,0,0,8.71-11.66,21.39,21.39,0,0,0,2.65-5.69c.61-2,1.24-4.14,1.92-6.35.92-2.07.21-3.18-2.1-3.33a49,49,0,0,1-5.08-.48,42.55,42.55,0,0,0-5.68-.37c-2.93-.05-5.55-.18-7.88-.42a20.29,20.29,0,0,0-7.66.87c-3.45.56-6.91,1.05-10.38,1.44a36,36,0,0,0-10.17,2.72,39,39,0,0,1-5.22,1.51,32.13,32.13,0,0,0-4.91,1.47q-4.39,1.77-9,3.31a88,88,0,0,0-8.94,3.56,33,33,0,0,0-3.9,2q-1.84,1.08-4.11,2.51a2.08,2.08,0,0,0-.66,1.68,22.76,22.76,0,0,0-.33,3.73,9.74,9.74,0,0,1-.67,3.52,14.53,14.53,0,0,0-1.81,6.07,10,10,0,0,1-2.2,5.61,28.33,28.33,0,0,0-2.32,3c-.65,1.15-1.34,2.32-2.08,3.49a19.84,19.84,0,0,0-1.78,3.44,20.54,20.54,0,0,0-1.88,5.69,21.74,21.74,0,0,1-1.61,5.38c-.09.72-.87,1.72-2.32,3-.49.79-1,1.52-1.51,2.22a16.11,16.11,0,0,0-1.46,2.47,5.51,5.51,0,0,1-.93,2,5.74,5.74,0,0,0-.44,2,3.77,3.77,0,0,1-.49,1.79c-.85,1.19-1.56,2.27-2.12,3.23s-1.18,2-1.82,3.19c0,.34.54.79,1.46,1.33a9.92,9.92,0,0,1-1.35,1.27c-.55.45-.8.84-.74,1.18a3.87,3.87,0,0,1-1.17,2.42,9.71,9.71,0,0,0-1.55,2c-.52.61-.76,1.08-.7,1.43a24.61,24.61,0,0,1-1,4.36,21,21,0,0,1-2,4.26,11.27,11.27,0,0,0-1.54,3.92A21.36,21.36,0,0,1,124.63,711.84Zm19.72,4.1a1,1,0,0,1-.44,1.13,16.08,16.08,0,0,0,1.74.11,10.56,10.56,0,0,0,1.69-.15,27.57,27.57,0,0,1,3.83-1.42,18.65,18.65,0,0,0,3.52-1.36,8.53,8.53,0,0,0,1.11-.84,11.23,11.23,0,0,0,1.07-1.1q.57-.34.18-.81c-.26-.31-.22-.66.14-1.07a6.16,6.16,0,0,0-2.09.6,7.44,7.44,0,0,1-2.18,1.93,37.07,37.07,0,0,1-4.13,1.47C147.39,714.83,145.92,715.34,144.35,715.94Zm14.58-6.32a11.26,11.26,0,0,0,2.61-1.22,29.72,29.72,0,0,0,2.7-1.63c.84-.57,1.72-1.2,2.65-1.88a2.43,2.43,0,0,0,1.27-1.78,6.12,6.12,0,0,0-2.08.61c-1.31.91-2.48,1.72-3.51,2.41s-2,1.38-2.94,2.06a.68.68,0,0,0-.22.56Q159.45,709,158.93,709.62ZM229,655.33c.06.34.18.49.39.46a11.9,11.9,0,0,0,2-.45c.49-.17,1.13-.41,1.92-.71a3.29,3.29,0,0,0-2.19-1Q230.33,653.8,229,655.33Zm13.08-19.21c-1.07,1.06-2,2-2.66,2.8l-2.36,2.75Q242.24,642.66,242.1,636.12Z"/><path class="cls-17" d="M298.81,755.4c-2.32,3.53-4.65,6.89-7,10.07q-2.73,4.14-5.44,8.38t-5.43,8.37q-2.43,4.08-4.59,7.84a90.86,90.86,0,0,1-4.94,7.63,20.11,20.11,0,0,0-2.52,5.4q-.78,2.76-1.52,5.76a18.7,18.7,0,0,1-3.79,6.92,72,72,0,0,0-5.05,6.87,109.21,109.21,0,0,0-5.34,9.93,15,15,0,0,0-.77,10.75l.16,1a38.36,38.36,0,0,0-4.1,3.56,40.46,40.46,0,0,1-4.09,3.56l-.31,0c-.38.23-.81.48-1.28.73s-.91.5-1.29.74a1.37,1.37,0,0,0-.74.25,1.46,1.46,0,0,1-.74.25l-.12-.76a7.42,7.42,0,0,1-6.8-3.35,8.33,8.33,0,0,0-4.54-2.93,16.07,16.07,0,0,1-7.5-5.72,55.39,55.39,0,0,1-4.4-7.81,50.45,50.45,0,0,1-3.59-25.65q.44-6.88.95-14.2a121.12,121.12,0,0,1,1.86-14.34,130.88,130.88,0,0,1,3.38-15.51q2.17-7.71,4.3-15.67l1.95-7.14a68,68,0,0,1,2.3-6.94q1.68-5,3.68-9.92t4.35-9.77q4.14-9.07,8.26-18.41t8.57-18.47q4-8.26,8.23-16.7t8.54-16.76l8.91-18.25q4.46-9.13,8.92-18.26,2.64-4.9,5-9.74t4.36-9.64a5.86,5.86,0,0,1,3.4-3c1.48-.51,3-1.06,4.56-1.67a3.83,3.83,0,0,0-.53,1.53,4,4,0,0,1-.52,1.53l4.41-.72a33.32,33.32,0,0,1,4.14-.42c2-.34,3.56.11,4.59,1.34a10.5,10.5,0,0,0,3.59,2.82,12.55,12.55,0,0,1,3.16,2.11,6,6,0,0,0,3.07,1.6q4.73.27,6.49,3.39c1.14,1.91,2.3,3.87,3.46,5.86a7.66,7.66,0,0,1,.2,6.92,9.94,9.94,0,0,1-1.35,1.28,9.36,9.36,0,0,0-1.35,1.27,9.15,9.15,0,0,0-.9,1.2,6.21,6.21,0,0,0-.59,1.14c-.42,1.29-.79,2.54-1.11,3.73a16,16,0,0,1-1.45,3.51L325,629.08q-2.44,4.08-5.21,8.2-1.49,2.36-3,4.69l-3,4.69a.8.8,0,0,1-.85.53.79.79,0,0,0-.85.53,13.35,13.35,0,0,0-2.71,2.55,3.06,3.06,0,0,0-.68,1.55,1.77,1.77,0,0,1-.72,1.3c-1.36.58-2.08,1.31-2.14,2.19a7.6,7.6,0,0,1-.8,2.76,7.39,7.39,0,0,1-1.36,2.19A20,20,0,0,0,302,662.5a2.71,2.71,0,0,1-.48.86,1,1,0,0,0-.18.82q-.08,5.27-4.92,10a18.22,18.22,0,0,0-4.11,5.4c-.41,1.3-.77,2.58-1.08,3.85a4.78,4.78,0,0,1-2.78,3.08q.31,0-.48.87a10,10,0,0,1-2.2,5.61,34.2,34.2,0,0,0-3.46,5.55,10.5,10.5,0,0,0-.63.9c-.25.39-.27.57-.07.53q1.86,1.8.48,2.94a18.79,18.79,0,0,0-1.9,1.75,11.36,11.36,0,0,0-4.85,6.58,29.25,29.25,0,0,1-2.86,7.29,81.48,81.48,0,0,0-4.59,9.15Q266,732.19,264,737a2.47,2.47,0,0,0-.1,1.32,1.59,1.59,0,0,1-.4,1.38,9.17,9.17,0,0,1-1.14,1.63,10.09,10.09,0,0,0-1.13,1.63,1.35,1.35,0,0,1-.63,0,1.5,1.5,0,0,0-.63,0,7.27,7.27,0,0,1,1,2.45,15.78,15.78,0,0,0-3.55,3.08c-.69.9-.06,2.15,1.87,3.76a8.44,8.44,0,0,0-1.35.35,7.5,7.5,0,0,1-1.35.35c0,.18,0,.27-.11.28s-.13.12-.11.29a22.49,22.49,0,0,0,.57,2.53,7.19,7.19,0,0,1,.27,2.58,5.09,5.09,0,0,1-.74,2.35,10.2,10.2,0,0,0-1,2.4c-.31.75-.62,1.46-.94,2.12s-1.21,1-2.69,1.1a1.35,1.35,0,0,0-1,.82,6.41,6.41,0,0,1-.87,1.32,2.43,2.43,0,0,1,.53.44,2,2,0,0,0,.55.43c1.17-.89,1.95-1.45,2.35-1.69l1,.09c-.79,1.54-1.54,3.06-2.23,4.57s-1.5,3.31-2.41,5.38q.39.47,0,3.81c-.26,2.23-.66,4.61-1.18,7.14s-1.13,4.91-1.81,7.13-1.42,3.47-2.2,3.77a35,35,0,0,0-.83,6.43c-.13,1.77-.22,3.49-.26,5.16s-.12,3.39-.24,5.16a14,14,0,0,1-.39,2.43,14.08,14.08,0,0,0-.39,2.42,6.09,6.09,0,0,0-.16,2.78,6.28,6.28,0,0,1-.18,2.79l0,.25a39.42,39.42,0,0,0,1.76-3.57A19.85,19.85,0,0,1,246,820q2.19-3.76,4.72-7.46t5.37-7.31a4.17,4.17,0,0,1,1.24-1c.48-.25.69-.54.63-.89a56.22,56.22,0,0,1,4.22-11.45,45.77,45.77,0,0,1,7.22-10.37q2.63-3,5.1-6.08a20.09,20.09,0,0,0,3.53-6.1,22.38,22.38,0,0,1,2.93-6.91q2-3.07,4.32-6.09a24.25,24.25,0,0,1,4.29-4.37,5.49,5.49,0,0,0,1.9-5.57,6.09,6.09,0,0,0,3.46-1.48,8.1,8.1,0,0,0,1.61-2.37,16.36,16.36,0,0,0,.94-2.77,8.94,8.94,0,0,1,1.1-2.68q3.49-5,7.27-10.24c2.51-3.48,5-6.91,7.56-10.3q2.85-3.36,6-6.63a31.41,31.41,0,0,0,5.07-6.74,16.47,16.47,0,0,1,4.72-5.1,44.44,44.44,0,0,1,6.21-3.51q-14.73,18.16-27.69,36.82T282.91,769.3l2.07,1.23q4.51-6.78,9.08-13.17t9.12-12.91l1.3.31q-1.43,2.6-2.84,5.32C300.7,751.9,299.75,753.67,298.81,755.4Zm-76,42.92a12.68,12.68,0,0,0,.47-2.83,12.21,12.21,0,0,1,.46-2.83,4.63,4.63,0,0,1,1.46-1.55c.65-.46,1.35-.92,2.1-1.4-1.13-.51-1.91-.86-2.36-1.05s-1-.4-1.67-.65a11.49,11.49,0,0,1,.88-2.24c.32-.58.64-1.16,1-1.73a12.11,12.11,0,0,0,.26-3.2,10.91,10.91,0,0,1,.25-3.19q1-3.57,1.82-7t1.83-7c.77-2.92,1.55-5.81,2.34-8.65s1.66-5.74,2.63-8.7q.84-2.51,1.7-4.87a40.86,40.86,0,0,1,2.05-4.67q.88-2.24,1.81-4.23c.62-1.32,1.22-2.74,1.81-4.23q1.37-3.12,2.6-6.07t2.6-6.07a9.55,9.55,0,0,1,1.14-1.63,1.87,1.87,0,0,0,.54-1.53,7.12,7.12,0,0,1,.85-5c.87-1.46,1.69-2.94,2.45-4.47a10,10,0,0,1,2.05-3.22,10.38,10.38,0,0,0,2.08-3.23,18.28,18.28,0,0,0,1.7-4.87,18.28,18.28,0,0,1,1.7-4.87q1.85-4,3.73-7.7l3.77-7.45a10.19,10.19,0,0,0,.61-2.06,10.3,10.3,0,0,1,.59-2.07c-2.29,0-3.72.48-4.3,1.36a5.91,5.91,0,0,0-.85,3.42,8.51,8.51,0,0,1-1.33,5.21,38.27,38.27,0,0,0-2.63,4.89,1.67,1.67,0,0,1-2,1.12c-1.68-.07-2.6.34-2.77,1.24s-.38,1.81-.64,2.73a15.39,15.39,0,0,0,3.42-1.61c0,2.45-.7,4-2.05,4.8a12.9,12.9,0,0,1-5.8,1.21,5.79,5.79,0,0,0-.65,1.81,5.39,5.39,0,0,1-.65,1.81l1,.36q1.14-.7,2.31-1.29c.77-.39,1.65-.84,2.62-1.35l.35.2a20.7,20.7,0,0,1-1.26,1.92,17.45,17.45,0,0,0-1.27,1.91,15,15,0,0,0-1.66-.51,5,5,0,0,1-1.36-.57l-1.14.71a26.31,26.31,0,0,1,3,3.18,6.34,6.34,0,0,1-1.63.66,13.61,13.61,0,0,0-1.93.71,5.61,5.61,0,0,1-1.9,1c-.7.2-1.13.49-1.27.86a19.87,19.87,0,0,1-3.18,7.61q-1.2,2.29-2.26,4.44c-.72,1.43-1.37,2.89-2,4.39a31.8,31.8,0,0,0-1,3.7c-.23,1.18-.46,2.31-.7,3.4l.78.92a11.83,11.83,0,0,1,2.35-.91,1,1,0,1,1-.47,1.91,1.83,1.83,0,0,0-1.2,1.25,19.22,19.22,0,0,0-1.13,4.25,42.31,42.31,0,0,1-.84,4.21,7.71,7.71,0,0,1-1.31,2.18,19.07,19.07,0,0,0-1.61,2.23l-1-.62c.67-1,1.35-2,2-2.95a24,24,0,0,0,1.7-2.91,1.79,1.79,0,0,0-.05-1.3,6.84,6.84,0,0,1-.37-1.25,2.82,2.82,0,0,1-1.11.84,1.31,1.31,0,0,0-.8.79,17,17,0,0,0-1.48,3.39c-.34,1.1-.72,2.22-1.16,3.34-.15.37-.38.89-.68,1.55s-.33,1.15-.07,1.46c.06.34.45.54,1.18.59a7.62,7.62,0,0,1,2.1.44c-.46,1-.88,1.9-1.25,2.83s-.76,2-1.2,3.09a4.07,4.07,0,0,0-1.79-.5,19.77,19.77,0,0,1-3-.55l1.55,9.46-1.74.81c-.58.27-1.25.55-2,.86a.46.46,0,0,0,.21.35.5.5,0,0,1,.22.36l3.78.17c-.27.92-.51,1.7-.71,2.35s-.46,1.34-.76,2.09c-2.18.53-3.53,1.15-4,1.84s-.8,2.63-.89,5.79c.86-1,1.54-1.87,2-2.57s1.19-1.54,2.05-2.56q-.22,2.4-.39,4.26a29.71,29.71,0,0,1-.51,3.5,19.12,19.12,0,0,0-2,2,21.26,21.26,0,0,1-2,2l2.2,2a8.76,8.76,0,0,1-2,1,14.22,14.22,0,0,0-2.31,1,18.67,18.67,0,0,1,2.19,1.08l1.55.93a2.17,2.17,0,0,0-.57,1.27,6.47,6.47,0,0,0,.08,1.43,1.83,1.83,0,0,1-.24,1.35,3,3,0,0,1-1.54,1,3.37,3.37,0,0,0-1.37,1.15c-.33.49.06,1,1.19,1.51.89.38,1.32.83,1.31,1.36s-.63,1-1.8,1.34a2,2,0,0,0-1.61,1.58,9.12,9.12,0,0,0-.75,3q-1.49,2.34,1.29,2.15,3.06-.24,1.32,2.4a1.68,1.68,0,0,0-.39,1.38,30.45,30.45,0,0,0-.28,4c0,1.23,0,2.54,0,3.94a16,16,0,0,0,.81,3c.37,1,.76,2.07,1.15,3.23l.92-.15a13.49,13.49,0,0,0-.42-3.48,7,7,0,0,1-.07-3.27c.53-3.06,1.07-6.12,1.6-9.18S222.27,801.39,222.8,798.32Zm5.64,5.64a1,1,0,0,0-.16-1c-.27-.3-.31-.56-.13-.76a7.3,7.3,0,0,0,2-5.18,16.47,16.47,0,0,1,.66-5.49,8.33,8.33,0,0,0,.34-2.68,21.07,21.07,0,0,1,0-2.63c-.84,0-1.63,0-2.35,0s-1.61.05-2.64.05a16.8,16.8,0,0,0,1.94,2.3,2,2,0,0,1,.68,2.25A12.81,12.81,0,0,0,227.6,796a8.5,8.5,0,0,1-1.83,5,2.13,2.13,0,0,0-.34,1.77l.36,2.17q0,.26,1.65.51a5.21,5.21,0,0,1,.67-.63A.82.82,0,0,0,228.44,804Zm6.91-32.1a16.66,16.66,0,0,0-1.95-1.39,9.78,9.78,0,0,1-1.59-1.18,16.09,16.09,0,0,1,2.69-1.63c.88-.4.59-1.18-.85-2.35a1.08,1.08,0,0,1-.94.94,11.36,11.36,0,0,0-1.5.38,3.62,3.62,0,0,0-1.28.74q-.56.48,0,1.71c.34.82.67,1.55,1,2.2s.63,1.38,1,2.2l.91-.15-2.18,1.93c-.73.64-1.54,1.39-2.44,2.24a5.15,5.15,0,0,0,1.93.34,3,3,0,0,1,1.62.39c-.09.71-.19,1.39-.29,2a7.63,7.63,0,0,1-.38,1.51,15.27,15.27,0,0,1-2.39.65,10.91,10.91,0,0,0-2.09.61A27.14,27.14,0,0,0,229,784.7a19.69,19.69,0,0,1,2.12,1.49,7.31,7.31,0,0,1,1.22-1.12,2.51,2.51,0,0,0,.92-1.07,58.67,58.67,0,0,0,1.18-6.1C234.76,775.85,235.05,773.83,235.35,771.86Zm5.75,57.84c0,.17,0,.26-.11.28s-.14.11-.11.28c0-.17,0-.27.11-.28S241.13,829.87,241.1,829.7Zm6-85.22c1.52-1,2.56-1.65,3.12-2.09a2.22,2.22,0,0,0-.75-1.45c-1.41,1.67-2.88,2.41-4.38,2.21a12.57,12.57,0,0,1-4.72-1.77,9.45,9.45,0,0,1,.64,2,4.53,4.53,0,0,0,.57,1.53,25.4,25.4,0,0,0-3.22-.56c-.29.77-.59,1.5-.89,2.18s-.62,1.31-.93,1.91a.49.49,0,0,0,.21.37.48.48,0,0,1,.22.36,5.34,5.34,0,0,1,1.72-1,5.24,5.24,0,0,0,1.71-1,4.06,4.06,0,0,1-1.65,3.24,8.31,8.31,0,0,1-2.17,1,5.34,5.34,0,0,0-1.87,1c.91.5,1.71.9,2.38,1.19s1.24.57,1.7.82a19.48,19.48,0,0,1-3.54,1.31,12,12,0,0,0,1.16,3.22l-2.53,1.73c.64.25,1.17.46,1.61.65a10.64,10.64,0,0,1,1.31.71,16.1,16.1,0,0,1-1.55.64c-.47.17-1,.39-1.56.65a17.81,17.81,0,0,0,2.07,1.5l2,1.25a33.56,33.56,0,0,0,2.1-6.38q.72-3.27,4.76-5.51l-1-.62a2.7,2.7,0,0,1-.74-.66,2,2,0,0,1-.6-1.74,2.84,2.84,0,0,1,.77-1c.37-.33.67-.42.9-.28,1.31.31,2.17.16,2.6-.43a17.84,17.84,0,0,0,1.13-1.76c-.67-.24-1.29-.49-1.85-.75a16,16,0,0,1-1.55-.79,3.07,3.07,0,0,1,1.43-.89A3,3,0,0,0,247.07,744.48Zm-5.93-5.85a2.31,2.31,0,0,1,.49,1.1,1.5,1.5,0,0,0,.79,1,4.62,4.62,0,0,0,1.35.56l1.3.32c.72-.65,1.4-1.24,2.05-1.78l2-1.78q.87-2.25-1-3.25a11.33,11.33,0,0,0-3.49-1.26c-1,0-1.64.18-1.78.55a4.29,4.29,0,0,0-.23,1.48,8.08,8.08,0,0,1-.18,1.74A1.94,1.94,0,0,1,241.14,738.63Zm2-22.11a17.72,17.72,0,0,0-1.33,5.2,6.64,6.64,0,0,0-1.61-.26c.26-.92.48-1.82.65-2.73a25.58,25.58,0,0,1,.64-2.73A7.37,7.37,0,0,0,243.13,716.52Zm7.92,12.08c.09-1.94.24-3.88.44-5.84s.34-3.91.45-5.85a3.9,3.9,0,0,1-1.57,0,3.89,3.89,0,0,0-.24,1.36,4.64,4.64,0,0,1-.25,1.35,4.77,4.77,0,0,0-2.56.55,1.66,1.66,0,0,0-.7,1.43,10.22,10.22,0,0,0,.16,1.94,1.91,1.91,0,0,1-.36,1.63c-.17.21.22.71,1.18,1.51a12.75,12.75,0,0,1,2.27,2.39,1.72,1.72,0,0,0,.59-.23A1.58,1.58,0,0,1,251.05,728.6Zm2.67,3a43.19,43.19,0,0,0,2-4q.87-2,2-4.26Q251.8,725.59,253.72,731.58Zm4.58-19.65a5.64,5.64,0,0,0,0-3,11.15,11.15,0,0,1-.37-3.22l-1.55-.27c-.81,1.19-1.58,2.32-2.3,3.4s-1.49,2.21-2.31,3.4a1.68,1.68,0,0,0-.38,1.37,2.5,2.5,0,0,1-.33,1.63l3.12-.51a11.84,11.84,0,0,0-.19,2.92,11.73,11.73,0,0,1-.18,2.91l1.22-.2c.08-.71.22-1.78.41-3.21,2.25-.2,3.24-.84,3-1.93A6.83,6.83,0,0,1,258.3,711.93Zm8.79-9.32a1.79,1.79,0,0,0-.43-.71l-.78-.93q-1.28,3.1-2.52,5.54T261,711.22a9.83,9.83,0,0,0,3.89-3.65A11.82,11.82,0,0,0,267.09,702.61Zm-6.6-32.77a41.79,41.79,0,0,0-2.15,4c-.62,1.33-1.39,2.94-2.33,4.84l3.26-1.06c.42-1.29.78-2.53,1.11-3.72s.59-2.41.8-3.68Zm145.05-.72c.06.34,0,.57-.2.69s-.15.33.1.63a5.89,5.89,0,0,1,.5,4,9.66,9.66,0,0,1-1.77,3.44,23.81,23.81,0,0,1-2.93,3.11,15.92,15.92,0,0,0-2.64,2.92q-1.53,2.1-3.08,4.05a26,26,0,0,0-2.74,4.26q-6,9.38-10.78,18a11.92,11.92,0,0,1-2.1,3.36,3.1,3.1,0,0,0-.5,3.63c0,.17-.13.46-.48.86a25.93,25.93,0,0,1-1.45,2.6c-.5.78-1.08,1.67-1.75,2.65a7.36,7.36,0,0,0-1.43,3.65,5.23,5.23,0,0,1-2.38,3.54,2.12,2.12,0,0,0-.8,1.83,5.84,5.84,0,0,1-.4,2.3,10.06,10.06,0,0,1-1.07,2,4.26,4.26,0,0,0-.78,2,26.35,26.35,0,0,1-6,11q-2.1,2.45-3.89,4.83a7.21,7.21,0,0,0-1.25,5.72,1.55,1.55,0,0,1-.29,1.1,1.51,1.51,0,0,0-.28,1.09c-.07.89-.1,1.68-.09,2.38a14.22,14.22,0,0,0,.19,2.07l-3.46,4.63c-1.11,1.5-2.35,3.14-3.71,4.94a7.59,7.59,0,0,1,2.6.62c.46.28.53.7.21,1.28.05.35-.22.56-.83.66a6.46,6.46,0,0,0-3.55,2.16c-.77,1-.81,2.41-.09,4.22a23.84,23.84,0,0,1,1-2.27,22.55,22.55,0,0,0,1-2.27,1.06,1.06,0,0,0,.5.18.83.83,0,0,1,.5.18c-.26.92-.54,1.79-.82,2.63a27.92,27.92,0,0,0-.77,2.88c-1.08-.17-2.24-.33-3.51-.48q-.86,2.51-1.68,5t-2,5.05c1.73.42,2.89.19,3.47-.7a9.77,9.77,0,0,0,1.28-2.7q1.8,3.38-2.67,4.64a16.06,16.06,0,0,0-3.36,1.47c-1,.61-2.14,1.18-3.3,1.72a1.19,1.19,0,0,0,1.34.57l1.67-.28a1.92,1.92,0,0,1,1.28.18c.35.21.48.76.42,1.64a6.74,6.74,0,0,0-1.87,1.88,40.58,40.58,0,0,0-1.75,5.54q-.64,2.73-1.44,5.48l-3.46,13.17a7.57,7.57,0,0,0,.89,3.53q1.18-2.29,2.35-4.72t2.35-4.72a.94.94,0,0,0,.5.19.87.87,0,0,1,.5.18,2.47,2.47,0,0,0-.1,1.32,2.5,2.5,0,0,1-.09,1.33q-.72,3.27-1.28,6.51a39.34,39.34,0,0,1-1.62,6.3,12.16,12.16,0,0,1-1.84,3.58,37.63,37.63,0,0,0-2.54,4l2.74-.45q-.15,2.91-.41,6.11t-.4,6.1a19.68,19.68,0,0,0-.13,2.65l.06,2.61a42.6,42.6,0,0,0,.51,5l.78,4.73a7.4,7.4,0,0,1-.07,2.9q-.33,1.37-3.6,1.38a20.29,20.29,0,0,1,1.39,3.44,10.62,10.62,0,0,0,1.3,2.94,2,2,0,0,0,2.3,1.06c.94-.24,1.94-.54,3-.88a14.36,14.36,0,0,1,2.93-1.14c.94-.24,1.94-.53,3-.88q1.26,7.67-6.09,10.45c-1,.17-1.65.1-1.91-.21a7,7,0,0,0-4.59-1.35,24.38,24.38,0,0,1-5-.22,2.72,2.72,0,0,1-1.71-.9,4.59,4.59,0,0,0-1.75-1.16q-9.06-3.76-12.81-10.49a45.47,45.47,0,0,1-5.11-14.91,74.54,74.54,0,0,1-1.53-9.32c-.32-3.19-.52-6.35-.62-9.48a28.18,28.18,0,0,1,.19-5.41c.24-1.7.41-3.52.5-5.46.32-3,.65-6.06,1-9.08s.76-6.07,1.28-9.14,1.17-6.05,1.93-9,1.41-5.83,2-8.73q2.08-7.95,4.16-16t4.46-16.08q2.73-9.64,5.67-19t6-19.09q2.34-6.42,5-12.64T342.86,702q2.72-6.22,5.3-12.42t5.3-12.42a7.87,7.87,0,0,1,1.29-2.57,7.9,7.9,0,0,0,1.3-2.57l-.05-.26q-4.83,4.74-9.66,9.59T337,690.87a1.68,1.68,0,0,1-1-.36q5.37-5.34,10.32-10.35t10-10.31c-.06-.34,0-.56.05-.66a.93.93,0,0,0,0-.67q1.48-2.34,2.79-4.91A30.17,30.17,0,0,1,367.92,653q4.66-3.91,9.85-.83a2.29,2.29,0,0,0,1.61.26,11.88,11.88,0,0,1,5.83,1.27,17.36,17.36,0,0,1,4.3,3.36,8.27,8.27,0,0,0,3.8,2.27,28.56,28.56,0,0,1,4.33,1.65,4.35,4.35,0,0,0,1,.49,1.49,1.49,0,0,1,.71.54,35.31,35.31,0,0,1,2.73,2.3c.86.83,1.66,1.61,2.41,2.36a2.47,2.47,0,0,1,.51,1.23A2.57,2.57,0,0,0,405.54,669.12ZM311.78,851.68c.15-1.6.34-3.25.59-4.95s.43-3.35.59-5c0-.17-.51-.54-1.43-1.08a1.41,1.41,0,0,1-.8.79c-.4.15-.56.39-.51.74a14.56,14.56,0,0,0-.06,3.16c.09,1,.14,2.07.16,3.12a16.74,16.74,0,0,0,.32,3.36Zm20-49.74c-.63-.07-1.22-.14-1.76-.23a5.19,5.19,0,0,0-1.71,0,6.79,6.79,0,0,0-1.78.55l-1.74.81a8.59,8.59,0,0,0,.38-2.42,8.65,8.65,0,0,1,.38-2.43.64.64,0,0,1-.47,0,.67.67,0,0,0-.48-.05A39,39,0,0,1,322,802a4.62,4.62,0,0,0-.67,4.32,7.71,7.71,0,0,1-.19,4.49,15.09,15.09,0,0,1-.85,2.36,7,7,0,0,1-1,1.61c-1.11-.52-2-.94-2.67-1.27s-1.34-.7-2-1.11c-.05,1.76-.11,3-.16,3.7l-.75.12a9.59,9.59,0,0,1-.61-1.34,6.61,6.61,0,0,1-.36-1.38c-.44,1.12-.94,2.23-1.49,3.31s.18,2,2.18,2.78c.2,0,.28.13.23.48a5.08,5.08,0,0,1-.28,1.1,9.59,9.59,0,0,1-1.08,2,9.44,9.44,0,0,0-1.07,2l.6-.1c0,1.56.16,3.17.33,4.8s.26,3.24.31,4.8l1,.11a4.39,4.39,0,0,0,.75-1.17,10.87,10.87,0,0,0,.39-1.38l2.29-13.76c.18-1.34.62-2,1.34-1.9A6.64,6.64,0,0,1,321,817.8c-2.18,0-3.19.48-3,1.43a6.7,6.7,0,0,1-.13,2.82,2.19,2.19,0,0,0,.09,1.45,11.12,11.12,0,0,1,.42,1.65c.55-.26,1.06-.47,1.52-.64s1.08-.4,1.83-.7a3.3,3.3,0,0,0-.27,1.08,1.45,1.45,0,0,1-.31.86,6.83,6.83,0,0,1-2.3.5c-.78,0-1.14.24-1.09.58a11.9,11.9,0,0,0-.22,3.18,15.92,15.92,0,0,1-.18,3.44,5.21,5.21,0,0,1,0,2.1,16,16,0,0,0-2.42,7.49,25.59,25.59,0,0,0,.76,7.48l.21,1.28q-2.19,1.94-.84,3.42a3.32,3.32,0,0,1,.72,3.43,1.41,1.41,0,0,0,1,.1,17.05,17.05,0,0,1,1.68-1.72c.6-.54,1.21-1.12,1.82-1.74a28.86,28.86,0,0,0-3.16-3.94l3.41-.56a9.42,9.42,0,0,1-.83-1.18l-.87-1.43a3.19,3.19,0,0,1,1.6-.92,14.37,14.37,0,0,0,1.95-.71,5,5,0,0,0,2.19-3.12c.48-1.57.27-2.53-.64-2.91q-2.78-1.38-2.58-3.12a15.64,15.64,0,0,1,1.1-4,26.07,26.07,0,0,0,1.33-4.42c.29-1.45.72-3.09,1.26-4.93q5.28-2.7,1.42-5,1.2-2.29,2.13-4.42c.62-1.41,1.22-2.86,1.82-4.36a1.88,1.88,0,0,0,.37-1.64q-.17-1-.51-1.23c-1.39-.64-2-1.25-1.74-1.81a22.76,22.76,0,0,0,.75-2.23,17.28,17.28,0,0,0,3.45-.3Zm-18.74,5.71q-.57,2.19-1.37,5a10.47,10.47,0,0,1,1.69-.15,8.32,8.32,0,0,0,1.39-.1,5.41,5.41,0,0,1,1.88-1,5.18,5.18,0,0,0,1.86-1,1,1,0,0,1,.18-.81,6.8,6.8,0,0,0-1.86,0,6.86,6.86,0,0,1-1.87.05,2,2,0,0,1-.47-1,2.14,2.14,0,0,0-.47-1,.72.72,0,0,1-.48,0A.67.67,0,0,0,313.05,807.65Zm18-14a11.3,11.3,0,0,1,.44-2,2,2,0,0,0-.12-1.68c-.58-1-1.19-1.9-1.86-2.84a3.67,3.67,0,0,1-.4-3.35l-.78-.92c-.69,1.52-1.26,2.92-1.7,4.21s-.93,2.61-1.46,3.92a2.38,2.38,0,0,0-.73-.14,3.66,3.66,0,0,1-.76-.14,11.1,11.1,0,0,0-.2-3.12c.07-.88.16-1.9.28-3.06s0-1.79-.47-1.9c-2.16-.51-3-1.12-2.4-1.83a9.73,9.73,0,0,0,1.39-2.46,1,1,0,0,0,0-.92,2.54,2.54,0,0,1-.3-.87,1.18,1.18,0,0,0-.8-.13,5.71,5.71,0,0,1-1.41,0,16.22,16.22,0,0,1-1.07,3.72,3,3,0,0,0,0,3,12.87,12.87,0,0,1,1.57,4.86,5.56,5.56,0,0,1-1.29,4.28,11.09,11.09,0,0,0-1.78,3.18,3.92,3.92,0,0,0-.28,2.94,4.66,4.66,0,0,0-3,3.24,5.7,5.7,0,0,0,.72,5.26c.18-1.08.31-2,.38-2.68.41.28.63.51.66.68l.73.66a6.61,6.61,0,0,0,.68,2.25c0,.17.29.22.8.13a1.68,1.68,0,0,0,1-.43,1.46,1.46,0,0,0,.44-1.12,1.94,1.94,0,0,1,.13-1.07,1.94,1.94,0,0,0,.14-1.07,2,2,0,0,1,.14-1.07c.23-1.09.46-2.22.69-3.4a19,19,0,0,1,1-3.44,11.35,11.35,0,0,1,.88-2.25,17.62,17.62,0,0,0,.93-2,12.54,12.54,0,0,0,2.7.86,1.22,1.22,0,0,0,.88.12l1.18-1.5C329.34,792.37,330.34,793.09,331.06,793.67Zm-9.3-22.36a2.48,2.48,0,0,0-.35,1.64,4.24,4.24,0,0,1-.06,1.58.92.92,0,0,0,.65.15,1.06,1.06,0,0,1,.66.16c.38-1.46.79-2.8,1.21-4s.83-2.54,1.22-4a1.45,1.45,0,0,0-.78-.92c-.76.48-1.11.8-1.09,1a23,23,0,0,0-.73,2.22A18,18,0,0,1,321.76,771.31Zm11.64-24.22a87.44,87.44,0,0,0-7.16,23c1.46-.24,2.17-.53,2.11-.87l1.43-8.89a5.71,5.71,0,0,1,1.19-2.56Q334.59,752.41,333.4,747.09Zm1.26,30.5a7.09,7.09,0,0,1,.53-1.53,1,1,0,0,0,0-1.17,36.18,36.18,0,0,0-3.24-2.62l-.3-1.79a12,12,0,0,1-1.08.7q-.62.38-.27.57a3.28,3.28,0,0,1-.27,3.46,13.77,13.77,0,0,0-1.77,3.17,1,1,0,0,0,0,.92,1,1,0,0,1,0,.92.85.85,0,0,0,.5.18,1,1,0,0,1,.5.18c.5-.77,1-1.51,1.48-2.21a11.86,11.86,0,0,0,1.13-1.89,3.13,3.13,0,0,0,1.36.57A4.35,4.35,0,0,1,334.66,777.59Zm-2.44,9.85a4.73,4.73,0,0,1,1.27-2.7c.79-.92.29-1.75-1.5-2.51a3.83,3.83,0,0,1-.8,2.76C330.52,786,330.86,786.79,332.22,787.44Zm6.41-21.79a11,11,0,0,1-2,.2,8.24,8.24,0,0,0-1.39.1,29.76,29.76,0,0,0,1.33-4.29,27.26,27.26,0,0,1,1.32-4.28,11.18,11.18,0,0,0-4.7,5.62c-1.21,2.74-1.52,4.68-.92,5.8q1.22-.19,2.46-.27a26.43,26.43,0,0,0,2.75-.33A11.51,11.51,0,0,1,338.63,765.65Zm7.15,34c.54,2,.56,3.41.06,4.19s-1.68,1.15-3.56,1.11c.14-.38.29-.75.44-1.13s.29-.74.44-1.12Z"/><path class="cls-17" d="M539.58,673.35a18,18,0,0,1,1.16,6.11,41.54,41.54,0,0,0,.55,6.21,9.57,9.57,0,0,0,.42,1.63,3.08,3.08,0,0,1,.12,1.69c-.18,1.43-.3,2.89-.37,4.39a14,14,0,0,1-1,4.49,35.55,35.55,0,0,1-1.35,4.16,4,4,0,0,0,.83,4.06q1.93,2.31.41,4.39a19.47,19.47,0,0,0-2.42,4.34q-1.1,2.8-2,5.58c-.63,1.86-1.32,3.72-2,5.59a9.15,9.15,0,0,0-.9,1.2,12.24,12.24,0,0,1-.89,1.19c-1.15,1.94-2.18,3.86-3.12,5.76s-2,3.83-3.11,5.76c-1,1.57-2,3.13-3.13,4.71s-2.14,3.15-3.13,4.72a2.11,2.11,0,0,0-.55,1.4,6.35,6.35,0,0,1-.47,1.91,18.29,18.29,0,0,1-2.53,1.73,25.42,25.42,0,0,1,2.81,1.9l-5.55,7.08-5.55,7.08c-1.52,2.17-3,4.39-4.53,6.64s-3,4.48-4.53,6.65l-3.54,4.13a42,42,0,0,1-3.88,3.92q-1.62,1.58-3.21,3.28a43.09,43.09,0,0,1-3.51,3.33,70.89,70.89,0,0,1-6.31,5.37,37.53,37.53,0,0,0-6,5.56,14.08,14.08,0,0,1-6.67,4.12,19.37,19.37,0,0,0-6.78,3.34,5.33,5.33,0,0,1-2.85.73,19,19,0,0,1-3.32-.24,35.55,35.55,0,0,1-7.5-1.92,7.08,7.08,0,0,0-3.68-.57,5.34,5.34,0,0,1-3.77-1.09q-2.47-1.7-5.08-3.36c-1.75-1.12-3.55-2.22-5.39-3.32a22.16,22.16,0,0,1-5.57-5.38c-1.55-1.85-3.11-3.73-4.67-5.66a63.78,63.78,0,0,1-4.46-6.23,16,16,0,0,1-1.44-3c-.38-1.07-.76-2.11-1.13-3.09-.39-2.39-.82-4.73-1.31-7a34.41,34.41,0,0,1-.69-7.1,74,74,0,0,1,.45-7.68c.29-2.68.64-5.27,1.07-7.79a1.06,1.06,0,0,1,.46-1c.36-.32.53-.57.5-.74a5.21,5.21,0,0,0-.18-2.07,2.59,2.59,0,0,1-.1-1.56,144.47,144.47,0,0,1,3.69-15.56,37.42,37.42,0,0,1,1.39-4.83q.86-2.35,1.74-4.61a35.58,35.58,0,0,0,1.44-4.57,20.48,20.48,0,0,1,1.74-4.61c.85-2.41,1.72-4.75,2.6-7s1.86-4.51,2.94-6.78q3.78-9.29,8-18.1,1.18-2.29,2.24-4.44c.7-1.43,1.44-2.9,2.24-4.43a3.25,3.25,0,0,0,.7-1.43c.12-.55.06-.89-.17-1a4.67,4.67,0,0,0-3.94-1.19c-1,.34-2,.72-3.09,1.16s-2.09.91-3,1.42a4.81,4.81,0,0,0-3.66-1.41,17.08,17.08,0,0,0-5.3,1.94,21.19,21.19,0,0,1-6.39,2,19.25,19.25,0,0,1-7,0c.76-.43,1.37-.81,1.84-1.12a3.43,3.43,0,0,1,1.31-.58,8.57,8.57,0,0,0,4.25-1.74,12.16,12.16,0,0,0,2.69-3.59,6.88,6.88,0,0,1,.94-.94,7.7,7.7,0,0,0,.93-1q5.74-3,11.08-5.75t10.82-5.45q3.17-1.57,6.09-2.84t6.09-2.84c.93-.67,1.9-1.4,2.92-2.18s1-1.87-.07-3.27a18.74,18.74,0,0,0,6.38-6.82,40.43,40.43,0,0,1,5-7.39c1.4-1.63,2.69-3.24,3.89-4.84s2.49-3.2,3.89-4.83a3.91,3.91,0,0,1,3.26-1.06,4.89,4.89,0,0,1,3,1.34c.26.31,1.13.51,2.6.62,1,0,2.18-.05,3.41-.17s2.36-.16,3.41-.16c0,.17-.14.46-.48.86a30.46,30.46,0,0,1,3.41,1.8,32,32,0,0,0,4.18,1.68,5.17,5.17,0,0,1,3.17,3.15,1.44,1.44,0,0,0,.78.93c1.76.58,2.61,1.32,2.55,2.2a20.17,20.17,0,0,1-.45,3c-.62,1.33-1.18,2.65-1.7,3.95a17.21,17.21,0,0,0-1,4.11c-.29.75.23,1.37,1.55,1.85q4.29,1.39,8.47,3.07t8.77,3a16.14,16.14,0,0,1,5.46,2.81c1.44,1.18,2.88,2.34,4.32,3.45a1.66,1.66,0,0,1,.82,1.18,6.38,6.38,0,0,0,.59,1.74c1-.51,1.59-.43,1.91.21s.65,1.47,1,2.46a43.58,43.58,0,0,0,3.27,5.63A26.75,26.75,0,0,1,539.58,673.35Zm-10.17,10.33a8.66,8.66,0,0,1,.3-3.86c.4-1.37-.36-2.17-2.26-2.38-.78-2.14-1.57-4.16-2.4-6a40.35,40.35,0,0,1-2-5.58,10.09,10.09,0,0,0-1.8-3.38,10.25,10.25,0,0,0-3.85-2.52l.75,4.61a7.81,7.81,0,0,1-1.77-1.29,28.51,28.51,0,0,1-2.11-3.33,9.59,9.59,0,0,0-3-3.18,15.8,15.8,0,0,0-4.57-2.13,36.13,36.13,0,0,0-6-1.25,26,26,0,0,0-6.1-.05,13.51,13.51,0,0,0-4.92,1.46,1.72,1.72,0,0,0-1,1.23q-2.28,3.25-4.59,6.26a70.18,70.18,0,0,0-4.29,6.22q-2.5,3.82-4.84,7.61t-4.84,7.62a17,17,0,0,0-2.15,3.11,30.62,30.62,0,0,1-1.84,3.06c-.76,1.7-1.58,3.37-2.46,5s-1.69,3.3-2.45,5c-1.27,2.48-2.43,4.91-3.49,7.27s-2.23,4.87-3.46,7.51c-.64,1.16-1.24,2.27-1.79,3.32a31.07,31.07,0,0,0-1.5,3.26c-1.2,2.82-2.25,5.58-3.17,8.26s-1.88,5.35-2.91,8a41.48,41.48,0,0,0-1.74,5.54c-.44,1.82-1,3.75-1.71,5.79a7.4,7.4,0,0,0-.71,3.26c0,1.23-1.15,1.86-3.44,1.88a18.08,18.08,0,0,0,.86,6.16c.64,2-.35,3.91-3,5.73l.13.77q-.15,2.91-.25,6.08c-.07,2.11-.15,4.13-.25,6.08-.06.88-.17,1.82-.32,2.8a8.83,8.83,0,0,0,0,2.76c.34,2,.72,4.08,1.16,6.11s.93,4,1.47,6.05q1.06,2.71,3.68,1.5,3.13-1.83,6.16-3.37a44.28,44.28,0,0,0,5.81-3.58q3.31-2.64,6.59-5.55c2.18-1.93,4.27-3.75,6.28-5.49s3.89-3.52,5.67-5.39,3.56-3.64,5.37-5.34q1.31-1.53,2.34-2.88c.68-.9,1.44-1.94,2.29-3.13a2.85,2.85,0,0,1,.88-2.25,3.31,3.31,0,0,1,2.61-1.21l3-.5a11.23,11.23,0,0,1-.68-1.33,13.21,13.21,0,0,0-.69-1.33c.35-.41.83-.93,1.46-1.56s1.3-1.26,2-1.9a10.07,10.07,0,0,1,2.2-1.81c.94-.59,1.38-1.14,1.29-1.65-.3-1.88.07-2.77,1.12-2.68a7.76,7.76,0,0,0,3.64-.73,24.71,24.71,0,0,0-2.33,4.85,1.84,1.84,0,0,0,1,.36c.9-.85,1.76-1.65,2.58-2.39a8.74,8.74,0,0,0,1.92-2.55,20.53,20.53,0,0,1,4.46-6.11,20.65,20.65,0,0,0,4.46-6.11,14.59,14.59,0,0,1,3.37-4.23,8,8,0,0,0,2.67-4.64,4.53,4.53,0,0,1,1.19-2.29c.79-1.53,1.63-3,2.54-4.49s1.75-2.95,2.54-4.48a20.49,20.49,0,0,0,1.21-3.09c.34-1.1.64-2.11.91-3a32,32,0,0,1,1.41-4.7,12.79,12.79,0,0,0,2-.86.93.93,0,0,0-.5-.18.85.85,0,0,1-.5-.18,6.81,6.81,0,0,0,0-2,2.66,2.66,0,0,1,.34-1.76,5.2,5.2,0,0,1,.62-1.94,16.88,16.88,0,0,0,.92-2,42.16,42.16,0,0,1,.64-5.62A11.28,11.28,0,0,0,529.41,683.68ZM425.52,665.31q3.09-2.09,6.23-3.91a6.54,6.54,0,0,0-4.67,1Q425,663.83,425.52,665.31Zm72.12,79.74q2-2.94,4.18-5.93t4.18-5.94a.7.7,0,0,1,.47.06.72.72,0,0,0,.48,0q-.4,1.38-.93,2.91a8.29,8.29,0,0,1-1.58,2.75,21.68,21.68,0,0,1-3,3.39,34.55,34.55,0,0,0-3.08,3.13C497.92,745.53,497.7,745.4,497.64,745.05Zm18.84-31.69a8.85,8.85,0,0,1-.67,3.52,40.38,40.38,0,0,1-2.38,5.51,37.09,37.09,0,0,1-3.45,5.55,17.93,17.93,0,0,1-3.32,3.56q2.67-4.63,5.06-9.09T516.48,713.36Zm4.6-30.94a28.92,28.92,0,0,1-.35-3.09c-.07-1-.2-2.15-.39-3.35a2,2,0,0,0,1.25.06,17,17,0,0,0,.2,3.12,16.1,16.1,0,0,1,.2,3.11Z"/><path class="cls-17" d="M703.05,716.05a7.4,7.4,0,0,1,2.87-2.44,6.57,6.57,0,0,1,4.82-.14l-4.45,5.2c-1.93,2.24-3.71,4.37-5.36,6.39s-3.34,4.05-5.09,6.08a2.77,2.77,0,0,1-1.26.86,2.84,2.84,0,0,0-1.26.87,9.8,9.8,0,0,0-.9,1.19,9.38,9.38,0,0,1-.9,1.2L689.17,738c0-.17-.31,0-.83.66a18.58,18.58,0,0,1-5.47,7.59A57.64,57.64,0,0,0,676,753q-3.19,3.4-6.66,7t-7,7a9.92,9.92,0,0,0-1,.69,11.87,11.87,0,0,1-1,.69c-1.13.71-2.63,1.74-4.48,3.09s-3.76,2.81-5.69,4.35-3.83,3-5.67,4.47-3.23,2.5-4.16,3.18a28.11,28.11,0,0,1-6.49,4.22,57.28,57.28,0,0,1-7.35,2.78,62.76,62.76,0,0,1-7.82,1.81,12.87,12.87,0,0,1-7.68-1.1c-1.79-.76-3.08-.37-3.87,1.15a2.87,2.87,0,0,1-2.29,2.22,28,28,0,0,1-3.54.32,7.52,7.52,0,0,1-3.3-.12,3.24,3.24,0,0,1-2.11-2.41.79.79,0,0,0-.44.21.7.7,0,0,1-.43.2,6.22,6.22,0,0,1,0,1.17,6.63,6.63,0,0,0,.12,1.69,17.19,17.19,0,0,1-2.83-2c-.74-.67-1.58-1.36-2.53-2.08a.75.75,0,0,0-.39-.46.75.75,0,0,0-.39-.46l0-.25L587.93,789a15.63,15.63,0,0,0-5.74-6.4,4.11,4.11,0,0,1-2-1.65c-.43-.71-.92-1.46-1.46-2.25-.75-.75-1.55-1.49-2.4-2.23s-1.65-1.47-2.39-2.23a10.45,10.45,0,0,1-1.79-2.33q-.66-1.2-1.53-2.64a68,68,0,0,1-3.13-6.7,18.37,18.37,0,0,1-1.3-7c-.08-1.73-.09-3.4,0-5s0-3.24,0-5a1,1,0,0,0,.18-.82,15.66,15.66,0,0,1,.2-8.3q1.21-4,2.15-7.83c.12-.54.65-1.07,1.61-1.58-2.16-1.74-1.78-3.29,1.11-4.64a2.08,2.08,0,0,0,.66-1.68,2.78,2.78,0,0,1,1.2-4.14l.27-2.14a10.1,10.1,0,0,0,2.16-1.14c.65-.46.36-1.28-.88-2.48-.23-.14-.06-.65.53-1.53a8.63,8.63,0,0,1,1.71-2,7.52,7.52,0,0,1,.93-.94c.28-.22.17-.55-.32-1l2.49-2a14.6,14.6,0,0,0-2.12-1.49q4.26-.69,2.4-2.49a31.41,31.41,0,0,0,2.19-2.85c.58-.89,1.21-1.82,1.88-2.81.29-.74.64-1.5,1-2.26a14,14,0,0,0,1-2.53.73.73,0,0,0,.44-.2.67.67,0,0,1,.43-.2A14.56,14.56,0,0,0,591,686c.33-.49.16-1.56-.52-3.19a3.41,3.41,0,0,1,1.32-.48,3.82,3.82,0,0,0,1.33-.48,14.11,14.11,0,0,1-1.41-1,18.67,18.67,0,0,1-1.44-1.2q3.76-5.6,8.27-12.38a16.6,16.6,0,0,1-.58,2.19.73.73,0,0,1,.48.06.72.72,0,0,0,.48,0l1-1.73c.32-.58.72-1.34,1.19-2.3,1.56-.6,2-1.81,1.27-3.62-.37-1,.15-2.29,1.55-3.93a11.4,11.4,0,0,1,4.44-3.35l1.22-.2q-1.29-2.14.21-3.45a8.81,8.81,0,0,0,2.21-2.72,39.73,39.73,0,0,1,4.55-6.52q2.63-3.06,5.2-6.37a66.58,66.58,0,0,1,5.59-6.82,30.07,30.07,0,0,0,4.95-7,43.07,43.07,0,0,1,5.58-7.87c2.11-2.36,4.43-4.7,7-7a6.14,6.14,0,0,1,1.37-1.14,18.4,18.4,0,0,0,1.68-1.19,2.54,2.54,0,0,1,1.78-.56l8.72,1.72a1.69,1.69,0,0,1,.63,0,1.49,1.49,0,0,0,.63,0c1.06.18,2,.37,2.9.58a5.09,5.09,0,0,1,2.42,1.44,9.78,9.78,0,0,0,2.43,1.43,15.72,15.72,0,0,0,2.64.88,13.33,13.33,0,0,1,5.53,3.29c1.27,1.37,2.56,2.91,3.89,4.61a.69.69,0,0,0,.38.47,12,12,0,0,1,1.31,3.19,9.64,9.64,0,0,0,1.65,3.4,29.17,29.17,0,0,1,3.16,5,23,23,0,0,0,3.12,4.73,6.24,6.24,0,0,1,1.23,5.57,6.87,6.87,0,0,0,.92,5.63,1.15,1.15,0,0,1-.2.69,9.27,9.27,0,0,0-.46,1c2,.72,2.66,1.62,2,2.69a10.45,10.45,0,0,0-1.35,3.24c0,1-.08,2.07-.12,3a19.74,19.74,0,0,1-.43,3.09,8,8,0,0,0-.36,2.55,3.38,3.38,0,0,1-1.32,2.45,1.51,1.51,0,0,0-.42,1.25,2.29,2.29,0,0,1-.11,1.2,46.91,46.91,0,0,1-2.55,5.41,49.76,49.76,0,0,1-4.6,8.1l-2.9,5.2q-1.44,2.6-2.93,4.94a26.22,26.22,0,0,1-2.61,4.1,25.81,25.81,0,0,0-2.61,4.11,11.94,11.94,0,0,0-1.58,3.67,2.62,2.62,0,0,1-1.27,1.78,11.43,11.43,0,0,0-4.14,4.23,39,39,0,0,1-3.11,4.83,28.69,28.69,0,0,1-3.23,3.16c-1.28,1.09-2.46,2.15-3.54,3.2q-1.35,1.28-2.55,2.52t-2.55,2.52a33,33,0,0,1-3.43,2.93q-1.82,1.35-3.72,3a1.42,1.42,0,0,0-.87.4,28.36,28.36,0,0,1-8.48,5.46c-3.11,1.3-6.23,2.65-9.33,4a11.38,11.38,0,0,1-2.65,1l-.3.05A74.76,74.76,0,0,1,609,744.35a49.28,49.28,0,0,1-10.73,1.23l-.34-.2-1.7,1.07q1,2.46-2.07,4.53a1.22,1.22,0,0,0-.63.9,5,5,0,0,1-.29,1.09,2.62,2.62,0,0,0-.61,1,2.73,2.73,0,0,1-.62,1c-.87,1-.94,1.6-.18,1.74a5.68,5.68,0,0,1,1.82.62,12.61,12.61,0,0,0-.49,2.7c-.07.89-.13,1.78-.19,2.66a3,3,0,0,1-1,1.48q-2.36,2.74.27,5.46a2.19,2.19,0,0,1,.16,2.86,2,2,0,0,0,1.11,3c.64.07,1.26.67,1.86,1.79l1.17,1.39a26.4,26.4,0,0,1,.89,2.6,5.67,5.67,0,0,0,1.51,2.51,7.89,7.89,0,0,0,5.63,2,41,41,0,0,0,13.53-3.15,49.09,49.09,0,0,0,12-6.56c1.66-1.33,3.68-2.93,6.08-4.81s4.88-3.86,7.46-6,5-4.14,7.26-6.18,4.23-3.71,5.89-5q6-5.45,11.6-11.09l11.27-11.3q4.8-5,9.3-9.92t9-10.13q4-4.07,7.88-8.12t7.53-8.32a10.6,10.6,0,0,0,1.84-2.14l1.48-2.34a2.58,2.58,0,0,0,.68.28,1.49,1.49,0,0,1,.71.54q-6.21,7.85-12.61,15.45t-12.35,15.15c-.32.58-.59,1.11-.83,1.58a6.09,6.09,0,0,1-.87,1.33q-1.53,2.09-3.24,4.07l-3.28,3.82a2.36,2.36,0,0,1-.54.48,2.66,2.66,0,0,0-.55.48,1.63,1.63,0,0,0-.67.64,4.2,4.2,0,0,1-.64.89,4.9,4.9,0,0,1,1.42,0,1.87,1.87,0,0,0,1.36-.22,11.25,11.25,0,0,0,1.49-1.43,11.12,11.12,0,0,1,1.48-1.42c2.71-2.55,5.29-5.16,7.77-7.84A102.1,102.1,0,0,0,703.05,716.05ZM574.56,734.26c0-.17,0-.26.11-.28s.14-.11.11-.28a19,19,0,0,0-1.63-2.36,1.45,1.45,0,0,0-1-.1,2,2,0,0,1-.13,1.07.91.91,0,0,0,.17,1C572.25,733.5,573,733.82,574.56,734.26Zm.19-5.54c.65-.46,1.44-1,2.37-1.7-1.85-1.1-1.87-2.49-.06-4.19a.68.68,0,0,0,0-.79,1.24,1.24,0,0,1,0-1,.72.72,0,0,1-.48,0,.71.71,0,0,0-.47-.06c-.8,1.54-1.5,3-2.09,4.42s-1.3,2.88-2.09,4.41l.69.41C573.38,729.65,574.09,729.18,574.75,728.72Zm6.44,23.08a2.31,2.31,0,0,0,.75-2.09,3.92,3.92,0,0,0-.85-2.35,11.73,11.73,0,0,0-.62,1.94,14,14,0,0,1-.62,1.94.91.91,0,0,0,.24.48,1.15,1.15,0,0,1,.23.49C580.93,752.11,581.22,752,581.19,751.8Zm-5.37-32.71a5.94,5.94,0,0,0,1.67.65,19.21,19.21,0,0,1,2,.6,14.59,14.59,0,0,0,.81-1.71,7.94,7.94,0,0,0,.47-1.92,2.12,2.12,0,0,0-.08-1.43,10.4,10.4,0,0,1-.43-1.63,3.5,3.5,0,0,1,.83.26,3.35,3.35,0,0,0,.82.25,28.86,28.86,0,0,0,2.19-2.85c.58-.88,1.21-1.81,1.88-2.8a2.64,2.64,0,0,1,.35-.71,2.92,2.92,0,0,0,.35-.72c0-.16-.21-.31-.54-.43a.64.64,0,0,0-.76.12,2.67,2.67,0,0,0-1.39,1,6.21,6.21,0,0,0-.31,1,9.39,9.39,0,0,1-.31,1,1.68,1.68,0,0,1-1-.36c.29-.74.64-1.5,1-2.27a4.72,4.72,0,0,1,1.73-1.85,11,11,0,0,0,2.94-2.06q.38-.58-1.53-2.64l1.7-1.06c.75-.47,1.56-1,2.42-1.45a3.38,3.38,0,0,0,1.51-1.3,4.07,4.07,0,0,1,1.56-3.79,16.15,16.15,0,0,0,3-2.73,33,33,0,0,0-1.45-3.17,17.68,17.68,0,0,0,3.27-2.9,9.76,9.76,0,0,0,1.83-2.14c.5-.78,1-1.56,1.49-2.34,1.19-1.59.61-2.63-1.76-3.12a99.86,99.86,0,0,0-13.79,20.63Q580.87,708,575.82,719.09ZM583,743.9a36.56,36.56,0,0,0,1.83-5,34.67,34.67,0,0,1,1.82-5c-.4.06-.63-.07-.69-.42q-1.12.72-1.05,1.23a12.85,12.85,0,0,1-1.18,3.21,32,32,0,0,0-1.5,3.26,4.82,4.82,0,0,0-.15,2.91Zm4.07-30.33a6.31,6.31,0,0,1,2.4-2.49c1.13-.71,1.27-1.79.41-3.22a3.73,3.73,0,0,0-1.78.56,11.93,11.93,0,0,0-1.64,2.37c-.4.76-.84,1.54-1.34,2.31s-.38.85.43.72C586.06,714.26,586.57,714.18,587.09,713.57Zm4.61,7.12q1.49-2.34,2.73-4.26c.83-1.27,1.75-2.69,2.74-4.25a7.79,7.79,0,0,0-4.47,3.23A6,6,0,0,0,591.7,720.69Zm32.4-28.94c-1.16,1.76-2.22,3.56-3.17,5.37a60.64,60.64,0,0,1-3.18,5.38,3.23,3.23,0,0,1-.83.66c-.38.24-.68.29-.91.15-1,0-1.63.23-1.76.68a11.06,11.06,0,0,0-.33,1.77,7.15,7.15,0,0,1-.24,2.39c-.29.75-.59,1.46-.9,2.12s-.61,1.37-.9,2.12l-1.31,1.52a11,11,0,0,1-1.27,1.79,7.3,7.3,0,0,0-1.23,2,41.35,41.35,0,0,0-1.74,5.53,11.33,11.33,0,0,1-3.05,5.23l-.52.61-3.16,5.5a28.48,28.48,0,0,1,5.26-.34,10.51,10.51,0,0,0,5.12-1.1,26.27,26.27,0,0,1,2.61-1.22,23.19,23.19,0,0,0,2.62-1.21l2.67-.84a8.44,8.44,0,0,0,2-1,8.5,8.5,0,0,1,1.85-1.09,13.78,13.78,0,0,0,2.16-1.14A1.89,1.89,0,0,0,625,726l8.24-6.86c.93-.68,1.87-1.31,2.81-1.91a17.48,17.48,0,0,0,2.77-2.16,60.15,60.15,0,0,0,6.85-6.77,41.48,41.48,0,0,0,5.17-7.54l1-1.22c1.2-1.59,2.34-3.18,3.44-4.76s2.14-3.15,3.13-4.71l4-5.91c1.33-2,2.68-3.94,4-5.91a1.64,1.64,0,0,0,.4-1.38,4.28,4.28,0,0,0,.25-1.35,2.25,2.25,0,0,1,.54-1.41,95.22,95.22,0,0,0,5.86-13.81,46,46,0,0,0,2.29-14.55,18,18,0,0,0-.38-5.19c-.38-1.68-.71-3.38-1-5.08a2.75,2.75,0,0,0-.67-1.21,1.32,1.32,0,0,0-1.19-.59,4.25,4.25,0,0,0-2.57,1.47L668,637.57a14.48,14.48,0,0,1-2.14,2.19c-.71.81-1.37,1.53-2,2.16s-1.3,1.26-2,1.91a22.34,22.34,0,0,0-3,2.85,17.4,17.4,0,0,1-3.27,2.9,15,15,0,0,0-3.71,4,39.58,39.58,0,0,1-3.32,4.48,12,12,0,0,1-1.9,1.75c-.74.56-1.49,1.08-2.25,1.55a7.73,7.73,0,0,0-1.26,1.79,26.18,26.18,0,0,0-2,4,27.13,27.13,0,0,1-2,4,30.13,30.13,0,0,1-2.93,4L633,679a55,55,0,0,0-3.77,5.61,11.47,11.47,0,0,1-5.5,4.57,6.42,6.42,0,0,0,.39,1.38A1.51,1.51,0,0,1,624.1,691.75Zm-19-20.76c-2.05.17-3.51,1.45-4.36,3.87a33.36,33.36,0,0,1,3.29,1,4.18,4.18,0,0,1-.62-.95c-.16-.32-.38-.72-.67-1.2a5.7,5.7,0,0,1,1.24-.07,2,2,0,0,0,1.2-.33c.4-.07.94-.55,1.63-1.45a1.35,1.35,0,0,1-.88-.59A.71.71,0,0,0,605.08,671Zm1.81-4.23a5.76,5.76,0,0,0-1.23,1.12c-.43.51-.83,1-1.17,1.37a18.45,18.45,0,0,0,3,1.34c.05.34.28.48.69.41.32-.58.6-1.1.83-1.58s.5-1.08.79-1.83a3.75,3.75,0,0,0-1-.37,9.6,9.6,0,0,1-1.15-.33A1.59,1.59,0,0,0,606.89,666.76Zm4.84-4.73c-.35.41-.74.91-1.16,1.5s-.81,1.09-1.16,1.5a1,1,0,0,0,.43.72,3.19,3.19,0,0,1,1.18-.46,1,1,0,0,0,.82-.66,1.5,1.5,0,0,0,.43-1.25,2.21,2.21,0,0,1,.11-1.2A1,1,0,0,0,611.73,662Zm32.86,53.65a2.59,2.59,0,0,0,.49-1.79,13.84,13.84,0,0,1,.09-2.25,3.41,3.41,0,0,0-3,2.6A10.87,10.87,0,0,1,640.9,716a10.79,10.79,0,0,0-1.27,1.78l-3.28,2.9,1,.62c1.31-.91,2.56-1.82,3.77-2.72A34.11,34.11,0,0,0,644.59,715.68Zm3.54-5c.4-.06.75-.47,1-1.22a.3.3,0,0,0-.08-.51,1,1,0,0,0-.65-.16,2,2,0,0,0-2.09.61,2.5,2.5,0,0,0-.61,1,2.81,2.81,0,0,1-.62,1A12.58,12.58,0,0,0,648.13,710.63Zm96.93-48.72.17,1a30.6,30.6,0,0,0-1.35,3.23,4.43,4.43,0,0,1-2.07,2.58,5.85,5.85,0,0,0-2.28,2.26,17.11,17.11,0,0,1-1.61,2.57q-1.27,1.78-2.5,3.83c-.82,1.36-1.63,2.72-2.45,4.07a14.89,14.89,0,0,0-.71,2.35,7.86,7.86,0,0,1-.75,2.09,18.65,18.65,0,0,1-2.91,4.15,18.89,18.89,0,0,0-2.91,4.15c-.87,1-1.71,1.95-2.51,2.78a14,14,0,0,0-2.16,3,6,6,0,0,1-1.75,2.65,15.63,15.63,0,0,0-2.36,2.75l-.79.91a4.65,4.65,0,0,1-2.06,3.62q-1.83,1.23-3.79,2.59c-1.39-.82-2.1-1.36-2.14-1.62s.58-.92,1.85-2a8.76,8.76,0,0,0,1-1.47,5.14,5.14,0,0,1,1.31-1.53c.53-.61,1.1-1.23,1.73-1.86s1.3-1.26,2-1.91a32.54,32.54,0,0,1,2.86-3.48,35,35,0,0,0,2.86-3.49c.85-1.19,1.65-2.33,2.41-3.42s1.56-2.22,2.41-3.41c.78-1.53,1.48-3,2.08-4.41a33.22,33.22,0,0,1,2.13-4.15,16.52,16.52,0,0,1,2.36-2.75,35.82,35.82,0,0,0,2.66-2.8l-1-.36a3.73,3.73,0,0,0,.22-1.46c0-.63.1-1,.31-1q3.35-.55,2.77-2.16a4.72,4.72,0,0,1-.18-3,3.65,3.65,0,0,0,.31-1.89.79.79,0,0,1,.48,0,.66.66,0,0,0,.48.05,6.48,6.48,0,0,1-1.06-.74,7,7,0,0,0-1.06-.74q-4.17,7-8.39,13.58a141.32,141.32,0,0,1-9.42,13l-.69-.41a2.39,2.39,0,0,0,.59-1.15,2.3,2.3,0,0,1,.59-1.15q2.76-4.12,5.38-8.08c1.76-2.65,3.56-5.26,5.43-7.86q1.92-3.47,3.29-6.58a9.49,9.49,0,0,1,1.28-2.7c.58-.88,1.12-1.71,1.61-2.5l2.1-2.44,2.08,1.23a18.44,18.44,0,0,0,1.71.9c.68.33,1.24.63,1.71.9a4.33,4.33,0,0,0,.34,1.13A5.37,5.37,0,0,1,745.06,661.91Z"/><path class="cls-17" d="M899.87,560.65a14.4,14.4,0,0,0,4.19,3.64,5.24,5.24,0,0,1,2.76,4.4,3.89,3.89,0,0,1,0,1.84,19.59,19.59,0,0,0-2,4.8c-.53,1.84-1,3.48-1.37,4.94a.72.72,0,0,1-.22.57l-2.36,2.75-2.37,4.58-2.37,4.59a25.49,25.49,0,0,1-2.32,3.93c-1.26,1.87-2.65,3.84-4.18,5.93s-2.92,4.07-4.18,5.94a25.55,25.55,0,0,0-2.32,3.92l-1,1.73.08.51-.36,1.64c-.26.92-.51,2-.73,3.13a4.39,4.39,0,0,1-2.64,2.93l-.32,1.89a8.29,8.29,0,0,0-1,1.48,14.85,14.85,0,0,0-.93,2,3,3,0,0,0,.28.74,4.44,4.44,0,0,1,.36,1.25,26.9,26.9,0,0,0-2.71.58c-.8.22-.89,1-.26,2.27l-.7,1.43a3.54,3.54,0,0,1-.61,1c-.26.3-.38.54-.35.71a2.28,2.28,0,0,1,1.16,2.3,10.51,10.51,0,0,1-.73,2.22c-.3.67-.6,1.37-.89,2.12a2.35,2.35,0,0,0,.38,2.3,23.35,23.35,0,0,1-2.6.29,16.35,16.35,0,0,0-2,.2.72.72,0,0,1-.22.56,32.55,32.55,0,0,0,3.29,1c-.21,1.26-.43,2.48-.65,3.65a11.51,11.51,0,0,1-1.3,3.49,3.31,3.31,0,0,1-1.72.94c-.81.23-1.7.5-2.69.84a17.86,17.86,0,0,1,1.58,1c.59.43,1.24.85,1.94,1.26.05.34,0,.53-.22.56a5.46,5.46,0,0,0-2.66,2.93,6.54,6.54,0,0,0,.65,4,5.9,5.9,0,0,1-.53,4.42c-.78,1.61-1.46,3.17-2,4.66a8.58,8.58,0,0,1-.47,1,1.45,1.45,0,0,0-.16.94q1.29,2.16-1.38,3.64c-1.41,1.11-1.62,2.19-.61,3.25.46.28.79,1,1,2.2.24,2.76-1.44,3.91-5.06,3.45a.49.49,0,0,1-.08.41.48.48,0,0,0-.1.41c1.33.49,2.45.92,3.34,1.3a2.23,2.23,0,0,0-.57,1.29,2.25,2.25,0,0,1-.56,1.29,11,11,0,0,1-2.49,2c.46.28.93.61,1.41,1a15.93,15.93,0,0,0,1.4,1c-.29.75-.59,1.46-.89,2.14s-.61,1.37-.9,2.13a44.5,44.5,0,0,0-1.43,13.2,83,83,0,0,1-.47,13.24,15.1,15.1,0,0,0,.1,4.44,8.43,8.43,0,0,1-.77,4.85,5.49,5.49,0,0,0-.5,4.54,13,13,0,0,1,.49,4.91c-.21,1.26-.42,2.48-.65,3.65s-.44,2.39-.64,3.65a6.65,6.65,0,0,0-.23,2.4,11.85,11.85,0,0,0,1.62,4.19,38.73,38.73,0,0,1,1.65,4.32,15.41,15.41,0,0,0,1.9,4,4.24,4.24,0,0,0,2.14,1.62c.88.29,1.87.61,3,.95a1.62,1.62,0,0,0,1.43.16,8.44,8.44,0,0,1,1.35-.35q-1.5,4.18-8.48,3.49a12.73,12.73,0,0,1-3.12-.93,12.43,12.43,0,0,0-3.12-.93,21.51,21.51,0,0,1-9-4.55,65.21,65.21,0,0,1-6.58-6.8,25.1,25.1,0,0,1-5.16-10.43q-1.4-6.6-2.14-13t-1.53-13.13a16,16,0,0,0,.14-2c0-.61.72-1,2.14-1.27.2,0,.37-.23.52-.61s.29-.75.44-1.13c0-.17-.25-.26-.67-.28a2,2,0,0,1-1-.23,3.33,3.33,0,0,0-.74-.67,1,1,0,0,1-.43-.72c0-2.28.13-4.58.28-6.88s.23-4.6.27-6.88c.05-.89.07-1.68.06-2.38a16.87,16.87,0,0,1,.09-2.12c.3-3,.58-6.14.84-9.34s.65-6.33,1.13-9.39c.09-.71.2-1.34.32-1.89a11.73,11.73,0,0,1,.62-1.94,1.48,1.48,0,0,1,.78,0,.65.65,0,0,0,.48.06,3.67,3.67,0,0,0-.32,1.89,3.45,3.45,0,0,0,.33,1,3.52,3.52,0,0,1,.31,1,3.17,3.17,0,0,1,1-.82,1.33,1.33,0,0,0,.66-.76c1-1.74.45-3-1.55-3.69a2.94,2.94,0,0,1-1.18-.6.83.83,0,0,1-.33-1q.95-5.67,2-11.37T835.25,652c.45-2.35,1-4.63,1.54-6.82s1.19-4.5,1.84-6.88q1.73-4.75,3-9.18t3-9.17c.94-3.13,1.84-6.22,2.7-9.25s1.87-6,3.05-9c.71-2,1.47-4.1,2.27-6.15s1.67-4.14,2.58-6.21a2.84,2.84,0,0,1-1,.43.91.91,0,0,0-.68.63q-5.37,5.36-9.82,10.56L835.43,610q-4.11,4.49-8,9.08a40.36,40.36,0,0,0-2.74,4.26c-.8,1.45-1.6,2.93-2.39,4.47a63.44,63.44,0,0,0-3.65,5.33,39.85,39.85,0,0,1-3.69,5.07,16,16,0,0,1-1.49,2.35q-2,3.23-4.09,6.46c-1.42,2.16-2.78,4.32-4.1,6.46a5.5,5.5,0,0,0-.63,1.81,5.93,5.93,0,0,1-.64,1.81l-2,5.06c-1.26,2.49-2.61,5-4.07,7.51l-4.38,7.55c-.79,1.54-1.68,3.08-2.67,4.65s-1.89,3.11-2.68,4.65a15.58,15.58,0,0,0-1.45,3.52,23.37,23.37,0,0,1-1.41,3.78q-1.62,3.42-3.42,6.74c-1.19,2.22-2.33,4.55-3.38,7a117.17,117.17,0,0,0-4.46,10.86q-1.92,5.45-4.12,11.06c-.76,1.71-1.59,3.33-2.47,4.88a25.31,25.31,0,0,0-2.18,4.81,10.08,10.08,0,0,1-3.81,5.35,28.4,28.4,0,0,0-4.88,4.48,12.42,12.42,0,0,1-2.68,1.75,5.24,5.24,0,0,1-3.89.11,44,44,0,0,0-7.32-1.81,15.67,15.67,0,0,1-6.5-2.48,34.65,34.65,0,0,1-3.16-2.1,8.87,8.87,0,0,1-2.28-2.51,20.19,20.19,0,0,1-5.2-9.79q-1-5.22-1.89-10.6a32.93,32.93,0,0,1,.16-6.6,64.63,64.63,0,0,0,.47-6.65,38.12,38.12,0,0,1,.65-7.47q1.29-7.32,2.72-14.78t3.38-14.62q1.54-5.77,3.58-11.49t4.22-11.35q2.86-7.3,5.7-14.74t6-14.79q2.42-6.16,5.16-12.28t5.82-12.13A7.74,7.74,0,0,1,764.4,591a6.88,6.88,0,0,1,5.17-.85c.39,2.39,1.74,3,4.07,2a24,24,0,0,1,5-1.74,6.12,6.12,0,0,1,4.88,1.16,8.39,8.39,0,0,1-4.11.68q-2.37-.13-4.42,2.56a39.37,39.37,0,0,1,4.12.37,4.6,4.6,0,0,0,3-.5,5.44,5.44,0,0,1,4.39-.85,20.65,20.65,0,0,0,4.64.68,7.52,7.52,0,0,1,3.44,1,16.58,16.58,0,0,1,3.55,2.57,17,17,0,0,1,2.72,3.23,5.06,5.06,0,0,1,1,3,12.31,12.31,0,0,1-1.21,4c-.63,1.25-1.26,2.53-1.87,3.85-1.31,2.15-2.52,4.31-3.62,6.5s-2.28,4.44-3.57,6.76-2.47,4.64-3.54,7a33.36,33.36,0,0,1-4.18,6.86,14.27,14.27,0,0,0-2.91,5.07,47.79,47.79,0,0,1-2,5.18l-1,1.22L776.9,652a6.88,6.88,0,0,1-.94.94.86.86,0,0,0-.33.84,6,6,0,0,1-1.59,5.51l-4.28,4.38a5.52,5.52,0,0,0-1.35,4.16c0,1.92.58,3.23,1.74,3.91q-4.27,2.55-4.94,6.06c-.45,2.35-1,4.72-1.64,7.09l-.44,1.13q-1.07,3.06-2.17,5.86t-2.2,5.61a7.62,7.62,0,0,0-.68,1.56,12.16,12.16,0,0,1-.42,1.25,3.76,3.76,0,0,0,.32,1,3.28,3.28,0,0,1,.32,1,.73.73,0,0,0,.44-.2.67.67,0,0,1,.43-.2q1.41-2.85,2.64-5.82a20.09,20.09,0,0,1,3.33-5.4,13.83,13.83,0,0,0,2.89-5.2,19.56,19.56,0,0,1,2.29-5.1,77.8,77.8,0,0,0,4.2-6.72q1.93-3.47,3.9-6.68a3.63,3.63,0,0,1,1.48-1.42c.67-.37,1.19-.68,1.57-.92a13.05,13.05,0,0,0,.5-2.7,5.2,5.2,0,0,1,.83-2.5,126.85,126.85,0,0,0,8.56-12.56q3.92-6.55,8.21-12.76l.31-.05c-.21,0,.27-.22,1.43-.76q-1.37,3.11-2.33,5.76a26.39,26.39,0,0,1-2.46,5,33.64,33.64,0,0,1-3,4.68,42.69,42.69,0,0,0-3.24,5,10.63,10.63,0,0,0-1.49,3.26,35.25,35.25,0,0,1-1.15,3.47,1.71,1.71,0,0,0,1.38.82,8.66,8.66,0,0,1,1.7-1.06,2.93,2.93,0,0,0,1.35-1.28q3.78-5.6,7.4-11t7.4-11.06c1.55-2,3.15-3.93,4.83-5.78s3.29-3.69,4.87-5.52a19.62,19.62,0,0,0,2.27-3.26,37.86,37.86,0,0,1,2.23-3.52l.23-.56c0-.17,0-.27.26-.3a7.3,7.3,0,0,0,3.87-1.16,12.08,12.08,0,0,0,2.42-2.37,21.49,21.49,0,0,0,1.86-2.93,7.49,7.49,0,0,1,2.23-2.6,17.64,17.64,0,0,0,3.27-2.89l2.62-3.06a3.06,3.06,0,0,0,.68-1.55,3.11,3.11,0,0,1,.69-1.56,27.26,27.26,0,0,0,3.35-2.39,12.77,12.77,0,0,0,3.65-4.4,33.48,33.48,0,0,0,2-5.18,1.47,1.47,0,0,1,.5-.74,2.4,2.4,0,0,0,.55-.48,29.43,29.43,0,0,0,6.95-6.92,17.91,17.91,0,0,1,2.35-2.75l2.69-2.54a.68.68,0,0,0,.22-.56,1.81,1.81,0,0,0,.37-.58,2.18,2.18,0,0,1,.37-.59l0-.25c.29-.75.54-1.44.75-2.09a4.23,4.23,0,0,1,.83-1.58,8.9,8.9,0,0,1,.74-1.18l.79-.91a6.41,6.41,0,0,0,1.8-4.23,9.21,9.21,0,0,1,2.09-3.5q1.46-1.54,3.07-3.13c.87-1,2.38-1.35,4.52-1l7.66.06a11.36,11.36,0,0,1,7,2c1.18.85,2.31,1.68,3.37,2.46a7.65,7.65,0,0,0,4.42,1.25C899.63,560.43,899.84,560.48,899.87,560.65ZM778.67,682.11c.79-1.53,1.58-3,2.38-4.46s1.6-2.93,2.4-4.46a2.83,2.83,0,0,0-.67-.28,2.39,2.39,0,0,1-.67-.28q-1.85,2.13-3.37,4.22t-3,4.43a3.15,3.15,0,0,0,.28.75c.15.32.33.47.54.43C777.6,682.64,778.31,682.52,778.67,682.11Zm54,52.81c.69-.81,1-1.3,1-1.47a21.07,21.07,0,0,0,.6-3,9.94,9.94,0,0,0,0-2.89c0-1.39,0-2.84.07-4.34s-.82-2.79-2.67-3.89c-.18,1.43-.32,2.81-.41,4.14s-.23,2.7-.42,4.13c-.34-.82-.83-1.87-1.45-3.17l-1.22.2.38,2.3a2.27,2.27,0,0,0,.9,1.69,3.56,3.56,0,0,1,2,4.65.63.63,0,0,0,.3.87A3.76,3.76,0,0,1,832.62,734.92Zm41.19-139.29a1.41,1.41,0,0,0,.22-1.48,2.06,2.06,0,0,0-.64-1.07,12.6,12.6,0,0,1-1.85.17,1.91,1.91,0,0,0-1.45.63,10.73,10.73,0,0,0-2.08,2.57c-.48.87-1,1.78-1.42,2.73q-1.59,3.68-2.87,7.3c-.85,2.41-1.81,4.84-2.86,7.29q-1.07,3.06-2.4,6.3c-.9,2.16-1.68,4.34-2.36,6.55-.71,2-1.37,4.16-2,6.37s-1.25,4.32-1.89,6.34a17.88,17.88,0,0,1-.92,2,14.87,14.87,0,0,0-.92,2q-.95,3.83-1.87,7.65c-.63,2.56-1.24,5.11-1.87,7.66s-1.34,5.12-2.17,7.7-1.55,5.16-2.17,7.71c-.33,1.8-.6,3.6-.83,5.38s-.39,3.65-.49,5.59c-.32,1.81-1.33,2.67-3,2.6.39-1.46.76-3,1.12-4.65a43.91,43.91,0,0,0,.76-4.85,14.91,14.91,0,0,0,.17-3.7,14.94,14.94,0,0,1,.18-3.7,14.78,14.78,0,0,1,1-3.45c.46-1,.9-2.11,1.34-3.23a3.29,3.29,0,0,0,.1-2.25,3.35,3.35,0,0,1,.1-2.25c.53-1.83,1.08-3.59,1.64-5.25s1.08-3.5,1.59-5.51a38.08,38.08,0,0,0,.87-4.21,14.44,14.44,0,0,1,1.22-4q1.58-3.66,2.9-7a19.32,19.32,0,0,0,1.34-7,4.31,4.31,0,0,1,.68-2.21,9.62,9.62,0,0,0,1-2c.54-1.49,1-2.88,1.4-4.17s.88-2.68,1.47-4.18a2.27,2.27,0,0,1-1.6-.26,10.86,10.86,0,0,0-1.39,3.25,3.75,3.75,0,0,1-1.8,2.52c-1.4,1.11-1.9,2.24-1.52,3.4a3.59,3.59,0,0,1-.35,3.21l-2,.33a21.79,21.79,0,0,0,.24,3.24,21.89,21.89,0,0,1,.24,3.24q-3.66-.71-5.11.18T841,637.23q-1.06,3.33,4.59,4.5c-.31.75-.74,2-1.29,3.88a7.73,7.73,0,0,1-1.81-1.27,26.9,26.9,0,0,0-3.46,2.4,5.38,5.38,0,0,0-.88,2.24,10.54,10.54,0,0,1,2.51-.15,8.78,8.78,0,0,1,2.58.11l-2.28.76c-.51.18-1,.4-1.65.67a15.29,15.29,0,0,0,1.57.79c.57.26,1.22.59,1.93,1l-2.65,1.35a6.28,6.28,0,0,0-2,1.5,9,9,0,0,0-2.19,3.77c.06.34.43.72,1.13,1.13.55-.44,1.05-.87,1.5-1.3a15.29,15.29,0,0,0,1.2-1.24l.78-.92a11.86,11.86,0,0,1-.54,3.5c-.35,1.11-.65,2.21-.89,3.3a27.87,27.87,0,0,0-.57,3.37,32.44,32.44,0,0,1-.56,3.37c-.35,1.81-.65,3.56-.9,5.27a28.51,28.51,0,0,1-1.24,5.06,9.89,9.89,0,0,1-1.18,2.55,28.56,28.56,0,0,0-1.49,2.61c-.69,1-1.37,2-2,3.09s-1.32,2.1-2,3.08l1,.62a7,7,0,0,1,1.15-.59,2.82,2.82,0,0,0,1.11-.84l.17,1c0,2.62-.07,5.26-.26,7.91s-.28,5.3-.26,7.92l-.3,5.82c-.1,1.94-.19,3.88-.29,5.82a22.58,22.58,0,0,0,3.86.68,11.3,11.3,0,0,1,.85,8,13.24,13.24,0,0,0,.19,7.85,13.91,13.91,0,0,1,.51,5,39.81,39.81,0,0,0-.09,5.13,3.6,3.6,0,0,0,.9,1.69,7.67,7.67,0,0,0,1.27-1.78,15.12,15.12,0,0,0,.52-2.58,5.32,5.32,0,0,1,.85-2.37,4,4,0,0,0,.34-2.68q-.32-1-3.18-1.32a30.84,30.84,0,0,1,3-1.28,21.67,21.67,0,0,0,.76-4.32A4.82,4.82,0,0,1,843,728a12.65,12.65,0,0,0,2.09-2.45,5.38,5.38,0,0,0,.8-2.75,11.12,11.12,0,0,0-.43-1.64,9.33,9.33,0,0,1-.42-1.63,15.37,15.37,0,0,0-1,1.35c-.34.49-.68.94-1,1.35l-.87.4a5.59,5.59,0,0,1,.15-2,10.85,10.85,0,0,0,.27-2.15,1.33,1.33,0,0,0-.84-1.3c-.57-.26-1.78-.14-3.64.33.28-.92.58-1.75.89-2.5s.6-1.59.89-2.51c.58,1,1,1.71,1.35,2.27a19.14,19.14,0,0,0,1.3,2c.49-.84.9-1.52,1.23-2s.65-1.1,1-1.73l.79,4.86c1.37-1.8,2-3,1.93-3.47s-.83-1.25-2.24-2.24a1.9,1.9,0,0,1-.86-1.42,7.23,7.23,0,0,1,0-2.08,6,6,0,0,1,.67-1.66,5.7,5.7,0,0,0,.62-1.92,1.45,1.45,0,0,0-.21-1.27,10.07,10.07,0,0,0-.82-1.17.7.7,0,0,1-.47,0,.73.73,0,0,0-.48-.06,7.21,7.21,0,0,0-.68,1.54c-.14.46-.35,1.06-.65,1.8-1.23-1.19-1.86-2.12-1.86-2.81a5.8,5.8,0,0,1,.95-2.76q2-3.18,3.74-6.72c1.17-2.36,2.47-4.86,3.91-7.53l-5.17.85c.57-1.66,1.07-3.32,1.53-5s1-3.22,1.57-4.72c0-.34.33-.58,1.14-.71q2.36-.91,2.85.18a5,5,0,0,1,.4,2.43l1.3.31a18.48,18.48,0,0,1,2.66-4.11c.54-2.88.93-5.7,1.19-8.46a29,29,0,0,1,2.11-8.35,47.42,47.42,0,0,0,1.66-6,46,46,0,0,1,1.66-6.05,64.41,64.41,0,0,1,2.23-7.32,64.41,64.41,0,0,0,2.23-7.32,43.77,43.77,0,0,0,1-4.62,22.38,22.38,0,0,1,1.27-4.67c.7-2,1.5-4.18,2.38-6.43s1.67-4.38,2.38-6.42A2,2,0,0,0,873,609a2.35,2.35,0,0,1-.3-.87,31.09,31.09,0,0,1-3.48,4.51,4.35,4.35,0,0,0-.91,4.88,1.44,1.44,0,0,1-.44,1.12c-.59,1.5-1.2,2.86-1.83,4.1s-1.25,2.53-1.86,3.85a27.09,27.09,0,0,1-1.45,2.6,27.09,27.09,0,0,0-1.45,2.6,9.61,9.61,0,0,1-1.2,2.16c-.51.7-.63,1.29-.34,1.77a3.37,3.37,0,0,1,.68,2.25,2.59,2.59,0,0,1-1,1.47c-.55.45-1.16.89-1.81,1.35a4.62,4.62,0,0,0-1.46,1.55c.17-1.43.37-2.77.58-4a11.28,11.28,0,0,1,1.28-3.62q1.11-2.81,2.2-5.61a22.26,22.26,0,0,1,2.9-5.2q1.79-2.39,0-3.68l1.18-1.37a4.86,4.86,0,0,0,.87-1.33q1.9-5.55,3.8-11.12A65.66,65.66,0,0,1,873.81,595.63Zm-35.87,95.64a6.48,6.48,0,0,1-1.06-.74,6.61,6.61,0,0,0-1.06-.75A18.56,18.56,0,0,1,838,687.6a21.79,21.79,0,0,1,2.3.67,7.39,7.39,0,0,0,2.25.41c1.28.15,2,.55,2.23,1.21a6.35,6.35,0,0,1,.23,2.33,7.37,7.37,0,0,1-1.65-.52,2.65,2.65,0,0,0-2.67-.09,3.67,3.67,0,0,0-1.33,2.32c-.19,1.44-.43,2.83-.72,4.19s-.54,2.76-.72,4.19a11.4,11.4,0,0,0-.28,3.06,11.83,11.83,0,0,1-.27,3.06c-.19,1.43-.42,2.87-.7,4.32s-.52,2.88-.7,4.31c-.49-.45-.72-1.85-.69-4.22s.12-5,.28-7.79a60.66,60.66,0,0,1,1-8.16A36.09,36.09,0,0,1,837.94,691.27Zm13.77,13.49c1-.51,1.81-1,2.57-1.48s1.61-1,2.57-1.47a13.19,13.19,0,0,1-2.78-.72,18.6,18.6,0,0,0-2.46-.78,2.29,2.29,0,0,0,.11-1.2,2.22,2.22,0,0,1,.12-1.2l-.74-.66a18.37,18.37,0,0,0-2.09,1.52,13.38,13.38,0,0,1-2.39,1.58,3.12,3.12,0,0,0-.74-.67,2.74,2.74,0,0,1-.73-.67.82.82,0,0,0-.44.2.7.7,0,0,1-.43.21A8.81,8.81,0,0,1,845,701a3.67,3.67,0,0,0,1,1.54,1.41,1.41,0,0,0,1,.11l1.22-.2q3.21-1.32,3.42,1.8Zm-3.85-10.13c1.07.18,2,.33,2.73.47s1.56.31,2.43.52a.77.77,0,0,0,.78,0,3.21,3.21,0,0,1,.74-.25c.3-.75.21-1.26-.25-1.53a3.58,3.58,0,0,0-3.38-1.55A4.45,4.45,0,0,0,847.86,694.63ZM854.31,713a7.22,7.22,0,0,1-1.64-.52A7.72,7.72,0,0,0,852,714a12.16,12.16,0,0,1-.42,1.25c-.17.2,0,.36.39.46a1.9,1.9,0,0,1,1,.62Zm-2.38-26.38c.24-1.09.48-2.13.74-3.13s.48-2.14.69-3.4a7.58,7.58,0,0,0-3.38,3.18c-.72,1.35-.81,2.41-.26,3.19.08.51.53.7,1.34.57,0,.17.19.19.48.05S852,686.79,851.93,686.61Zm2-27.1a2.35,2.35,0,0,1,1.86,1.8c.14.85-.45,1.74-1.75,2.65a3.33,3.33,0,0,0-1.32,2.44,8.31,8.31,0,0,1-.36,2.56,11.61,11.61,0,0,0-.45,3,18.09,18.09,0,0,1-.41,3.21q-2.85-2.14-2.16-6.47A20.31,20.31,0,0,1,854,659.51Zm-6.76-24.08a5.82,5.82,0,0,1-.71,1.43,6.7,6.7,0,0,0-.87,1.32,6.14,6.14,0,0,1-.88,1.33l-.81-1.18a10.41,10.41,0,0,1,.44-2C844.58,635.64,845.52,635.36,847.2,635.43Zm10.69,40a9.22,9.22,0,0,1,1.81-5.15,4,4,0,0,0,0-4.85c-.79,1.53-1.57,3.14-2.32,4.84s-1.53,3.4-2.29,5.1a5.58,5.58,0,0,1,1.23-.07C856.72,675.29,857.25,675.33,857.89,675.4Zm-.24-25.94c-1.77-.58-2.64-1.14-2.62-1.67s1.17-2,3.45-4.5a26.16,26.16,0,0,0-.56,3.37C857.84,647.64,857.74,648.57,857.65,649.46Zm3.53-46.77a1.84,1.84,0,0,0-1-.36,4.18,4.18,0,0,0-2.29,2.21c-.37.94-.69,1.87-.95,2.78.11.69.47,1,1.08.88.46.27,1,.1,1.48-.51.26-.91.54-1.75.83-2.5A24.31,24.31,0,0,0,861.18,602.69Zm6.5,41.45c2-.33,2.89-1.43,2.58-3.31a1.75,1.75,0,0,1-.54-.44,2.76,2.76,0,0,0-.54-.43,28,28,0,0,0-2.67,2.8c-.2,0-.11.28.28.74S867.47,644.17,867.68,644.14Zm3.63-52a8.36,8.36,0,0,0,3.73-3.9q1.69-3,.79-4.72a7.28,7.28,0,0,0-3.45,3.72A8.4,8.4,0,0,0,871.31,592.11Z"/><path class="cls-17" d="M961.48,557.36a22.23,22.23,0,0,1,7.83,4l6.48,5.23c.52.62,1,1.28,1.58,2a3.51,3.51,0,0,1,.7,2.38,52.83,52.83,0,0,0,0,5.9,20.34,20.34,0,0,1-.8,6.56,64,64,0,0,1-4.75,8.13,45.87,45.87,0,0,0-4.45,8.08c-.83,2.59-1.7,5.22-2.61,7.91s-1.88,5.34-2.91,7.95a12.14,12.14,0,0,1-.55,2.33c-.29.83-.56,1.71-.82,2.62a11.07,11.07,0,0,0-1.5,3.27,8.46,8.46,0,0,1-1.79,3.31,22.68,22.68,0,0,1-2.73,6.22c-.82,1.36-1.61,2.59-2.36,3.67s-.61,2.33.45,3.73c.49.44.47,1.24-.08,2.37a5.15,5.15,0,0,1-2.25,2.47c-2,1.9-2.3,3.71-1,5.41,1.24,1.2,1.22,2.08,0,2.63a5,5,0,0,0-2.59,2.27,4.81,4.81,0,0,0,1,.49l1,.23c-.47.95-1,2-1.54,3a21.89,21.89,0,0,0-1.45,3.52,64.9,64.9,0,0,0-3.56,8.72,8,8,0,0,0-.54,2.45,2.32,2.32,0,0,0,.64,2,3.88,3.88,0,0,1,1,4.29,4.65,4.65,0,0,0-1.24,3.88c0,1.06-.1,2-.18,2.66s-.9,1.55-2.41,2.49c-.17.2-.2.69-.07,1.46a10.9,10.9,0,0,0,.7,2.37,7.22,7.22,0,0,0-1.59,2.63c-.2.73.31,1.61,1.52,2.63a4.79,4.79,0,0,1-.07,1.46,5.93,5.93,0,0,0,0,2q-.15,2.91-.12,5.92t-.12,5.92a17.45,17.45,0,0,0-2.63.17,10.82,10.82,0,0,1-2.32.12c0,.35,0,.57,0,.66a.48.48,0,0,0-.09.41,11.67,11.67,0,0,0,2.13.57c.75.14,1.55.32,2.42.52a16.38,16.38,0,0,0,.15,4.7,7.59,7.59,0,0,1-1.59,5.51,1.42,1.42,0,0,0-.23,1.48,2.06,2.06,0,0,1,.08,1.43,18.39,18.39,0,0,0-.16,1.87,2.21,2.21,0,0,1-.55,1.4c-1.63,1.49-2.15,2.8-1.54,3.93s1.21,2.33,1.84,3.63c.34.82.75,1.67,1.2,2.56a9.52,9.52,0,0,1,.94,2.86c.8,2.32-.2,3.27-3,2.85a49.41,49.41,0,0,1-11.07-2.77,12.16,12.16,0,0,1-7.1-7.1,83.64,83.64,0,0,0-3.42-9.41,33.38,33.38,0,0,1-2.55-9.82q-.74-8.28-1-16.63a132.89,132.89,0,0,1,.51-16.88,58.5,58.5,0,0,1,.35-8.32q.45-3.87,1-8.43.84-4.32,1.72-8.54c.58-2.81,1.13-5.74,1.67-8.81q1.88-9.49,4.12-18.65t4.73-18.75q1.95-7.14,4.33-14.49t4.65-14.54q2.37-6.42,4.12-12.88t3.53-12.78a11.3,11.3,0,0,1,.7-1.43,1.66,1.66,0,0,1,1.09-1A35.71,35.71,0,0,1,961.48,557.36ZM922.33,695.52a2.37,2.37,0,0,0-.27-1.66c-.3-.56-.61-1.17-.92-1.82-.3.75-.54,1.45-.75,2.1a10.31,10.31,0,0,1-.79,1.83l0,.26q-.64,5.61-1,11a28.22,28.22,0,0,0,1.48,10.91q.35.21-.66,1.68a22.44,22.44,0,0,1-1.52-3.55,15.87,15.87,0,0,0-1.87-3.76,2,2,0,0,1-.12-1.69,13.63,13.63,0,0,0,.47-1.91,2.43,2.43,0,0,0-.27-1.66,3.68,3.68,0,0,0-2.08-1.24q.34,6,1,11.65c.41,3.78.94,7.64,1.58,11.55a10,10,0,0,0,1.12,2,11.3,11.3,0,0,1,1.07,1.79q2.45-2.24,1.7-4c-.5-1.14-1-2.29-1.35-3.45a7.09,7.09,0,0,1-.06-2.23,4.49,4.49,0,0,1,1.52-2.21,4.09,4.09,0,0,0,.47-6.64,9.45,9.45,0,0,1,1.27-2.7,3.41,3.41,0,0,0,.71-2.35,11.32,11.32,0,0,1-1.13-4,9.48,9.48,0,0,1,.7-4.32A8.68,8.68,0,0,0,922.33,695.52Zm-8.11,0c-.07.89-.14,1.73-.21,2.53s-.15,1.64-.21,2.53a5.65,5.65,0,0,1,2.21.16c.06-.88.09-1.68.08-2.38s0-1.48.08-2.37c0-.17-.26-.26-.68-.28A6.3,6.3,0,0,1,914.22,695.54Zm16.41-31.3a2.54,2.54,0,0,0,2.55-2.51c0-.53,0-1.06.05-1.59a3.64,3.64,0,0,1,.51-1.66,8.21,8.21,0,0,1-3.21-.52,22.63,22.63,0,0,1-3.94-1.19c-.15.38-.29.8-.42,1.25s-.27,1-.38,1.51q-1,3.32-2,6.89a71.8,71.8,0,0,0-1.6,7.34q-.68,3.53-1,7.12t-1,7.38a1.2,1.2,0,0,0,.19,1.15,11,11,0,0,0,.8,1.05,14.82,14.82,0,0,1,1.43-.76c.58-.27.85-.57.79-.92a5.31,5.31,0,0,1,.78-3.8,4.26,4.26,0,0,0,.48-3.75c-.29-.48-.19-1.15.29-2a19.53,19.53,0,0,0,1.17-2.42,19,19,0,0,0,2.31-3c-.74-.75-1.42-1.38-2-1.9a2.62,2.62,0,0,1-1-1.28,32.26,32.26,0,0,1,1.48-4.31,17.73,17.73,0,0,0,1.22-4,5,5,0,0,1,1.27,1.1A2.34,2.34,0,0,0,930.63,664.24Zm-2.17,5.87c1.89,0,3-.23,3.46-.83a1.7,1.7,0,0,0-.18-2.07c.14-.37,0-.62-.28-.74a7.61,7.61,0,0,1-1.19-.59,9.39,9.39,0,0,0-1.06,2.14C929,668.67,928.76,669.37,928.46,670.11Zm5-13.41c1-.17,1.59-1.09,1.73-2.78a9.54,9.54,0,0,0-.77-4.73c-3.34,1.25-5.17,2.12-5.51,2.61s-.08,1.37.75,2.63A3.44,3.44,0,0,0,931.3,656,6.64,6.64,0,0,0,933.44,656.7ZM1019,487a11.11,11.11,0,0,1-.27,7.91,26.3,26.3,0,0,1-5,7.39,32,32,0,0,1-4.1,4.48,47.29,47.29,0,0,0-4.41,4.53,12.25,12.25,0,0,0-3.11,3.92c-.61,1.33-1.31,2.75-2.1,4.28a5.18,5.18,0,0,1-4.37,3.87,6.81,6.81,0,0,0-2.44,2.23,25,25,0,0,0-1.71,2.91q-1.18,2.3-2.43,4.21a9,9,0,0,1-3.86,3.12,3.49,3.49,0,0,0-1.53,2.09q-2,3-3.51,3.33c-1,.26-2.41-.08-4.23-1a13.28,13.28,0,0,1-7.47-7.43,15.9,15.9,0,0,1-.5-10.68q4.26-10.16,8.38-20.27T985,481.6a25.35,25.35,0,0,1,2.5-5.66q1.59-3.68,3.78-4.56t8.19-.56q-.84.6-1.53,1.17c-.45.39-.86.76-1.22,1.12.75.76,1.21,1,1.38.82a16.84,16.84,0,0,1,6.35-1.3,10.39,10.39,0,0,1,5.63,2c.52.62,1,1.12,1.34,1.49a2.4,2.4,0,0,1,.68,1.33,10.23,10.23,0,0,0,.93,1.82,5.47,5.47,0,0,0,2.09,1.36,7.81,7.81,0,0,1,2.83,3A6.77,6.77,0,0,1,1019,487Z"/><path class="cls-17" d="M1095.52,607.25a3.32,3.32,0,0,0-1.21,2.16c-.08.81-.16,1.57-.25,2.28a3.06,3.06,0,0,1-.94,1.86c-.54.53-1.66.67-3.37.42a9.76,9.76,0,0,1,1.6,2.11c.19,1.2.34,2.4.43,3.61a7.31,7.31,0,0,0,1,3.25q2.67,4.83,5.78,9.58t5.79,9.57a58,58,0,0,0,5,7.74q2.77,3.61,5.84,7.06,2.25,2.26,4.19,4.58t3.93,4.87a1.42,1.42,0,0,1,.77.93c-.76,1.71-.61,3,.46,3.74s2.07,1.55,3,2.27c1.93,1.61,3.79,3.11,5.58,4.48a38.37,38.37,0,0,1,5,4.57,3.27,3.27,0,0,1,.94,2l.42,2.56a5,5,0,0,1,0,1.18,1.12,1.12,0,0,0,.65,1.07q5.19,3.1,10.1,6.37t12.42,3.35a6,6,0,0,1-6.31,3.4q-4.44-.32-9.1-.21a59.86,59.86,0,0,1-9.13-.47,58.54,58.54,0,0,1-8.11-1.82,42.37,42.37,0,0,1-7.71-3.21,128.56,128.56,0,0,1-30.91-22.77q-6.6-6-12.51-12.53t-12.26-12.84a14.62,14.62,0,0,0-1.86-.87,2,2,0,0,0-1.74-.11q-2,1.36-3.74,2.85c-1.2,1-2.44,2-3.71,3.1,2.19.69,2.85,1.51,2,2.44s-1.77,1.91-2.64,2.93a56.6,56.6,0,0,1-4.12,4.35,54.89,54.89,0,0,0-4.13,4.36,14.93,14.93,0,0,0-2.23,2.6,27.2,27.2,0,0,1-2.18,2.85l.34.21a.7.7,0,0,0,.39.46c-.82,1.37-1.61,2.59-2.36,3.68a39.07,39.07,0,0,1-2.45,3.15,38.43,38.43,0,0,0-4.47,8,15.07,15.07,0,0,1-6.2,6.93,3.76,3.76,0,0,0-1.57,1.84c-.3.75-.68,1.59-1.14,2.55a16.94,16.94,0,0,1-1.6,2.62,5.05,5.05,0,0,1-3.33,1.6c-.64-.07-1.4.41-2.27,1.42q-2.76,4.14-5.53,8.14a14.57,14.57,0,0,0-2.55,9.22,13.75,13.75,0,0,1-.76,4.85,21.8,21.8,0,0,0-1.07,4.9,4.8,4.8,0,0,0,.18,2.07,20.24,20.24,0,0,1,.62,2.79,7.27,7.27,0,0,0-2.46.27,4.38,4.38,0,0,1-2.49,0,22.79,22.79,0,0,1-7.75-4.37,13.45,13.45,0,0,1-4.13-7.07,41.13,41.13,0,0,1,0-18.92,116.45,116.45,0,0,1,6-18.34c1.2-2.82,2.36-5.6,3.47-8.32a46.11,46.11,0,0,1,4.17-7.91q7.7-12,15.47-23.7t15.81-23.49a38.74,38.74,0,0,1,3.19-4.33q1.71-2,3.24-4.08a3.53,3.53,0,0,0,.46-4.81,42.65,42.65,0,0,1-2.91-4.38q-1.31-2.28-2.64-4.69-2.23-4.1-4.66-8.43c-1.63-2.89-3.19-5.78-4.71-8.69q-4.08-7.74-8.14-15.35t-8.45-15.3a4.81,4.81,0,0,1-.85-2.35c0-.62.65-1.38,2-2.3q2.26-1.41,4.27-2.54a10.38,10.38,0,0,1,5.13-1.1,8.38,8.38,0,0,0,4.15-1.34,25.35,25.35,0,0,1,4.33-2.16l1.74-.81a1.57,1.57,0,0,1,1.56,0,11.29,11.29,0,0,0,7.42.48,18.4,18.4,0,0,1,7.25-.53q2.82.07,6.54,2.74c2.48,1.78,4,3.43,4.4,4.93q1.58,5.79,3.13,11.44t3.13,11.44a29.31,29.31,0,0,0,1.58,4q.95,1.95,2,4.4a2.88,2.88,0,0,1,1.26-.86,2.87,2.87,0,0,0,1.26-.87l15.85-17.58,11.18-11.82,11.17-11.82q6-5.45,11.8-10.87t11.8-10.87c2-1.73,4.07-3.38,6.21-5a12.84,12.84,0,0,1,7.89-2.35c.84.05,1.58.07,2.2.06a3.69,3.69,0,0,1,2,.67,12.6,12.6,0,0,1-1.82,1.3c-.66.39-1.37.84-2.12,1.34l.13.77a14.11,14.11,0,0,1,2.15-.22,15.83,15.83,0,0,0,2.15-.23q2.43-.39,5.19-.72A6.39,6.39,0,0,1,1163,514a2.25,2.25,0,0,1,1,1.16,2.14,2.14,0,0,0,1,1.15,1.91,1.91,0,0,1,.45.85.79.79,0,0,0,.41.58c1.35.66,2.72,1.35,4.09,2.09a22.44,22.44,0,0,0,4.35,1.78q4.2.89,2.23,4.09a16.79,16.79,0,0,0,1.51,1.59l1.47,1.33c1.32,1.71,1.95,3,1.89,3.89s-1,2.18-2.8,3.87c-2,1.74-4,3.54-5.83,5.42s-3.8,3.77-5.78,5.67a17.51,17.51,0,0,1-2.18,1.94q-3.13,1.83-6,3.22t-6,3.22q-2.22,1.68-4.14,3.3t-4.14,3.31c-1.49,1.12-2.93,2.14-4.34,3.07a42.41,42.41,0,0,0-4,3c-2,1.89-3.84,3.87-5.59,5.9s-3.61,4-5.58,5.9a11.68,11.68,0,0,1-2.32,2.09,21.63,21.63,0,0,0-2.35,1.83q-4,4.07-7.92,7.86t-7.92,7.86a21.52,21.52,0,0,1-11.8,6.14c-.44-.11-.73,0-.89.27a2.2,2.2,0,0,1-.81.79.48.48,0,0,0,.22.36.47.47,0,0,1,.21.36Zm-87.7,82.11q-1.74.81-3.33,1.59a12.49,12.49,0,0,0-2.94,2.06,4,4,0,0,0-1.32,2.45,21.14,21.14,0,0,1-.62,2.85c.06.35.48.67,1.25,1s1.74.72,2.86,1.24a41.58,41.58,0,0,1-.58-5.42c0-1.57,1.36-2.49,4.23-2.79.4-.07.66-.37.79-.92a3.07,3.07,0,0,1,.7-1.42Zm2.55-5.41c.79-2.75,1.64-5.25,2.52-7.5.14-.37.92-.67,2.34-.91,1.3.31,2.11.18,2.43-.4a5,5,0,0,0,.58-2.19l.63-3.78a11.13,11.13,0,0,1,1.28-3.62c1.14-1.93,2.29-3.79,3.46-5.55s2.33-3.54,3.5-5.3a4.21,4.21,0,0,0,.19-2.66,4.92,4.92,0,0,0-2.65,1,6.42,6.42,0,0,0-1.33,1.4c-.34.5-.67,1-1,1.61q-2.46,4.08-4.91,8.15l-4.9,8.16c-.3.74-.59,1.53-.86,2.37a11,11,0,0,1-1.17,2.42,37.84,37.84,0,0,1-2.78,4,52.2,52.2,0,0,0-3,4.3,1.73,1.73,0,0,0-.38,1.51,4.66,4.66,0,0,1,0,1.71.81.81,0,0,0,.49.18.93.93,0,0,1,.5.18A38.77,38.77,0,0,1,1010.37,684ZM1025,670.52c2.31.15,3.8,0,4.47-.34a5.63,5.63,0,0,0,2-2.29,3.17,3.17,0,0,0,.71-1.43c.11-.54.37-.85.78-.91q4-.66,4.9-3.43a11,11,0,0,1,3.13-4.71,46.61,46.61,0,0,0,6.58-7.51c1.85-2.67,3.7-5.37,5.54-8.13L1055,639a10,10,0,0,0,1.27-2.7,1,1,0,0,0,.09-1.33,3.83,3.83,0,0,1-.51-1.23,10.36,10.36,0,0,1-1.54.12,1.9,1.9,0,0,0-1.46.64,35,35,0,0,1-5.41,5.08,7.46,7.46,0,0,0-3,6.28l-.78.91-3.94,4.58-3.93,4.59a17.14,17.14,0,0,0-2.25,3.38,28.84,28.84,0,0,1-2.21,3.65q-1.27,1.78-2.84,3.61Zm3.32-19.7a12.94,12.94,0,0,1,1.83-1.22,5.56,5.56,0,0,0,1.52-1.17,8.53,8.53,0,0,0,1.71-2,15.77,15.77,0,0,1,1.66-2.24,4.22,4.22,0,0,0,.74-1.18,4.39,4.39,0,0,1,.75-1.17q1.26-1.79,2.49-3.82c.82-1.35,1.65-2.63,2.5-3.82a32.1,32.1,0,0,1,3.28-3.82q1.74-1.73,3.57-3.87a4.49,4.49,0,0,0,1.19-2.29q.14-1.07-1.59-2.1a46.54,46.54,0,0,0-6.25,6.67q-3.49,4.38-6.67,8.83a72.31,72.31,0,0,0-5.18,8.33Q1027.88,649.85,1028.35,650.82Zm19.56,3.09c-.88,1-1.76,2-2.65,2.93s-1.77,1.9-2.64,2.92a5.64,5.64,0,0,0,1.43,1.08,38.59,38.59,0,0,0,2.44-3.16c.76-1.08,1.58-2.13,2.45-3.16Zm7.38-8.3q-5.13-1-4.55,6.52c.87-1.37,1.62-2.54,2.23-3.52A21.36,21.36,0,0,1,1055.29,645.61Zm40.32-77.74a4.81,4.81,0,0,0-1-.49,4,4,0,0,1-1-.49,9.87,9.87,0,0,0-.9,1.2,11,11,0,0,1-.9,1.2,4.1,4.1,0,0,0-.74,1.17,4.1,4.1,0,0,1-.75,1.17q-3.75,3.76-7.35,7.51t-7.32,7.76a2.36,2.36,0,0,0-.5,1.66,16.69,16.69,0,0,1-.12,2.11,15.63,15.63,0,0,1,2.15-1.14,7.27,7.27,0,0,0,1.85-1.09,20.07,20.07,0,0,0,2.86-3.49,33.63,33.63,0,0,1,2.56-3.43q2.14-2.19,4.17-4.1t4.17-4.09a18.47,18.47,0,0,0,1.58-2.76C1094.71,569.72,1095.14,568.83,1095.61,567.87Z"/></g></svg>