<svg id="Layer_1" data-name="Layer 1" xmlns="http://www.w3.org/2000/svg" viewBox="0 0 497.98 452.41"><defs><style>.cls-1{fill:#ff2b33;}</style></defs><title>other hexpattern</title><polygon class="cls-1" points="104.34 183.47 153.05 183.47 177.41 225.66 153.05 267.85 104.34 267.85 79.98 225.66 104.34 183.47"/><polygon class="cls-1" points="24.36 137.48 73.07 137.48 97.43 179.67 73.07 221.85 24.36 221.85 0 179.67 24.36 137.48"/><polygon class="cls-1" points="24.36 228.78 73.07 228.78 97.43 270.96 73.07 313.15 24.36 313.15 0 270.96 24.36 228.78"/><polygon class="cls-1" points="264.73 183.47 313.44 183.47 337.8 225.66 313.44 267.85 264.73 267.85 240.37 225.66 264.73 183.47"/><polygon class="cls-1" points="184.75 137.48 233.46 137.48 257.82 179.67 233.46 221.85 184.75 221.85 160.39 179.67 184.75 137.48"/><polygon class="cls-1" points="184.75 228.78 233.46 228.78 257.82 270.96 233.46 313.15 184.75 313.15 160.39 270.96 184.75 228.78"/><polygon class="cls-1" points="184.32 45.99 233.03 45.99 257.39 88.18 233.03 130.37 184.32 130.37 159.96 88.18 184.32 45.99"/><polygon class="cls-1" points="104.34 0 153.05 0 177.41 42.19 153.05 84.38 104.34 84.38 79.98 42.19 104.34 0"/><polygon class="cls-1" points="104.34 91.3 153.05 91.3 177.41 133.49 153.05 175.68 104.34 175.68 79.98 133.49 104.34 91.3"/><polygon class="cls-1" points="344.71 45.99 393.42 45.99 417.78 88.18 393.42 130.37 344.71 130.37 320.35 88.18 344.71 45.99"/><polygon class="cls-1" points="264.73 0 313.44 0 337.8 42.19 313.44 84.38 264.73 84.38 240.37 42.19 264.73 0"/><polygon class="cls-1" points="264.73 91.3 313.44 91.3 337.8 133.49 313.44 175.68 264.73 175.68 240.37 133.49 264.73 91.3"/><polygon class="cls-1" points="184.53 322.73 233.25 322.73 257.61 364.92 233.25 407.1 184.53 407.1 160.17 364.92 184.53 322.73"/><polygon class="cls-1" points="104.55 276.73 153.27 276.73 177.63 318.92 153.27 361.11 104.55 361.11 80.19 318.92 104.55 276.73"/><polygon class="cls-1" points="104.55 368.03 153.27 368.03 177.63 410.22 153.27 452.41 104.55 452.41 80.19 410.22 104.55 368.03"/><polygon class="cls-1" points="344.92 322.73 393.64 322.73 418 364.92 393.64 407.1 344.92 407.1 320.56 364.92 344.92 322.73"/><polygon class="cls-1" points="264.94 276.73 313.66 276.73 338.02 318.92 313.66 361.11 264.94 361.11 240.59 318.92 264.94 276.73"/><polygon class="cls-1" points="264.94 368.03 313.66 368.03 338.02 410.22 313.66 452.41 264.94 452.41 240.59 410.22 264.94 368.03"/><polygon class="cls-1" points="424.9 185.25 473.62 185.25 497.98 227.44 473.62 269.63 424.9 269.63 400.54 227.44 424.9 185.25"/><polygon class="cls-1" points="344.92 139.25 393.64 139.25 418 181.44 393.64 223.63 344.92 223.63 320.56 181.44 344.92 139.25"/><polygon class="cls-1" points="344.92 230.55 393.64 230.55 418 272.74 393.64 314.93 344.92 314.93 320.56 272.74 344.92 230.55"/></svg>